<mxfile host="app.diagrams.net" modified="2024-08-03T17:59:02.375Z" agent="Mozilla/5.0 (X11; Linux x86_64) AppleWebKit/537.36 (KHTML, like Gecko) Chrome/123.0.0.0 Safari/537.36" etag="RMlPqavrYHp5XVj0NAI2" version="24.6.5" type="device">
  <diagram name="Page-1" id="_0katdoC4U5063cTaPLc">
    <mxGraphModel dx="3126" dy="1402" grid="1" gridSize="10" guides="1" tooltips="1" connect="1" arrows="1" fold="1" page="1" pageScale="1" pageWidth="850" pageHeight="1100" math="0" shadow="0">
      <root>
        <mxCell id="0" />
        <mxCell id="1" parent="0" />
        <mxCell id="35xYCaBtxRfiESiEqBeb-1" value="" style="shape=image;verticalLabelPosition=bottom;labelBackgroundColor=default;verticalAlign=top;aspect=fixed;imageAspect=0;image=data:image/png,iVBORw0KGgoAAAANSUhEUgAAA94AAALwCAIAAADu3jqOAAAACXBIWXMAAA7EAAAOxAGVKw4bAAAgAElEQVR4nOzdSaxk133n+XPHmN7Il0wyk0qJlGUIkg3JKKBXBS28K9emFrWwLVfZkExrLFGcJyXJJDMpkhbVtCVDtkVKBEVSHFBAL4zuKtSiUb1ooBoFNApuQK6FAAOGbRhWJskU3xARd+rFeXHyxJniRrwpMvP7QSJw48aNiDvQ8i/+73/OjZqmEQAAAABOWnzSOwAAAABACKI5AAAAsCSI5gAAAMBSIJoDAAAAS4FoDgAAACwFojkAAACwFIjmAAAAwFIgmgMAAABLgWgOAAAALAWiOQAAALAUiOYAAADAUiCaAwAAAEuBaA4AAAAsBaI5AAAAsBSI5gAAAMBSIJoDAAAAS4FoDgAAACwFojkAAACwFIjmAAAAwFIgmgMAAABLgWgOAAAALAWiOQAAALAUiOYAAADAUiCaAwAAAEuBaA4AAAAsBaI5AAAAsBSI5gAAAMBSIJoDAAAAS4FoDgAAACwFojkAAACwFIjmAAAAwFIgmgMAAABLgWgOAAAALAWiOQAAALAUiOYAAADAUiCaAwAAAEuBaA4AAAAsBaI5AAAAsBSI5gAAAMBSIJoDAAAAS4FoDgAAACwFojkAAACwFIjmAAAAwFIgmgMAAABLgWgOAAAALAWiOQAAALAUiOYAAADAUiCaAwAAAEuBaA4AAAAsBaI5AAAAsBSI5gAAAMBSIJoDAAAAS4FoDgAAACwFojkAAACwFIjmAAAAwFIgmgMAAABLgWgOAAAALAWiOQAAALAUiOYAAADAUiCaAwAAAEuBaA4AAAAsBaI5AAAAsBSI5gAAAMBSIJoDAAAAS4FoDgAAACwFojkAAACwFIjmAAAAwFIgmgMAAABLgWgOAAAALAWiOQAAALAUiOYAAADAUiCaAwAAAEuBaA4AAAAsBaI5AAAAsBSI5gAAAMBSIJoDAAAAS4FoDgAAACwFojkAAACwFIjmAAAAwFIgmgMAAABLgWgOAAAALAWiOQAAALAUiOYAAADAUiCaAwAAAEuBaA4AAAAsBaI5AAAAsBSI5gAAAMBSIJoDAAAAS4FoDgAAACwFojkAAACwFIjmAAAAwFIgmgMAAABLgWgOAAAALAWiOQAAALAUiOYAAADAUiCaAwAAAEuBaA4AAAAsBaI5AAAAsBSI5gAAAMBSIJoDAAAAS4FoDgAAACwFojkAAACwFIjmAAAAwFIgmgMAAABLgWgOAAAALAWiOQAAALAUiOYAAADAUiCaAwAAAEuBaA4AAAAsBaI5AAAAsBSI5gBuTJ///OdPehcAAJhP1DTNSe8DACzu1VdfjeNYCBFFkfGSXNM0ze///u+fwJ4BADAnojmA69hbb72VpmmSJPpKlcjl/741TVNNlGVZVdXdd999MrsLAEAQ0RzA9ef3fu/3+v3+b/3Wb6UTQogoilQWVwvysa5rPZqXZVmWZVEUw+HwnnvuOdljAQBASU96BwCglX//7//9YDDo9/v9fv/Xf/3XP/OZz2RZZpTM7WiuF87LsoyiSPW9NE3T6XRO4lAAAHCjag5g2X39619fW1tbW1tbWVmR6fzWW2+N41iGbPVoF8vFJJ3LwnnTNLJYrqrm0le+8pUTPT4AAPYRzQEsr3vvvVeG8tXVVbnQ6/XkS0YuF550rudy1dliRPP333//oYceOrGDBABggmgOYEldvHhRT+RZlmVZphrKJTuaC38uV8t1XevRvCiKv/u7v7t48eIJHSgAAPuI5gCWznPPPWck8jzP0zTVp0c0/rfLTue+XO6sne/s7Pz85z//0z/902M+UgAAdERzAEvkxRdfNBK5yuXO7e3/BVNtLUYWt6vm+oQtVVX9wz/8w89+9rO333776I8SAAA3ZmgBsCz+8i//cmtrS0/kMqD7crnQbjNkZ/TAbC06ldo3Nze3traO6tgAAGiBaA5gKbzyyivdbldP5HJBnxvRaDTX6cVynXCFclU7Nzbe3Nw8noMFAMApPukdAADxx3/8x91ut9vtdqbJ/vIoiuI4lrMlqgWdmK6a+0K5CI4QbZpmMBj89m//9smcAgAAqJoDWAZnz57tdrtpmmYTeZ7rs68Y7Bt/Ci1wi2Afi69kXtd1Xde33377sR01AAAGojmAE/a9733v3LlzKpfLBf22nYZA7J6ZzoW/ZK4K58d24AAAGGhoAXCSLly4cPbsWSOX63f69DWuOBfC6TwQymvN8Z8EAAAkojmAE3PPPffccccdMourVnLjpp7hLK4WnAFdzFkyl77xjW8c3ykAAEBDNAdwYu64446NjQ2VyGVAV6+2D+XOOO6rnTtDuSqZ6ykfAIBjRjQHcDIeeeSR22+/Pc/zWGP0lxs1b+eC8LeyOJ8GVqqMfiwnAAAAE9EcwAn4oz/6o3PnznW7Xb1k7hv6GUjnvpzt3EAIoZfM9c/XS+ZN0/zBH/zBER48AAAezNAC4AScO3duZWWl0+nE09QGenTWp0pUr4azuDOy+/rLhdbrwmBQAMAJomoO4Ljde++9p06d6na7qlKuCudiekyn1EyP49TXh7N44+o1dzKq5g3t5gCAk0DVHMBx+8hHPiLv/amGfkqBQGykcz09t0/nczmOEwEAwDSq5gCO1be+9S2Zy40JE/VuFkMzf6XcWOl8o07dIlSVz4/4NAAA4EDVHMCxWl9fVyXzmblcz9nG+nAW962cmc6NtwMAcJyomgM4PhcuXJC5PE1T3wBQyZmP22Rx35aBewzp6ZypzQEAJ4hoDuD4dCcijXM6c/u9jWvCcmODcEy3x3r6SuZEcwDAiSCaAzgmTz75pMzlWZYF5kwM53LnSzOTup687YCuGs2J5gCAk0WvOYBj0u12e72ePmeiXjL3peFmun1FBPtYhJXUVRA3Erk+4rOqKj2dCyHefffdIzoJAAAEUDUHcEy63W6n0+l0Ovqcie1zubFgbGYndb0Qri/YJfOyLMuyrKqKkjkA4GQRzQEch0uXLhlzJqqA7txej8hGsVzfIFw4NyK4s2QuQ7kkbwJKNAcAnBQaWgAcB2MAqB7QjS0baxCnsJJ6OI4Lz9BPZ8m8qqpygulZAAAni6o5gCP39NNP23OZO6czNzpSmunRn3aZ3Fk4tyvlvmGgMpfrVXOiOQDgBFE1B3DkZC7P81wf/WnPzRJYNiK4M5ELf7G8sSZgkRvIRK56zYnmAICTRTQHcOTkANAkSaJp8lVfKBf+bhZn4VxtbNTI9Ue7ZK7ncjVDCwAAJ4KGFgBH67nnnjNK5qpwbodsfbkJdrM4C+f2DIm+ZVUy17tZ1FyKR35SAABwoWoO4GjJXJ6mqbNkLgUK56LF3Cx2+G5mzZyot7LoVfOqqt55552jPB8AAHgRzQEcrU6nY5fM9WgeKJwLTzeLscZ4KdxoriK4PgBUNZqPRqNjOCcAADjR0ALgCL344ot5ngeiuR2yRbCbxV4jrFxuLNt3A3UOAKVkDgA4cURzAEconMud9PAtZoVy/WmbRvNAl3ld1+Px+ChPBgAAMxDNARyhmd0sBmcu1191hnJny4odytWCrJSrkrlK55TMAQAni2gO4Ki88MILeZ6rGwzpuTwwDFRfObNwbvM1tBglcz2Xy2heFMXRnxIAAEKI5gCOSq/Xc5bMnTOa61pWytUau5u8sRrN1crKwozmAIAlQTQHcFR6vZ5xmyFZQfdt70zk4VA+V+1cn5jF6GYpy/Ldd9890rMBAMBMRHMAR+LSpUudTqf96E+lmW43F/OH8kCjuepmMUrmR3EGAACYF9EcwJHo9XrGbYZUybxlo7mYM5T7iuXqqd7EYkxqzgBQAMAyIJoDOBL9fj/cyuJM5MZL4VDuXGnncpXO7XsMyccjOwcAAMyHaA7g8F24cGEwGDhzua+tRUVt9dQO5fZb7Hq5bzCo0WiuAnrTNJTMAQBLgmgO4PD1ej01Z6JaEP5crguEcl+NPFA4b6bnTLRbWezEDwDASSGaAzh8vV4vkMv1gK4Xyxtrhhbhajr3RXB7Za2x50ysqkoE+2oAADhmRHMAh+xb3/rW+vq6nsv1LC6XA4HYKJMLTy7XN3Zm9HqaUTWXa5qmYc5EAMDyIJoDOGSyZG7k8kBDi7NwrlfN9SyuvytQR7fZ3SzUywEAy4ZoDuCQnTp1ynf7T4MvHBtVc7XcppXFl86NiVkYAAoAWEJEcwCH6eGHH87z3JnLA5Oa2wVyX9eKL4i3j+bcZggAsLSI5gAO0y233BLI5VJjDfo0hIvlgZecrSzOMaCUzAEAS4hoDuAwbW1t6V3mgblZFLtwrtY74/vMIrqd0e1uliM6fAAADoJoDuDQPProo/qciXEcCyuX6zO0GMnbGcrnbWVpPDMnqlAuX6VkDgBYQkRzAIfmtttu0+8AKrQ47hsP2ngmZrE3m6tMHm5ocX4FAAAnjmgO4NCoOw35pk0M3w3UTsx2+dx4ad6GFlk1Zy5zAMByIpoDOByPPfZYrLHnTwzMoihczS3OUB5uZXE2tBi5nJI5AGBpEc0BHI6zZ8/qEdyZztt8zsxQPm9zi3GzIUrmAIClRTQHcDjSNDWq5mKebhaxaKO53VneWGNA6TIHAFwX0pPeAQA3gnvuuefTn/60r4mlTdXcDs2+pC7aTdvinDmRkvlhef75553XV396zz33nPRuAsB1hmgO4BCcPXu2TaN5IGobT9v0sfhmTvSNAa25A+hh+O53v9vtdm+99Vb7QuuNQ2VZvvTSS2VZPvTQQye9ywBw3SCaAzgEam4WNaO5XUz1vbex5l2xl/U14SCuSubqVRXNKZkf0Pe+9z0ZyrvdbqfTSdNUz+LyRk5G+VwI8e1vf/vxxx8/4V0HgOsE0RzAIUiSRNXL7Ubzmd0skrOmHu5dmdnQojeaH/pR3zz+/M//XIXyNE3TNJWnV0xfX19/yzPPPFOW5TPPPHPChwEAS49hoAAO6vz58yqaO6vmejSfq6fFF9bDMyc6p2ehZL6YV1555Y033tja2lpfXx8MBp1Op9Pp1HVdFMV4PK6qynmh7d9mQghq5wAwE9EcwEFtbGwkSeLqLZ/dzSI89xIynrZsZbEbWiiZL+y111578803V1dXu91uPpFlWTkh03lRFHL78KWXa772ra+d2PEAwPWAhhYAB2WXzEW7bha7Lt74G8319fM2tLz99tuHfMw3ujfffLPT6SRJkmqEEMU0dcXV30nEdLu5fJQbJElSRuXJHhcALDmq5gAO5L777pvZyuKM5nbydq7xJe82uVxF86M6+BvRyy+//M4778jGlVwTRVFpkVVz1dwiXLlcRfMiKcq0/NeX/vUJHyEALDGq5gAO5NZbb1XdLHY6F1pLg7MKrl5yNrH4Ng50s+htLbLLvCyp1Lby0ksvbW1tbW5uJhpZL5ftK7amaYwfZnr5XBXLm6ZJkqSMyyIuKJwDQABVcwAHIgOcPZ25mG4+DnyCr6dFzD89i7PR/J133jmiY7+R/OAHPzhz5sza2lpnWpZl8heOM5qr9bJ8Ph6Px+Nx0zRRFOltTlKZlmVaFmnxqf/1Uyd9uACwpKiaAzgQGc31voU23SySs1guZtXXRYv7EDEAtL0XXnhha2vr9ttvz/Ncr5cLIZqmGY1GdiJX7SvG5VZP4ziWBXVVMh9FozIqy7iUjyd90ACwpIjmABZ34cKF9fX1QCL35XK7X8V+GuDbwM7lRPOAJ554Ymtr68yZM7fcckuapiqUq6YgX6XcmNHcmc5lNFePZVQWcSEbWsq47P55d/jV4UmfAABYOkRzAIuTTQuyam7fb0gJVMGFq3Ye3tLI4gF0swRcvHhRhnLVXB5FkYzj8sTqTSyyX0WGcvn7x/ljTL/6eslcRvMyLsu4LKKiiIukSk76BADAMiKaA1ic0WjespslEMRn9qsYhXN7Y71kzgBQp/Pnz6+vr8tcvr6+rpfJ1a8du7lc38YZyiX1LXrJvEqrIipUN0tapSn/3wcAXPgfRwCLU9G8fS5XjGK5WGgKl3Auf+uttw5+jDeSRx99dGNj44477tjY2FhfX+/1ejKFG7dq8oVyyb7QaiYWMX2PoWsl87iUDS1VVMlcnjXZiZ4JAFhSRHMAC3ryySfX1tbsgYDCukO7zQ7lzfTNhpw1cmfJXGjTKcpQrpaP8OCvN/fff//W1ta5c+fW19fX19cHg4EQwgjlckGvl6uTqQTq5ZE1ukAVzmWLeR3VMpenTZpX+YmdCwBYYkRzAAuSk15nWaZPkBeumjvr4oFiudrA2btihHW9xZwBoLqnn376zjvvXF9fX1tb6/f7vV5PzfheVVWjDZ9VudwO5fbQT1Us16O5sArndVqXUVmLOq3TtNn/16k6nzr/qb+59DcndlIAYCkRzQEsKJvwRXPfG40Cub6+TcncVzivptHNIoT41re+derUqXPnzq2srPT7/X6/n2WZfjtPFc3lTxp9rGc4l+v1cv02Q5JaliVz0Yj9XC72Hzt1h8I5ANiI5gAWIYcS+nK58Hez+GrkvoL6zHQuUTI3PPzww6dOnbrzzjv7E71eL4oiGcf1jnw9lzeeSW+a6SlZ9GK5PvrTTudJkkR1tF8sF9ceO1WnU3VO5tQAwBIjmgNYhLNkbje06AVy4xOctXM7fNsrjVAutF5zPaAfw0lYWpcuXVKhvNfryQUZxFUri57RZUAP5HKVyI1iudHKIlzpXE/k+49NGlUR0RwAbERzAIuwo3m4y9wQiOz6NkbvivF2O5fLDmn5eMADvE499dRTW1tbp0+f7mvyPLfjuN5u3iaXS0axXM6GLlyJXD42TaP6y6/9E2lapZ2aaA4AJqI5gEXkeZ7nubN62r7X3Fg5szTuo+dy6Sa809Bjjz0mb+2Z53m/3x8MBrJkHsexUSCXDeVyQfaaC20QrZHLxeT+QUYiN1pZxPToT2FEc6twntQJVXMAsBHNAcztmWeeWV9fN6J5ZJEbGwXyZnrcp7GgnoYbWuxWFn3OxJutZP7AAw/IiRHzPM+yTIZy+VjXtR7EjYWyLPWfPb5c7mxiUbncmchVLhdCRCJKmzQTmd7Qklc5w0ABwEY0BzA32cqSpunMXG4I53JfIhfBdG60mMuFozv2ZXPhwoVz584NBgN5UVQo73a7gVCuZmJRn2NEc3l6A8VyvWRuh3I5zED9Z6ASufyXNRnDQAHAiWgOYG5Zlukl82j6VqBiuvPYyVcvF62bWCTn9Ntvv/32ERz00nn88cc3NjbOnj0rfybJernM5UmS1HVdluV4PPbVy+VIWeOHkJ7LA8VyvX9JaLPxGLlcfbg+Q0smsk7VyeucXnMAsBHNAcxNj+ZGLp9rDKix0k7kYjqd2++yR3/eDCXzhx56aH19/ezZs/1+X4Zy1cfS7/dlwhZChKO5+jQ9natoHiiWy6d2HBdWN8u1sQci0hvN8zrvVJ2kTI77xAHA0iOaA5jP888/v76+rse1md0szj4W4WpDtxtahKvjRS/x2mNAj+zQT94DDzywsrJy5syZ9fV1FcpVH0uWZfLw5d8TVDRXoVyO+5Qt5s4/XNi53EdoQdwumesLkt5oLrtZxtX4+E4cAFwniOYA5pNlWafT0UO5r2rubFZRC76eFrtkLlydLc4ZRW7gMaCPPPJIp9O59dZbNzY2ut2uavdX9XIZhRVVHTcK53qLuX0J9Fwuf33Zj+GSubCq5pJsMd+/FWjV6VSdvWrvmM4dAFw/iOYA5qOmTVS9yCqdi2CXuTMI2oVz4W9ocaZzY26WG2/axPPnz+d5vrm52e/3V1dXVaVc5fJOp2OfHF80V1OvSEYo98Vx3x9JhJXLhRbK7XQuC+dxHSdVojfVAAAkojmAOTz77LOnTp0KtLL4orkzlxuvNq72FeEpmTsL541Vp7+uXbhwIc/zjY0NOVV5p9PRQ7nsY0mSxD45RVEMh0MZx1VPi95iblyFcBw3iuXhaN5MDwBVoijSbwU6rsY3yWhdAJgL0RzAHHq9nj4A1O5mkZs5w5kIFs7tqrnwlMzVFCLOXvOjPwfH4dKlSyqUS0YoT9O03+8L7RSpHyejieFwOBqN9GgurEsQRVEyEehjCXQuGS1M0fS0iTr9VqC75e7xnEkAuL4QzQHMIdDNEiiZC09zuRHfjTp6IJ37cvkNUIh9/vnnVShP0zRN0yRJMo1M53meG4lcLuihfDgcjsdjOYuiajFXJ1leOD2XB0K5M5cbhXPJWTVXG+zfCrRK5NSNAAAD0RzAHIzpzAP5TF9oPM3Nzq+wN55ZMr8x5mZ58cUX8zyXU6/IRC7zsUzkqnCeZZkQQv0a0dO5SuR6LpdTshjdPkYi90XzQCK3L31jtZjblzhrsqzJiqqg0RwAnIjmANr67ne/u7W1pWc139wsOrt3Rbjq5c62FjGZzs/I5TdYNP+TP/mTNE1XVlaSJFG5XP7+yaalaSpDuV0vN3K5nCdRRXMxScx6pdwZzePpmcv1C63mTLSjuV4st6vmStIknaqzV+5RNQcAJ6I5gLZkN4vKakZVVW3mTGbOgC5ced14jKbnBAzk8uuxm0WG8m63K+O4zOXq7xKqs1yWzMXkFkuqCq76efRQPhqNVC6XG8uTacfxmdMjOhuWnD/GIq3FvJnuNTeW0ypVvxYAAAaiOYC2ZC4PTNbh4yyW2xnd+ai21Evmejqvqup6nM78pZdeyrJMhnKVy/U5CpMk0Ud/yqNWBysDt1zQc/lwOCzLUp9QsmkaZxx3RvPAn0RibX5M50VvUzUXQsiZHH/6058e9RkGgOsR0RxAKy+++KLezeJsN7c5m1iMUC5cTckGu61Fr5c3TXMdVWG/+93vdjqdXq+XavRQLoOyamKJokgdfjWhBneqRC4XZEFdRfNoMgFLmz4WZ3O5/beRwBW3q+b2n1OKoiiK4ljONABcf4jmAFpRMdE5c6KwbjZkhHJfl7nxFuEqmatPcOZymUSvizsNfec73+l2u4PBIMsy1b6id7Aosl6uiuVG+4o0Ho/39vb0aK7ncnldnJVyO5rPTOTGbzC7Xi4XfD0tSlVVRHMACCCaA5jt0qVLsmTum69DbWkHMrtrxXg13MoitFqsr9d8+UvmL7zwQq/XW1lZUQ0qdgeLYhfL5SGrerlsLt/d3d3d3VXR3JjZXVXfA9HczuWBwrmzWG4/9fW0RFEk95BoDgABRHMAs+nTmUdWN0vgjYFcbpfSnblc3762Zk6UafWtt946jKM8Es8991yv11tdXdVnWZG53A7l8WTop91er9fLVS7f2dmR0Vz2lKsvDbSVG9E8EMF9JXPJd93V7yhhzaepcjnRHAB8iOYAZpP9FZG/m8XJ19Bi95qLYC6X3+Ksmus3n182zz77bK/XW1tbM2Y/VOHYmcuNYrmey416uTQcDo1zZferOJfDidy+ypGrfdwQqJrLHxUyly/zTykAOFlEcwAzPPPMM1tbW3aRVU9sUbDR3F5psAvkvmUjl8vAdxhHeZguXrzY6/XW19ftWcl9oVzmZrtYLtn1clky39vb0783cg369BXL2zSXG7k8HMr1hWa611z9tKBkDgBhRHMAM8iSuaqXG4VzfUu9mUG0G/0Z3qaZ3HVITAqxjTYaUs7evVTTmT/99NO9Xm9jY0ON49RzuTORqwTsLJbrVfPhcCgT+e7u7vb29nA41L9a5ftwNHcWxedqZTHYL9n/GaiSP9EcAMKI5gBmUKMS7UgXeNfMYrmx3ldlVwVXFdNlvVzm8uUpmT/11FOyUt7tdvU4LhecsVhPvaqfx1cyl7lcRvPt7e3RaKR/e6wN6wykc+dF9BXO1VPfIYf/A1BULqdqDgAzEc0BzGBUzWcWU1XmdoZylTiNlfaC0b4ia+cyqsoWcxn4Dv145/XEE0/ISrkeylU0l+3jxhmzT6OzWK6iuaqXf/jhh9vb20Z7/cxiuWyk8eXywIIvfLcvouu5XP6gIpoDQADRHEDIs88+u7W1pRdW7W6WSGtEDoTsQPlcX1BxXC+ZqyaWpmlUwjvx6cwfe+yxwWCwvr7e6/XUnTuN4Z6BOK7HX+P8NNpc5sPhcHt7e3t7W+Zy9QcEKVwsl2V7Xx9LYEG0Loor9vbN9ABWedWWqgEJAJYN0RxAiF4yb9nNEq6a2xvrC0bxWA/leivLMpTMn3zyyc3NzV6v1+l0jDJ5MpkbUc/lYvo+mvqCnraNXzK7u7sykW9vb+/u7tq53BfNZSjX52NpWSZfLJcboihSrTh0swBAe0RzACF6o7ld6xVWybxNKLeL6HoW16O5XjJXlVeZzuu6Pqk5+O69995Tp05tbW31ej0VxxVVLDfKz77aufpYI5SXZSmHe8pobkxeLj/f174ir5oaGNoylwtropWFGfVyde1eeeWVg3wsANzwiOYAvJ544okzZ87YM4oYmVJnB26b8y3OYrleMlct5jKX15PbXh6zhx9++MyZM+vr63me6zVyo1juy7s2++SUZSlvJKT6WMbjsV4vj6YnL1fLKpTbszQGcrmwEvlBcrn6bWbk8qqqxuPx4ucdAG4ORHMAXnrx1dnzECiZB6rmisridnx3lsxPtpvlK1/5ytbW1u233762tuYM5Xp92lcyF/7zJiahfDQajcdjlcvl8aqfItFk8nK7fUWfDUaP5r5c7kvki0XzZnKzIbterqrmC598ALhJEM0BeKmbgOoCjeZtErkdwZt2rSzyBkNqbpZjHk147733fuITn/CFcqNYrpfMhT+dR9otM1Uol2Qrixz0qedy1aNiDPQ0crkezZ253N4x50JLKpQLIeR1NLrMZS7/wQ9+sPD5B4CbBNEcgFee53bx1dnzEAjlzm4WV5/LVEw3ulnKCdnNcpwl8/vuu+8jH/nIJz/5SXk2VBbXi+VG8HWWzIUrozdNY4Ry6cMPP5SDPo1c7mxf0W9pZERzY6/03QjvXht6g42Yvqbq9qWqm4WSOQC0QTQH4Pb444+fPXtWZTtfo7m+7Azc+mc6NzDSuV0y13O5LJkfzwDQ+1LaArAAACAASURBVO677+zZsx//+Me73a5K4W2K5XoDdyD+OkO5LJkPh0N1KpqmiaYHfcpQbjSxGH0sxkTmvn3wPQ3Ty+T2z63KUtc10RwA2iCaA3DL87zX6zm7zG0tq+b6Uz18O1faA0CNruujc//9958+ffpjH/uYvItQuFgeLpkLK6PLwyyKQmXx4XCoL8tBn+rMRJPmcrt9xZiJxWgxDw/xXKxkbodyvY9FXTUjl1dV9dJLLx3iBQKAGxXRHICbc0ZzZ8ncDuXOqrmdzp2J3FcyP565WR544IHNzc2zZ8/KCcv1QrVRLHcm8nDJXB6OPEY7kcsFtYE8UpXL7VCudskZzRdL5IGfXvoGRkA3qESuX9DDvUwAcKMimgNwW11dXbiVRf8cb/OKK6AbkU7Vy9Uw0PooB4BeuHDh9OnT3W5XL5bbrSyBYrkzE+uHIxfG47EdyuX9TfWfJaqJxa6U2zOxGOM+F0vkdjS3y+T2U+evLL1qfvHixcO/WgBwIyKaA3B49NFHP/nJT+rp0znriHC1stgx3Vcv19s2ahc9nR9pN8sTTzzR7XbX1ta63a6csDzRqFaWcLHcKJk3rtvu6K0svlAul33tK8a05c5JEkUwi/sSufFbS3/JF9Bra+JLu6Hl+Ke5BIDrF9EcgMPGxka4ZG5oXzLXk7ex0o6nejpXaw79YJ95+unV1dVut9vr9fQyudHK4hvxqT+VKutuO/pTI5Srnxz6ybEHevpmYnHuj5gnmhtPZ5bJjT4W41LaufzChQuHfskA4EZFNAfgsLGxoY8mNKK5UTJvrIZyX+Hcxy6WG00Ras0777xziIf57Be+kNx55+qkWO7M5WoIZiCRqwX1E8KXzlUry3g8livtw5dd/k6+MrmxIOaP5tFkkvWWAV24+ljsaD4ajQ7xegHADY9oDsD0xBNP3HXXXSp9Gq0sNmfJPJzF7VButFnbfRGHXjL/zhe+0LvzznxrS86NaMdxvW8knMhlD4nabdUfX7taWVQoN/4sUJalEKLT6QRyua9MbpTtxaFWze2A7ruaxiUriuKZZ545xEsGADc8ojkA0+bmphHK7dGN0sw4LqzOB0PjGv3pjOZVVR1iyfxPv/CF7p13Zrfdporlzmg+M5Hr3R3Grws7o4/HYzUBS6X10EtxHOv1cn3Z+QvBuWOiXYHcvpTKzIDeTG4OFY7mZVl+8MEHh3W9AOAmQTQHYFpdXY2n2WFOD2p6EBf+QZ82Z1h3Fs4PsWT+Z7/5m8mdd3bvuis5e9YY7ukslgf6RtTZCB+LzKmyrdxO5HK9DOLOaB7ejQW6zPVEbqTzpsXoT/3aBaL51atXv/Od7xzKJQOAmwfRHMCUixcvnj17tk03S7he3iaUqzwXzuVyg0Mpmf/wN3+zd9dd8cc/nm5uxnUdCxEnSazNkzhvsVx+rP0rwiDr5U51Xcu5GvU4Lhd8Pe6BfRNzRnODcVxGQA9fR/0k/PKXv7x69erBrxcA3GyI5gCm6HOzRJ5WFjulyfVq2RfgVFTVw5wRx+1cXh3GPWt+dOedyV13dT/xifgTn8iTJK6qOI6jqpILcZLIjB4eXqkW9EMWky5zHzUTiy2Kol6vZ3ewqJnU5dlumctbRnObXv4XnoBu18iN66uu3fb29tWrV7///e8f8JIBwE2IaA7gmnvvvffTn/60UTKXHcyKHe98iU1Yk3joSa72T2duR/MD3mbo9bvu6v7qr0af+UxnZSUZj+M830/kKppXVVQUdZqKYDRXmbWxujvszngZVdU9Pm1pmuqDPmU01zvd9d7xcC5v2WUeuIj6ejugG1fQF9Crqtre3v7ggw/oMgeAxRDNAVxz5swZFcoV+ZKR8JwRXMzqbDFK5mGHVTJ/+1d/Nf8X/yL5+Md7QsRFEUeRnsjjqtr/I0AcR03T+KO5OnB9obHuS2/Uy4fDobNk3ul08jw3KuVG77uYlMzVQmB6FjFPNA8L9LHoV9BQVdXu7u7Vq1evXr36yiuvHOSSAcBNi2gO4Jq1tTV96KeR+Wx2Onc+1cvkjau/xeiIMIrQC5fM/2OWic9+Nvvc57q9XmdvL87za5Vy2dBSlk3TNGXZ9Hq1EJEQtSua2x0satn5i0LP5XbJvGmabrcr6+VGpVzvd1eFcD2aB9paRDCa+zhfbawpWQI/sdSa4XB4dWKx6wUAIJoD2Pfwww//yq/8ij0A1A55egQX/kq5M5G3qZobc/Atdjj/26lT6ec+l3zsY/26zodDs4lFhfIkqQeDWoioaWQ6F9PxV/+xoY5XLtSuPhaVy50l8ziOO52OyuXO2xvJBT2RCy2aO3N5IJrrWtbOA6HcF9DH47HK5W+88cZilwwAQDQHsC/QzSKsMaBinht/GkVWZ9XcVzKvF+pm+auPfzz93Od6Wdbf2UnTdD+XT6J5Mx7LUN6kad3vR0JEQjSTdK7azYXVVq4+v/GM/pS/JeQtP+2SuWwul7ncaF+x73NkR3P11G5r0a9Ry3q5Tt+ycf1ZIBDQ5SG/995777333vvvv/+jH/1ogesFAJCI5gD2dTodPfPFWkJV9M5jEWxiaQ5QNa+1m/K8++67cx3F/xHH0Wc/2/30p/tF0SuKJMuuNZdXVSNEU1VNkuzn8jSNhKibJhJClsxlu7nebO1baLSZSfQJy/VcXhSFms68M+FsXzEWnIlcCG9bi7o6ol0iD2zjLJkbv6yq6RudXpn4i7/4i7kuFgDAQDQHIIQQ58+fv+OOO1SxXA1DlIwkZ+Q2e41darWfzszl0lxH8V82N9PPfa6XJP3d3V4U6c3lzXi8H8rjuEmSJs+bNJX1fz2diziuXZ3ljWv0p14R1+vlMpqrbhYhRK/Xk+M+jQjuzOXOknmgrWVmmXyu8rnvghpxXC1cvXr1ypUrly9f/sEPfjDXxQIA2IjmAIQQ4rbbblOhXPZa2IFPryX7QrmTryNiZjfLXLcZ+j8/9rHuJz/ZH436QnTiWDWXi6Jo6vpaKE+SOs+bLKu1UB4JUUdRled1p2N/spHL67ouXff1LMtS1ctHo5G8zVCSJDKUGxMj2tFcjf70JXJjwR4MYFyvmXxb2kHciOPq8cMPP5S5/PLlyy2/FAAQQDQHIL70pS/9xm/8RqqxQ9vMoYH1pH28TVi30/kBS+b/12c+s7q+3t/d7QmRJ4nM5fuhvCj2O1hkNO90ojxXneWREFUUNXle9Xp1vy9clXL1VO6wXiY3crmK5rJkLhO5miExXDL3zcoigm0t4jCyuK4sy3AcVyt3d3ffe++9y5cvX7ly5YATzwMAJKI5APFrv/Zrei432iQMMqGKyRjBQ4njvnTeZuf/77W17PTpLSF6QvSFkIM+RVnuV8r1UJ4kTbdrTMZS5nnd78t/jdbDox+vmNwLU+VyO52PJtToTzVtuXz0lcnVjT/DfSz2+sA1ktpHdnWk8vwXRTGzZD4ajVQuf/PNN+f6IgCAD9EcuNm9+OKL/X5f5fJAi7nQqubOVvJDSepzdbP8P2fPrq2s9HZ3+0L0hYjzPJI7KSdgUYk8jpskqXu9RvWUR1HZ6dT9ftXvV72e/CdcPeX6cdkdLDKdjzTD4VAIYdTL7Uq5ejTq5WJWH4v+1DBvFrc7lIy/WvjSuZySRQ79fP311+f6UgBAANEcuNnpt6KUrSy+5LdYELdDvM5YP1c3y19vbNwihAzl3SiKsmw/lE8n8v3+8l5PDfSsOh2VyOvJP/vza22Gx6Zp7Fwuo7mey8fjsZr9UJ5Ye/JyI5Srcy5aR3Nl3ixuv8XI5Yo8NF/JXE6VeOXKlddee23eHQAABBDNgZuaUTIPbBmI3b7HNpzdLPIxsDP/I8v6QshcLpvLmzjer5RPJ/L95cFgv6e809Hj+H7VvN+v81y4cqo6Fmcu16dkGY1GQohOpyNzuQzf+vzldiJX57xNNFfHvlhpPHBNhdbKov80Mtpa9ClZZC5/9dVX59oTAMBMRHPg5vXtb397MBio+BjoYDYy3FzhOxDE7VdVLgxMZ/7/dTqrcdyb1Mvz8ViUpYgiRyJPkjpJmsFAhvK635eJvOr1qkkri14y9/3e8OXyoijU/OWyKUXNfhiokesrZ/aUq6M+3LGejTXNjkrhOjudb29vy5I5txYCgKNANAduUk8//bSRy/VX9acqvQl/eF2sfL5Ayfx/3HJLfzDoCNEVoluW+Ycfqr2MqiqqKiHEtWieZWJlpZyEcpXIVUaXK5s49u18PWmt1uO4XFMUheosl3dr0nO5kc6NRC4XAq3kvmvhtMBwT+Oa6uffp55MyfLee++9/PLLc30jAKAlojlwMzp//ny/31dd5voM2XbV3E5yerZuXTF3BHHnBlVVvfXWW87d/n/PnesPBt2m6QjR+/DDrsrl02RGb4QoVlaqwWC/QD4Y1HJ5MLj2b2VFJIneu2JEczuX61OyyGK5kcjlyTQ6WIyMLsfazpXIF2grN97rvI5iOprbVNO5nJLlvffe++EPf7jwngAAwojmwM0o0ySuGQMVXy6vp0dwBh5bxvRaa2i2d+OvPv7x27Os3+93hOg0zeAXv+j98peh3U6ScnW1WlurVlfLtbVyba1cXS3X1iq5sLparq01cZxsb9f9vkiSOo5rbdxnm1wuhFB394yiSIVy/bZNzhZzfZJEubdHEcrDf/fQnxqTsdjkgV+5cuXb3/72AnsCAGiPaA7cXM6fP9/pdPr9frfblSXzQL1cpmQjyQlXW8u8JXPfBs65Wf73z3729MZGV4iuEL3d3ZVf/KL/wQehg4yiqTg+yeIylFdrayKK0l/+UkRRsb4eDYdRkkRydsUoapPLVWe5HsfVgl0s158G5qY8YCL3be9L5M1kvvaZ3Swffvjhz372MyYvB4BjQDQHbhaPP/54t9tdXV3tdrvdbldO6mdvphKeM5GLOadqWaBkbnSz/Od/+S9vWVuTxfL+lSsrly8P3n8/fKQyjlfTxXJZPhdCpFevNlEk4rhaXY3G46iqojiOkkQkSRPHVRzLQrIvlwshsiwzQrmey52JXDWXGyfZfnqIfSzhYrkdzZ3++q//mg4WADg2RHPgxvfoo492u921tTVZKZf3wZH3uNG7zPW3BHK50OZpaWnhkvl/+Vf/amV1tdM0vdFo5Z//eeXy5ZUrV8IHW2o18mvpfHVVNE32wQdNHIsoElFUDQZVVUXDocrlciFKklqIuiiaomiKQhRFVBRxUSRF0RRFPRhEnmK5PSWLeqriu7GrR9dcLmYlcvmot7LYVfOiKL761a8eZB8AAPMimgM3skceeaTT6aytralELovlznGf+rId6YRVNXfWyAPl81obaukrmevR/D//23/b7/e7QvTff3/l8uXVK1dWL18OH281GOjF8nJ1tVpZieo6vXpVJnJZL6+73arbjcoyqmsjl8dRFI3HUVFEk1CulpuVlXqSs53N5XY0l9vIBd8+H+5wzzaJ3P7JpAd06fLlyw8//PDCewIAWAzRHLhhnT9/Xk6PqG4XL4ctGkHcbjSvtRZz4UrnqvjdJpeXZWlv6SuZv/3220KIZ//Nv/mNtbV+v98tisEvfrFy+fLq5csrM3N5r6eK5dXaWjUY2KFcRFGd53WeR3Ud7e2J6VwexXE+Htd6Lp/E9GZlpZq05hvp3E7kxoQtei73Je9wIm+Z19skcuMi2j+Qqqr6+c9/fvHixTbfCAA4XERz4EbzyCOPyKbnTqejF8uzLDOCuF07j6KonkyQEqiaO6O581E2bQfq5UbJVgjx3L/7d585c6YrRP+Xv5ShfPXKlZXLlyPXzC1K3e1WqrO834+q6loonzSxNFHUpGmzubk/A/pkAKjM5SKOO0URjceVq15e5XmS50KbHlEu2KM8Y4szWC+W0QP05D0zoNeuGwzVdf3ee+997WtfW2wHAAAHRzQHbhAPP/xwr9eLoqjf78vgaBfL9Xq5WlABXQhR17VqaPE9GtHcl8tV/lPJ21k1N+q1f/zVr376ttu6dT34539WxfKVy5dj/02IhBB1nstQXvf7UVnKUK7K5E0UiSgScdxEUbm5KaoqqmtHLi/LeDwWWjeLDOjNykqdZUmeV3keaVVzY9CnnchlTG8TtQ/YVi6m/8RhJ3LfFdSvTlEUf/u3f/vII48ccE8AAAdBNAeubw899FCv1+t0Opubm0ZFPEkSNeLT2b5iNJfLXO7sYxGuVhYjjtttLfo8J/aWRsm8qqr/5dy5u3q93va2jOOrly+vXLmycvlyUhSBM9CkabW6Wvd6UVE4QrmWzsv1dVHXUV2Luo729vabWJJExHFeVfF4nExK5rKPJS6KZnVVhvI4z2Otaq4Gfdplcn2NytwHD9+hMzAdwe2rJqYDujzzRVEMh8PRaCTvafr3f//3ly5dOrqdBAC0QTQHrksPPfSQnAPx1ltvVf0VeglcLujTlovpernaUoY2YzNnQPfVy32Fc2PGj0A6X11d/fWPfvQjeT6YhHJVL0/H48B5aOK47nZ9oXy/Xh5FTRzL8aBRVUV1vT+XeZJEcSySJKvrZDyOx+NoPI4nrSyyXp5kmczlSZ4neR5NmsiNMrmzjyX2D/10H0vTzJvgWxbL1UJVVbu7u3t7eyqRy8d/+qd/+t73vjfXVwMAjgLRHLiePPjggzKRnz592ojj8fS0IXoWn1kpl1lcveTL5TOjuZHL9anBjZ4W9YFVVZ0+ffrU5uaZslzRm1iuXFm5fDkbDr3nIoqaKIrqOtne1tcIK5SLKKr6/brf329lkXMmTnJ5WtdJUciSeTMeqxZzsbKi6uVJnldZlmSZkcJ9iVyfkkWdTJv9kr4mENONNwbieKXd43M0Gu3u7sporgf0y5cvv/rqq97zDAA4RkRz4DrwwAMPyER+2223OeN4NN0yrvdRGHV0PZfbxXJjA2Hlcl/l29epoqjBoOrTmqbJsuzcuXObm5vrV69ea2KZ/Mv39ozz0CRJk6byMSrLZHd3+uUmkpm1qvRUKyvr13J5UUR1LWQubxoZyqe6WYpCrK5eK5ZPCueqUm7MimgvT3bHEcoDST28pX5RnJvpf9nQE7mcoVwlcn1hd3f3Rz/6Ucv9AQAcA6I5sNTkLTxvu+02OY5TFcWdcdzO5Uo83W6uPl8P6EZSF9Oxb2aXud5uLj+qniZr50mSyI/d2tra3Nzs9XqxEJ3xuLe9PfjgA5XLOzs78hiaNFVxvJ4sJMNhPBq1PIeqj0VMullEHEdJkgih5/KoKOLxeCqXy1CeZUnTZGWZNk2U53YWT7RpW/QTayzYAi/ZJfNA0DeyuLGgUrgRzX/84x+3PIEAgGNDNAeW0YMPPri6utrtdre2toxOFaP4bSRyPdIFcrlRgnW2tQirZB6O5mL6V4EsiidJkmXZaDRSGxdFcfr06fX19ZWVFVmHTssyq+usafK6zquqOxrlRVENBvs18kkc319IkmR7e3/2w/ZUl3lZir09eWuhbBLK97tZiiIaj5u1tSrPkyxL8ryO46Qs0+GwSdOk32/KsknTWJshUS203IsDlsynD8gcRGsvDIdDvUAul7e3t3/yk5+03A0AwDEjmgPL5fHHH19bWzt79mzkah+3g7gvlwtrbkS7ZB5N2sojbTCoSudyG1UFd0ZzuU0cx6p8K6yG6SiK5C1I+/3+cDjc2NgYDAaDwUDtXjYeZ3Wd13XWNPJfsbnpzOVRXSc7O1FVRWU5VzSPqmp/bpZJl3lnOpfH43FVFM3qapVlSZrWTZOORnWapvLHQK/XVJX8J3q9eNbEiHbJfK7mlkDJvJkeXGtkcfVUdrDolfLt7e2dnZ0333yz/UkDABw/ojmwLC5cuLC2tmbMuBK5msididzOc+FcrrYx0rmYTBWiXjLK5Gp7WS3WK+tG3T2OY1WPlxufPn16MBjkea7/8MjqOpehvK6zuq5XVty5fDxOt7f3Q3lVidYVaCF7WtQA0DjuFEUyHc2j8Xi8ulpHUVqWzXDYJEmdJDKXx92uyuVNVTVxHOd54LvCpfE2hXO7ZK4Sud3Eb69XiXxnYnt7+5133ml5rgAAJ4hoDpywhx9+eH19vdfrbWxsRP6RnWLOXC6EMMK9bweMdC5X1tq9h1QiV99ljBAV2pQg0eR+ovqCfOPKyspgMDD2Ko7jfBLKs6ZJo6jY2LBzebKzE5el7GOZt2QuhBDyjcNhlCR5WU7l8tEoqusmjtPRSPXMXMvlnc5+Ii/Lpqrquh4nie9LjEg9s3bujOnGlfJlcWc6Hw6HRiJ/7bXX5jtRAIATRTQHTsz58+d7vd5tt92WTu4xaWRWI5QLVy73ZW69dB1ZjS5yQUVDO53rMV2voAce1dBPYQX0NE1XVlY6nY7zMGUol+nczuWiaVLZxFJV+wl73kZzIfZvMzQc5mWpQnlclvoG6d5eE8dNHNdxnMZxkyRRnqtied004zStut0mjsV0Y72Yp4l85vbqfLZM5NJ4PFZxXC688cYbc+0SAGAZEM2BE/DEE090u93NzU05DtIuk6uRhXbJXLTL5UJraLFfUsvhdG68Re94cT46c3me54PBQDVnm9E8ilTJPOp2y8FAz+VRUSSTJhZVL18smkfjcba3J3O5c5u4LNPhUNXLVS6v6nqcJFW3W3W7Zbdr/3RxCpTMww3oM1O4Plu8vKPnjub111+f68wAAJYK0Rw4Vo8//ni/39/Y2MiyzNe+YvSo+NJ5OJeLSUOL8yV9jTOdBz7Z6GDRH4WVy+V07L6fH1EUpWUph37mqmQ+yeXJ7m68t7dfLD9IN4sQoq7TDz+MJuNWfZLRSOZykWVpVVWTSnnV65Xdbtnt1nkuJi31gRO1AD15G/nbUFWVupenal/56U9/elh7AgA4QURz4PhcunTplltuyfO8/Q2D7AVjG4O9pbFeX+PsXQkUg/WvbtNo3u/39V4dZ8dOPh7ndZ3Xdbm2plpZRBSpGRLNUD5/yXx/52flcikdDkWaRisr4yyTlXKZy+VCM53LfQE9XCnXZ7wJZHF7pYzjw+FwNBrt7e3t7OwwuBMAbjBEc+A4PPnkk2tra+vr64GQKrdsWTJ3fosvi/tq57503uaInDFdD+j9ft95mMZTWTJP4rjc3NyfiaWqZC7XO8un/mk94ocuqusmy6peT3Ww7OfybrfqdtXBzgzoKnzrM06qZb01xV4wWlb0RD4cDpkAEQBuYERz4Mi9+OKLp0+f9pXJw23lgfU2Z2k8vMaZzn3vDX+vPhK02+36srgZzeXoz0kuj4fDdDSy6+VCL5zPOeZyLlWvVw0GKperjF71ek0UCX8uV9namcXVsi+OGwvj8Xg4HI7H49EEBXIAuBkQzYEjdPHixc3NzX6/78vlbTpYnOudFns10Jgx11foOxnI4nbVvOn1ijQVcXytWG6P+9Rj+lGqBoOq3y8Hg7LXM2rnznp5XddGC0qt8TWu2E/VsgziMpTTQQ4ANxuiOXBU/uzP/uzUqVOBbCo8bScz8/oCnOXzeZtY2nx4NH370hkZPYqyui43N0VdX2su12dIVMt13QjRJEmTZcIzxcrBVf1+NRiUg0El/01Gf1a9Xp1l+gBQlcidZW+Vy+3GFfWoD/qUsx/KUM6khwBwMyOaA4fv+eefX19fl3OwBHK5Mm/vymElabuJ5eDfpf8pIJ7w/dEgrapyYyMejYxBn6KuhRBNHDdZVuW56PWEEE0UycaRZHf3SHpaoqhUuVzP6L1e1e3KXh27KdzZKa6XyY0Iri+X2nQrb7/99uEfEQDgekM0Bw7TY489trm5uba25p3Ge9JZLjyjM+eqkR8wox/wE8LNLUbHjl5Nv7YQRU0cyyAu4rjOsqjTEXUtmqaJoiSKRBQ1k8ckikRdx3le53k8Gi282z7XiuWDQTWd0askqXZ2yrKsVNm7LGUSNxaKqtpL06Io9KGcdhyvqqooCgZ0AgAMRHPg0Dz22GPynpdZlpkZVJsbUQSnTHFuMNPM7dvfrnLhsK6ncONg7Zgu1UkS9XqiaVT4NhO5ENdWNk08GtVHE82bOK4mWbzUe1qSpNndFcOhKMuoLEVZ+haaut7N850sK0cjNbmKPtGKWnj33XcPd+cBADcMojlwOB599NFer9fpdDqdTpIkdjuH8Cdy/ekhtn3rcfzg9fU2HxVI4foGQpvOpcqyZjCYSuRCOGN6VBR1njd5Xud5k6aHOx7UbGIZDOooara3RVk2nU44lNcylOf5dl0Xu7u+UP7WW28d4g4DAG5IRHPgcHS7XZnL5R2F9FyuR1URDOiHGKDbfNphZXfjEJy5XF9WuXz/MUmawcBbOI+iJIqiqpL1cvUvObxo3iSJDOUyl9dN0/zyl8143HS7otMRcdwmlO/U9WhvzyiQl2VJ1woAoD2iOXAInnrqKXlHelkyV7lcTEdSI5qHi+hHZ7GJWcIb28cSLpYbb6/juOn37UQuG1pEXcejUTMJ5XIh2d1tv/Nh+8Xyfr+uKvHBB2I4FDKUd7u+knndNLtZtp3nO3W9U9fbdT0cj/VQ/vrrrx/W7gEAbh5Ec+CgnnzySb1krgaAClflWL4lnNGPwjE0t4SL5eqOodeK5drj/vb9fhNFidHQIkQ8Hl8L5VmmCufxYcyi2GRZ1e02RSHef190u02323Q68lF0u1EUOUJ5nm/n+U6SbNf1TlVtV9WuFsopkwMAFkY0Bw5KhnKZztWEiYcezduM4zQ+Z2YcX+Azwxs4c7kQoq5rZyI3Kuh1FDUynVst5sa/5vCieV0UzQcfyCAu9Mdut8lzlctlKN/J8508l3FcfyzH45/85CcH3xkAwE2OaA4cyKVLl1QrSyCX+7K4HXxVgdleP++++d5yKHcasuvlxrIqlvsSuV01339Lt2u3mBvdLPvLSRJV1cKH0AhRCVEJUY/HzXjc7O3p9XLR7UZCyGJ5LcSO1lMuO1jk459TIwcAHB6iObC4ixcvylyu97HMFc2FJ50f+q6GK+iL/RgIpHO9/G9MXQAAIABJREFUWK5/S7hqrlSdTiNnSxwO97O41scy1XG+txfeSR+Zy8tJOi+FqMqyKUuxtydkQM9zUZaVCuWyQF7XO02z3TTbQvzpX/3VYl8NAIAP0RxYnOxjSdM0SRI9mgtPLg8Xyw9999rH8bm+PVwvj5xzsExH8HDVfL92nmWi04nlP0/hvMlzsVA0r/VEbizUdb23J/b2qjTd6XS2O50dIbaF2I6inTjejuPtOP7Of/2vC3wpAAAzEc2BBb3wwgtyPhY1JYsvl9vRXMyaHfwgOxbuVwm82j6sBw4kPNxTZXRjpX6TVKmu66rTqVdX66qqy1L+a4pCjMdiPBajUdTtRsNhlOfJnB3ntTORTxbGQoyFGAmxHccyi+/E8XaSyFD+7H//73N9FwAAcyGaA4t4/vnnVRNLuF5u5PJ56+UtY/pBCuTtW88DiVw9lfVy/cPDTSzyqWx90c+Y/JC6261kOp/8U/afCpEURTIex+NxUhTh/ReT/G2E8kKIQgvlIyH2VCifLDz5N38z88MBADggojmwCBXKfbOY27lc5VFfAj5IsXzeAvnMV9t8UfiNeoFczMroqq0ljuO6rtW7oiiqut16ZaUqS/lvP6OXZV2WVVkmWaZH82Q8TooiHo8jV/e8nshlFtcfZSgfCjESYjeOt5NERvNH/+7v2p8fAAAOgmgOLEKFcqObJZDL56qXHySmCy3XOtf7viIwl2L7RB7YjTYZvaoqezfqfn+qcD7J6FUUGYk8mTyN5crxOJJBfxLHVRa3Q7nK5UMhZCi//733Wh4pAACHgmgOLMIumduhXLgGgzqFw+68Md2e9uRQyuctdyOyJn/07U+ggm5/ZtXvG60sdVUleX4thctoPknkamWytxdvbxeuMrl8HE6H8pEQe1H0H0ajNgcLAMDhIpoDi2hfLFd3BtUtFtMDL/nK4Qcvn7fP64Gie3g3VDpXn2B8lHxj1e+r8aBVWZZRFCiWJzs7yfZ2WhRJUdStQ/lQiP/Q4jZMAAAcEaI5sAijZO6c0dxY6TRvodquSfu2dKbhQ5mexbeBb9/0r/B9cl3XM6O5EKJeWVFV86LTMRP57m6ys5NWVSL/1XU5HsejkbODxUjkQyG+QSgHAJw0ojkwt+9///tZlgVyuVxj1MsXbhcxXpqZm+1Q3iaRh8N6y6+eybdvKpqrOrrze6MoqlZW6qoqo2i/Xj4aJTs76fZ2MholdZ3UdVVVciEZjeK9vXq6udwO5V8ikQMAlgbRHJibr2QuhNBDuT1Xt7RATbp9JnY2dvtq585PNsJ6oNTt07583mhkOpfTs/h2cr+zZWUljaJkZycpy6Suk6qqZBavqqSqyrpOqyoeDpO9vWg8VsXykVUm/zKhHACwZIjmwNx8LebOevlizSH2et9mvgKz8JeonR/lLJ+Hc3nLRnPfbqsCuQrl6lH4o7l8Y1nX6SSLJ3Ut4/h+sbwsy+Ew3ttLhsPKFcpHhHIAwLIimgPzOX/+/Ec/+tF4mp3LF6h8z3yLsxodyNkzQ3l48KjQCuctj2JmvVz/fGfJ3OhsMb5UbSzquqyqVGZxvXBeFLJeHg+H0Xisd7DsJslumn5jOJy5ewAAnBSiOTCfM2fOGJVy4bnZp2+sZPjzw8XyhRvN27Se2+sDVfaWGuven2JWydxO56pYrm+T1HWlF86rKhmPk0m9XIzHe73ebpruJokM5Y/90z8tfBQAABwPojkwh0ceeeTOO++0+1jkq/pCy4aWNsX1Q280n5nIxXQoDxTCfWVyfb2+gR7K7bStF85VZ0sURSqs6y+VeuG8qpLxWNbL66oa9nrDTkcm8t0kefZ//s82Zw8AgBNHNAfmcOutt4ZzudHKslhAb5nOw80t7cvn4YJ6ow3ZDO9huJXFrpertO0rnIcfhdZlHo9GyXBYNs1wZWXU6QzLci9JdpPkT/7bfwvsEgAAy4ZoDrR1//33f+QjH7FL485uFuHJ5b6M3qaPxci+vo9aIJS3KZwv1tYia97CCuViMmGi81EuVFVVTzO2lPXycjgcx/FwbW3U6w3LclQUe1H0yn/6TwvsLQAAJ4toDrS1ubmZJIlRLFfCmXuBxpUFOlsWDuWBwvnMzhajXq6e6g3igZK5s3Be17Wdy21RWY7SdLi5OSqKcVGMx+PxeFyW5TvvvBM+UQAALCeiOdCWcXchPaPr5XPnevkJ84bvllncuX3LmD6zcO4L6IEOFiOdizlL5lVVtcnldV0XUVQIUdR1WVVlWZZlWdc1uRwAcP0imgOtPP7442tra3rV3O4yN97iy+Vteleca8LN5cq8tfM2hXPflvbOOEvmdu3cmcurCWcQ19fLT6gmibwsy6qqGu2ORQAAXI+I5kAr6g6gRlHcl8slXy5foL8l8C2Ss+wtZk3SEi6cO9vN9c3C1fRANLdbWVQoVxHcl9Hlh6hELjeTH0vJHABwXSOaA62obhb51Fk1twvq+gbCyuUtw7e90tlJ4tssUD4PlMN9ZXX7Lc6k7iyZ6/RovkAuVyV22cQiv7csS/u0AABwHSGaA63IqrmdvANVcGcQt7dvGcfbvGpE9paN5jML584s7iuZC1exXLWaGLlcxfG5crkQQoZy2cQi97Msy/BJAwBg+RHNgVZmjgF1CpfJw08DK3V6HA/U1wMV8ZaFc30h3MciPOm8mQwAdRbLjXRu0D+haRpZLFffJZM60RwAcL0jmgOt+KrmM4XbzedtKA98vhII64GGFl/h3A7ogTq60OZg0b/UKJ/bcdyXy+Ua/WP1z7cXAAC4rsUnvQPA9UGvmss1dgXdWVNXG+sLzrYWO/S3+Yo27/J9i1rW1/u2sXfbuY2zUq7Wq0YUNYhTX6g0xrwr6qOM/ZQLcbz/P2W/8zu/0/qSAgCwdKiaA63I6Vnksp2GfZxZ1hdwjeW52G8M1871JB25quP2sr4QeXpa9M4Tm4zaberl+qQr6hDsEyVXxhPNorcsBQBgSVA1B1rxjQGdmQXb5PKWxe+Zwm937rZa1jezl30Hoq/xJXIVwVU53LegP5V9LCp8q0d7r4yXfvd3f3fWxQQAYElRNQdasXOhsWyHY50dZ+2VgbcHPjNQHQ+82r5w7iuWN9Y0575cro/41NWuG3+qSVfk3yj0k6O+0XnmJZrOAQDXNarmwGxf+9rXAjMn6uywKDwRPJzLnbnT+TMg/NvA96r9CcL1k8O324E99xXLVRbXi+VGvVzP5ZFWLA/MjaNe1bf5/Oc/P+uSAgCwjIjmwGzqPqBqjR4Kw+9tn8sDCbu99kldeAK6b299TyV90KdeLHfWy+1Qrs+QqHrHjcBt77mTfAvpHABwPaKhBZgtTdMkSYQn+M6M1C1zeZs9mbmZ0dHh3L6x5kN0rgy3suhPA5XysEa7/ZCey8O/T9QZU0M/5bvqulYXoq7rL37xi3Ecv/LKK21OLAAAy4BoDsyWpqler9XLusaWzuyuXhJWVg7UoRdjfIKz99qXxdVb2sRx9dRuKw/Uy/UWc2cut/9A4dx/vUau0rlxgGVZpml69913x3GcZZlRgH/ppZcOdKIBADgCRHNgNhnNhatA3iZEimCl/CC5fGYQ933mzKGfLdO5ytaBFO5sOjdyeV3XMpRL6isCB66nc5XRjbMqp3mRG6RpqtJ5HMePPvqoujpN01RVNR6Pr1y58vrrr897FQAAOCxEc2A2OQY0nqZe9ZXJ9Q3sp86VPi1Te5uSub6ls1guWqdzlaqdfGFd0XO5fmIDZ1LtvCqTy13S1+g/M9SuylezLIum+9fFpOqfJEmWZf1+/6GHHiqKYjweF0Xx8ssvtzntAAAcFqI5MNva2lo0TUyPm1QiF/WS8FTKowMUzvU3tmk0l8LFcmGlc2E1uszVWW4Hd7u/PNAmZOy5fm5lsdxI2/pRVFWlb693tggtwasxrEmSdLvdqqqKovjmN78pYzoN6wCA40E0B2ZbX18PlMzbfMLh5nLfltH8VXMxXUH3BXFhZXdfsdwometZXJXY9Vwu47XsZtFvuRo+fNViHmkNLUI7pUZzix7lZe1cnSIVyvUFuVmv1yvLcjwe33PPPePxeDQavfrqqzN3DwCAhXGHDmCGBx544FOf+lSqUUMV7R4MZ9U8kMjDuXzhInob6v/2jQXnU6O6PLNMbk9Yrq9XuVxMJqZUj/ohG//rpPZBJX61IPtP5MfKE65HcyFEnud5nmdZJhfSNLVDuf5UTCf1siyLopAV9NFoRKMLAOCIUDUHZjBK5nqYNqLzvLlcf6Ox0NJc2zvbXWaWyY23B5rL9Xp5YAM9BNutLDOPqLGay+WaNE3l56ujU6e61iZV1N9rd7P4FuTPhiRJ0jTN8/wb3/iGrKb/6Ec/an/+AQCYiVsOATPYjeZ6fJwrHIcr5TM/KrAbLb/dfq/zN4MK68YnNC36y8PBXaVzIYQqlseu+wpFnvsN2dur3Cyjs5719WK876Pku+QfQ+SysSBlWdbtdjudTqfTkQu9Xu/LX/7yXJcAAIAwqubADN1u11kyVxvMDMp26rUXFo779he1YRfLhX++Qr2TxBe+W4ZyVTVXTUHh3xv6Lun7qfeaR1EkP01+vr6ZOrf259tN7eHCudpt2dyifg987WtfGw6HP/7xj1ueeQAAAqiaAyGPPfaYUXNVLzlzpC9r2lsaC77P9JkZatu8XXjK5M4FPYUb7eNlWc6Vy32h3Enf2G4oiqyquRoMoBfOfZ9slNgNRuFcrpFVc72CPhgM7r777vYnHwAAH6rmQMj6+rredCGs9NwmEEeeArkvoPvevhjn250jLO31aqXdr6KP9bTDt2Kn80BWnvkDQy+Hq3htjN0Urv5y/V3qtPhmg7EHgxpUjpcVdLn85S9/+S//8i+DlwIAgBmI5kDIyspKPD1nthRZ5fOZWXNmLo9c9fX2DpjgDc56uZ7IWxbLjbcbv3BaRvNouq3FyOXyY5vJ3Unlo/0VovXPKn29M5oLIVQ0T5JE9bd89atf3d3dfe211w7lEgAAbkI0tABe9913n0xgeqBUr84VhQ83l7dMtD52mdm5IKbr5Xr7ip3LnQVynRBirj4Wg/1e9aeM2EXvaTGmf9EXnO/V3xJod5EDQ6Ver9ftdldXV1dXV7/4xS+2vxYAAOiomgNespslUGptmYmNbebK5XNlbt+3G7HbF8oNKm3rU5LLUG43sQSGgTbTc42LWSVz3yFHWpuKLJPbPSf60UWu8rz+aZG/p0V9guqQ0Rf05SzL1PZN0wwGg16v9+CDD/7jP/5jVVXvvPNOq4sEAIAQgmgOBOjRXA92zpAXjptinhla7KczBbYPxPFA4VzVy1UW1x/12B2ul8vObD1Dh89Y+HCMXK5aWYxorod459epD4wnM6OHz60R0PXlOI5VOtdfuuOOO+q6vueeez744IO6rouiIKYDAGYimgNeaq4PtSbylM9napnL23xm++9tH8ftlXaZfOEmlsZ1M6NwNPcdZjiXq1BulMyF59eUvayfOn2fI6tYrqf5KIr024tWVdVoEzveeuutdV3v7e394R/+oRw2+tOf/rTlFQQA3Gzc0xgDePTRRz/60Y+urKzkeW60HUfTPcp6spQ53hg52iaXBwL3XL8BpMXiuJi+qZAdzQO5XJbS9QlbnF+kvs7X3h0+ahV/a2sqGPslu2SuviXVGD0tvn3Wq/L6uVKPVVUVRVEURVmW+skxTpQ8n3KzoijefvvteS8uAOAGRtUccJPdLEmSyKfhOqsdxPWXxEK5fN6q/EHiuJjuLK+tmVjs5vJA7dzY+UibNF09zqyah8+AXS9XxCQ961ck8BtALetFcd+jvo18ryze13Wt/lMRQtTa1I3GwSZJ0ul01K+Iu+++W8b0N998s/3lBgDcqIjmgFuv19PnZpEiV1NE+wxtx3H7veFP8726cByXK2vtdp7OaO7L4kYuV7VqtbfqK/T9bxnNjePVC+G+XN5MelrU2416uT7jigrl+scGTr7zoPTrKOvxsoJuR3P994Da2yzL5MI3v/nNpmn29va2t7ffeuutmbsBALghEc0BN6NkrtYbCdKZJo2sGX4MfFSblxaO43LB6EgxorlM5yp/q1pvm1yu9tyoNOuHP1c0F9Mt4MKf0fX3+jpnjJakNqHcOBz97wPqu4RWfdejeWxNBaPvsDq3WZatrq7ee++98ul4PP7www8pqAPAzYNec8DhqaeeOn36tGo093WZx9Y95H1xM5DLF0vk4mAN5WIy1tOZy/WquZ7LfT0tVVX5vkVfENOxVWi5OdLmKQ8fsn1c6lFPusLTx+K8mm3OnvO7aq3XXH/UW4DsXwtKPd0xr//4cX5+Xdc7Ozvc0ggAbmBUzQGH1dVVWTW3a+TO7OgLlHNVzWd+mhIOwW1SZiCR6wvOXK5So3oaa9OwOA/HyKb6L5aZhXP9qCOtH8Z+VN+lcn8URfIi+n5chb9xJt81lX9vMX6YOU+LL477on+WZd/4xjfU+S+KYmdnRwjBcFIAuDEQzQEHdRNQ+dQZ0I2UabDf4ny03zVz3xaL42qhTSJ3lsadVfPAPhuJ3KiX239PCAdZdQj6q4GMHs+aVMco0kfT42jDBxW5uln0R/lfThRFaZrqJ984Fv3HhtCmfJlZO9eTeq/Xq+v6K1/5il6hb6ZVVfXGG2/4zioAYHkQzQEHNQDUTuT6ZnaAs0u/C0dwJ2cJ3PeS8VTvP3EGcZ1RNXdGc/uc6BFZWOlceKK5zndynCVz41X16EzkznS+2FUQ2twsxmmPJhOri8k0Ms5jMX60RNpoUf3TAgHdTvDq6Wg0Mr43iqIvfelL6mPlKALCOgAsIXrNAdOzzz67sbExGAw6nY4v2OntEFI8q9fcrq3awpFdT2zGGhHM6M10W7kRsn253GC8y87WgZ0Rnuq4sTKclY3DNx71p84CuX0R7c+feT7t7zWysvHU3n/1RYrvkvlWBkK5/XRnZyfwH5Vvl5qmoaMdAE4EVXPApIZ+RsGSeZuX1AYH36tAYhOubKc2DidsZy6fGc31urj6Rrt8rq8MJHJjOXwS7Np5Y/Wf2L+gAq0sumjWVC32dyVJok6IXFBPjcuhXxR1aSJXQ446dcYBGgE9SRI7Uhtf0el09Mi+vb0trL9UOD3wwAP6Ramtu0rJxx//+MfhSwYAmAvRHDDJbhZjJJ+kZxe1xv4EezN94wWSuhG5jJXCn9FnFr8DudzXd64fixHQZfA1wqgviNsrw2dA/xbhSueNNl36zHRuf4Uzl9tZ3CY/zcjl9aStRf8oY02sDZ+1H+1crvYkkMXtNXrXzcbGhn7J2jyqb9Q/VqXze+65R94G9Yc//GH4LAEA2iCaAyY1N4taY4dstd5e03LLeRnBS/jjuFrpDN+BaF5NGCv1NwpPKBfTAV1oRV9fIjcW2pyBmelc+CcyN9K5ncLnuhb2Dtvlc/0rmiA7l+snUH2CfR586dwX2cWcodz+j0oyCvZ1Xd9///1lWQ6HQzI6ABwEvebAlOeee25lZWUwGPR6Pbs72ch5eo028hPWIEgf56t23nI+Cqu0uXAutxtaZIe6cSBtlu1j920w83+LjMRpLMhHdYHknz586dz3db5PnnnC9ZX6zxhfbg5fU+PznQv2hzu/SK1sn8jVb4Pwwer/mRlfOhwO9/b2Xn755fAFBQDYqJoDU/RuFjGrNcVeDmi5mUHPWKJdZGy0wYgto7mexX3LIpjLjTWxNe+kM6m3PyeNp2RubOArmevpfOavo8ZK7Y2rTO5cKabbVMSsXK5ys/6lgSPVr7v+k8YX0MV07BazcrmYlcjVSif531i/3+/1eg8++OBoNBoOh6PR6Cc/+UngnAMAFKI5MEXNaG6nLmdM921mrFlsZ5x5S8yq4AZSuC+a61VzZ0OL/WcB4cnlKgTbad65oHZ+5lnypfNGKwnbWdy+5dBi16KlZtLDY6fketKm7xP5O8v1Dw+8qv9Hoj5TeNJ54BCca5xhvXZNCyMfkyRJ07Tf75dl+fWvf70oCvlSURTqvy7ulAQABqI5MEVlOOGKngY7guvpx5na2+9JoA4aqGgGUrgvl1fTfPVyI53b50dPwM7TMm8utyNmOJ2Hi+X2jtkirXodWeXz/5+9c/u15LgKd/W+n+tcbEc2SfiR5AUQSiRQFEIEIog/AAmJEEjIQ+LEia+x49vExjP2eDy2k4DtXCABIUVChL8A8YR4AnFThIR4ASXKA8jEY8/MmXPdl/o9VPby6nWr6t772HPOWd/DVu3q6uqq6j4zX69dXV1y/2CQoukahpc3kvXIVsvJYp8LksPHJKI5LTNpKclOp9Pv92OMBwcH+/v7w+EQev3Zz36W3Ar+5V/+ZXnLHcdxjh8+19xx3uTZZ59dX19fX19fXV01VA80lFgpV1Uso6FAmLB7aVLOdTwwLy9X8ymD74V/SdC8nAwRHK7Ey0lChHefJFIb8BRzmJuEz1r2WHzktdE2MkmDs2jj0CJzifA6tRx8+WVNfTabHRwcQGZgo5QuS1+W0XGck4lHzR3nTcpD5jhHLLAIorKEuiwG6bG8rIuTnKyXz2YzLLuil2u3LjN9ejruacVCwsawVErsPOgLs+BWtTgXVdvYeVVfaCULv20QM7X00tWcd1PsOL4Iq6rCK7eQSw6reSo2mz9eLF7h99xzTyrzrW99a7ldcxzHuZlxNXecN8FqTtDkslz4CksaIo43hbqWFYbJcU5WyqfTKVnnhHi2JsFYE3nIHPe00Mux42oJaCE3cu2canAdz1Lo68YRcVV2OlvAaGQouA55MW3HWJ9FQz5B07maE0fHBPYncP/994cQZrPZK6+8YrfccRznGOBq7jhvQuK+YtTc8PKSELuNJuKal0c2kcBWc8jUjBznaIFnTcqr+awe6EWFljYPrby8UJE7bJYRToT5PO/CswAYjq41u2JrrYg1kFC6Vm0jTRdLao0njdEaIOZozdA+YfANRweJF+08if79998/nU4nk8mf/Mmf2B10HMc5uriaO86bFEbNIYcUIIXbtUGMIIoBxVTecHFNzcXlEYmpi/4d2LwRUgx6kdZFSYcr9/IW9hxML0+Vp8YUxsLFYo3i6EYNoo7DCPDRaKTphKaCThojtkHbZKs59LdCM16Io3NB55c9XGZ33333ZDKZTCZ//ud/bvfRcRznyOGPgTrOT7h06dLKykp6BpQ8QYgdlMufGGXHalhu6lkp58Zju7ho52Dk+B1DWM3jfOW7LkLUcZImzYMgqKiYWb/kdyNiIh0dWkia2u12+/1+B71miNzbaGdBOx2kbWIXRDGNEtoIlH/N/htuF2i3VWyP+GlsggKGoJM4Or5WJ5NJ+vQHRh3HOU541NxxfgKRbx4UhxycwPKtzXAobIAogtrXMHffEhEXvZwLOkDWOen1ekakHG5OeI86bBpJLH53T9Y4YXjFeHmqoTNf1xxH7tMwaoFw3phKX1FR21QeoYeekgi0HT7XoumkI/goWmHcBq2FRuX4aws1Twl4KhRLORf0lMDX3mQy6XQ6n/nMZ/7sz/5MbKfjOM6Rw9XccX5CirB2zOcFxUA41pfyADmhqZcbLq4JOl+zHNQcf6ZB6Pf7/X6/1+slLwfx1dTccDvbgLkKF0o51E+8HGpIXg63Gfi4oiOWNJs0vryRINz8bGa1m1s7uT0QeyHm24UL0U5ZVs2NRLqPwoPDTX02n46FL7/09XOf+5zPb3Ec53jgau44PwG7Jt/KI+VBMXX+NQsYTKg7uvG1UZi8XM0Hg0G/3x8MBjChpVOfuiPOYxF7ZETHbS+v9JVYOJ36457YZclvINhKsTjaFp6NhRfG1I36oeOhrsh4lIyD4npKShqFCxHPrPjJE2I+Ph04PWOTW1LUfDqdkvvDFD6/8847v/Od77TrlOM4zk2Cq7nj/AQsmhUjFEi5IeiiqsImoibZr+U6bqg5+drtdldWVvr9foo0cy/X1Nw2PEPHDfXUILKOm4fVNsYIE+Wxu4OI48/ArNE+9LIQLdxuRrYNjUS8fPCz95maiPNEIzWHODq5C8XxchI+v+uuu8bjsYfPHcc5uvhjoI4TQgiXLl0ajUbr6+uj0WgwGHRMQPW4wWsqHxS/0aRE+zqrr2/YwstnLFjemU9fwVLOvbyS5rGEunKJmhXK1I3vnk1op6M/B8+SJ+4rfmqZYpqcRH5OxToNQ7VHxtgqXlRNNy0FcSiyCfuvIEHsPMbIH2KGx0Mnk8m3v/3tQ+2p4zjOIeFRc8cJAT0Dmi3GE1jHeUkgKoFzorAlX1tHyomaxxiHwyFeiUXz8k59urk2j0XsaSwInAc0oyObEEcYyoj3UfhGggfOeRC9kcIuN6Cu9bdRDUGx8KXH/u1D87OcIHcdGJ6TqOa/k9ix80S32/385z/vrxF1HOco4mruOCHU5yVDpqjdWlBczLHh2i1ugq9aFLyRmkMiWTi4OE7wYDkPnAclRIrlDJQ3LGNCi1iMWGBVVXjBR2LqUN74zBpt1m75LYTR8kYXTGgi7lqBRmPeomH8EOTuK0gXCbdwjXROs3be6XTuueeevb09X7zFcZyjhau544SAFvoIykqIop2LhQvDyaKU49gh+drOzkU173Q6g8FADJbbXl4pvy0QKcd9LPRy3GUtIWbiY3XmS7KAlxMCulsQP8UzddgQRxcPLXp2iZ0HxcLtq7Sg1UJtJUauVU503LZzLOiinXe73fRgaKfTueuuu/ztoY7jHCFczR0nhHnUPJjKgv0jtF2VJSoTJwwpDyHM6u9H5Jpu6zhOJ/8Wg+VEZzvSXPOUIIos2nahoOORMRKiqYe69omhUww0jN8Y2D0qOaeLbzUcXaska+eFZQpbq9Uvfi0xcl5VuZ1DGbBzuFBTutvtJmW/++67v/GNbzTqlOM4ztuFq7njhEuXLg2Hw445fzoBdk4SjQAdhK/EUPlXUcTj/OWIhppHtMxijBEHldNTkk2Aw+uxAAAgAElEQVS9HDdMlO9Q91rby3lntQTPJCLbrcPbH3LT1jUzrszZLC1clsMPnW1Vo8oLbzCCeWvK4VJORpUbeVbTm9o5lCSk6z+lu93ufffdt7297Su3OI5z8+Nq7jhvrmge6vKNrQ6ArzjBM22iFKwVv8b6yxFFR9dmthB9ScLamwNSnuBywzUd2iaKeKhLuZEQO4tHRkyQNM7BT6+KaOeFaLd2prTdRettas+xOHAemL4bbcs2fpE282rhDydIp6kpcJGEuqwbhPqfbfLy2WwGn71e73Of+9yf/umfLtg2x3GcQ8XV3HFqUfBQoDKkPGSKaQ54OXwl9sm/isJdouNAmoCLZ2NjRxdF3Lg/wd2MZeHzgLzcGBYtQfaCMazq81jEB0BJm7HwQYJ0sER8DVqYrmjefDD5V60qu0zT1pIyopeX11YIFnQx31DzCgXOQdPX19d95RbHcW5yXM0dJ9iB1SApDrZzIyLLM7GXY+3AhhGQkWP5KLRw0ctBW0nUvDNfoVzU8Wq+5iBpf5BmbGseaXg5ES/DzsUyqYVdBtyHZJ8fIH0RpRZrH+k+rypKNyqN0AaQbxJ3NApkj2UUw5eBXX5ZXg61iZc0L4mfJcCzz8HLU2J1dfWee+75+te/vsRGOo7jLBFXc8cJWEANz4ZNreWDeDlkEj3F4s4tvDxSngB57dQXMOlIL+sRp2hDr0WNDkjKiVAaXo57TdLlCezlPQT2ck4lzTiv9Nh509OtKXLW1LmUB8XRSw7HC3BKpDyEUO7lZN9GQ6fd7QRd0MWrfTabwV4J8PI0s6Wqqvvuu+/q1avf/e53y5vnOI7z1uBq7px0nnvuufQMaJAmmpPC2M7FAgbcy7mewldDx3FmiangKDIxVzIbm0N6bQAKHpipR7YojWhgJS5OEuDi6ZFW0cuNuwuxCyJZ/TX2anEjZzt6YZPatZnUwG/PCncMTUZepGIzjgrtPLCZLSRwnq72s2fP3nnnnd/5zncatcpxHOewcTV3TjogH/gTb+XlWxxF9HLYhK2F6zi3c5yPd4l1X4d5LDhebug4zuGdJY3UBjMo4fOskYdiKU9AsBx7ea/XM+LluJ1Y+3j7eTG7QtxZkm4q6DE3g8WucHEjx81oV0mjBhdWSE6KQTUPnONrGwfO8TKLvuq54zg3G67mzkkHLz8i2oNo5y2ip+InN06O9vRnVlCwlOPp19jFNU1v1DU+XDH33ntoJx8HIwEjwKfOi17OI75cynlAl+s1bkkaH94jUoantWqz9ZBxsKV8QSMP9W4uq6pGe4mnhtzg2YKeCuCZLXjeeUrApi984Qvf/OY3F+yp4zjOsnA1d0461XyiObbzZXkJ1lPxM7A5Hpp8G0YemOmmTtnrCWIj5/HyFp3FX215FTcZUg57pe6ndmpLzbRoPFFArWG2W0cl2q0JugGvSmxYYYFycFMXrE2U8hamXrGfNUoEnXg5DqInO4evKX3vvfe+8sori/TXcRxnWWR+9nWcY48YWDXKNMIw8iBNZTF0nExlCUjHyS4BvX8n6+UkZF7eqcB03MgM7A5EHARNysltScVWZcFLs8OO2bRRgH8Vc/AmInzGUfjuItqxso3hZQpZZF+jqmxfAPFeUcvE+SL4T4Av45MYzLnvvvsW7LLjOM5S8Ki5c9Lp6OvrkUwsGYXhz1Awv5y7NQ+Nly+VWM3j5YaR8xnnndzk7JI+khyCuFdWynHfU4IvNZPUvJ1NVvp6iLjCKE0vSdcDDLtYEn8l6UpaEyYLbq1dwCjzVsKHjmdW0m8sRiZcOfCVb62kwDl85Z9VVd1///0vvfTSUnrtOI7TGldz50Rz+fLl4XCY0vi/ao6Yn1WrWBw15y6uPQOK1YSkA1qjnQQjRSkHmo5bkHRcy+RlRFnnIwM6Dp/d+duRePiT1FaxWDXZKhp5xZ77FL+KdZK+aGYvqmqWciO/GXQ8USLlhXBNx1Ju+Hq6WrCX4xr45wMPPLC7u+tvDHUc523E1dw50XTYqyJDPTouWh3J0SKghpeLUm5MMQc9DUziiYVoMXJNyrOShK2oUMfFFmpGHgqkPCWgg1kvL+lOiZ1Hc7EUbu3i1igt1WIbKh/zm8fIxTMoUi7l/G9HK5AtiYeu2+2KUh7Q37j4effdd3/jG98wjuI4jnN4uJo7JxoeKS9xcYOIHv0MupdDQkQUdLFkNZ+LAnUa81i4lGctp7zjoVjaRFnnnSXzWAL6QeCwZ7OQ2HlWyo18fD1kBb1iM2rEISVlxK6VC3RT2g21odRZ2xbLk7smLa39IpQW+QnsXwD4o/A3hjqO83bhau44IbAn/8IywpCGl4OSBukxRyzo4jwWbORJMkrUvMsWTzSitmJftD6SHButHq7j8BlCgKksJGpue7l4TrNGDmkxcI6rhdPBi3FZXFzQtVsC0jyjzFtPts3lmyL7XUL7yYKUEQUdNww+ccKXbXEc523B1dw5uVy8eBEmmidsVTUUjWN7OXwtXCERDicaOZSJ82cTwWKJlGe9vFDpRCMPBV7OSebNBwHSMcYOWkxGXJilpM0aWTsPkl8St67YjKYSEY/I7OGgWjsN+8zua7Dg7tnKG/XILh/YUIvlxUxu56nj8ABDqN8dpc/77rvv5ZdfNtrjOI6zdHzxROfkAnOU8X/kWlrLIbbNM0Uv10wUZ0I6zKUcG2oWPsUcRwQX8XLSzRZwLydjEtB9S1VfKY94OVeuSkfrafYCsGvgYkfKG2meGean2+gIKWxszSLuYh+6/BD2viVHqZSoNvlasWub10P+QEgOueUbDAb9fr/f7997773lg+k4jrM4rubOCeXRRx8NTWZulLiIaOTaJtvFSQ2aXmiewbe28Cp7QMTelUAi4tzIyTh06stXYy+HWS4tulYV27n2VTxc1VDQeeW4DD93vHD51nIKB7B15doR7V34uJXUjMnezaZLKyX6/f5gMBgOh27njuO8lfiEFueE0mFrs1SSkYiZ5YhGHpjF4sJZUpM6nU6UprXYUt4pePqzpEct9hK9PEhCjzOxUVXSA6BkWBo1vkKzSoI0saTka1U2B0Y7Sqw/N0z6AiNgDztpWCGxfu9XvmNryJjgfJIZ2ZSVKE1lidJUIq3OBP7Dj/M5LR30LDW5T0hpn3fuOM5bhqu5c0Kp6utmANiVoSQpkPUYw8gDUqISzSVSSEhejnW2Yi/45Gjek22M3VkRHiPnS7OLlUAHcdQch8xbzDLH5Q1XJuUNQdfOCzFy8Ss2e60q3GCxjCa7oeDq0kbvkDRdu8ay115kk/gNO8eFs3ZOpJyc+ul0Cunga7Y4jvNW4RNanBMKDp7h/8sNoeHFxMIlXl4i5XYbeD5MazGkfJEDGZ3lmeVeTsCZfK4O9vKk5jaFHSRpsiPJwV95gu9YSfMx+L52m7V+Gb3ODk7JoLXbq6QLsJeRSRI8P7tVO649K4z8ONPv94fD4XA4vOeee7LddBzHWRBXc+eEwmWCqKFdOOjPd2Y/W7cwW2ApXl5YGPcFu7Wh49rq7FzTg3SzQby8k3uJaXa0K93I+SAYBUg+TnB9DEw3eau0U1CZt168hsIrobykQfagYuVGZpCEu/BrSReq+gWmTT2HH2rczh3HeWtwNXdOKFXufS6tA9tZL+fqr7WBt1lMw1dtinlTzWoElvJyLw/sXoikU5uxNvXqtO5jdhjxV1ItP0r2oKJ0BqSSWiVap6q6oPPyJVaqFRNH9TDQmsHLhOZ2Xt4RMXCON8EaRxA7v/vuu+0z7jiOswiu5o4TgmSHodVzciVe3q6F2QbwECD3nnZobcaqjRUcXhVEEoWEuX3iHmEpT4FMu5327U2l27Y4YmIZXo+WIDWQBPFLsc1Gk0TjJDuWIx536fDKSQ4f5JKvRqYN1nGcIOKeFlV0O3cc51BxNXdOKES7uY6Lbof1UatTNHKtgHGsoOt4pSgU8fLOwuuxEEhgW/RyI2GvlojT3MvTItPJy3HI3GgnH7RKcWX+tSRHS4uHJjVUkp0HxcJJA3izs/klddrljWJNCcykedeqYh0nYyiWKYFMN6/qXg6xc7dzx3EOG1dz5+SCLZxLJ86399W+GplatYmKWRTPIZuISVRI08UGN0UcokZeToaU1wObyIyCtLw0kASd98XoF3Y+cfSMkkQZ7dpsuHdmW2I0W9zEjdPeWlKgdX81SLUlX8NbYueVFD6vmKPDBfmFL3xhicPiOI6TcDV3TjRxvvIa1kfYRBJ8X7KpkZcXKjK3IjGHG3mCtIFoMekF6X4J5V4uWjg5eqzPZoHnPvuIwWDAR8BwdFErK1O1RR8lOWI6mxC/8sLZxpBNnJIyxl5Nd2yB2Dv8VUxoX7OZJRhRc3Fmi9u54ziHga9r7pxQRA0V040qzMp6oZ1X+mLbpFiYuyx3C62RWuU4TUaDj08LLw/KTQKuFocnk5STkHnHXJgFD5Q4AtgCxcI8M5tTfpHg8lV9TW7IDMqFoW0yWk4w9jVaaxdoR6yvPh5YLyp99X3xa0lmScPwH9RsNquU351ijL1er9F5dxzHKcSj5s4JJU19DvUFRvD/teR/YuyXGtxrg+RD9lYbbhiV9MgaL0a6o6Vj8VObmoVrT3/ykeRAL/BDnzhkLno5H0MIl9qjJxbjmTj+SurhmeImYy++o3hEvklslUjJvtruRrVLgdSvfSUJ8WtJZhbxFhc28Zkt/X7//vvv56fJcRynNa7mzgnl0qVLxB25SgYWPA66apOvpLD9VaQqiGhyjejM325oVK7pcqN1VMguoON2VbhtvA3Yy2H6CsTLKxTC1PqljRv4mbapyuk4r0RL8/q1zKou67yk2AyxAKakjLhXo3yjVYVN5R3km7SE+JUcRSwpQiy8Yksoci9PiXSVNhoHx3EcG1dz5+Qym82m0ym3zLRVlFcumkBkRh4lERczMYbx8E0kUk7MVWwh/gptsNdR4YgibsxmsYcxAZFIHjJPLxjSvLzKKXKhRIq6yTMrRaMLD6HVY1crNsMuzCkpYO9YeCC7cr4jzuE18x1DTsR5SZIwGkAi5TwHvBzs/Etf+pI2RI7jOE1xNXdOLvv7+0RDxai5WAC24gT/LN+UpWJmho28ykWUCdGU8tmcBb2cDyCMHk/whz7x/PKSDlYLeDkujx1RzORbxa9ieZ4mxcQGkGYYlsnLiL0wdrHrXASxDVrDcJv5+JDRy2ZqRzTgk1vE8Hm6n/z0pz/Nz5fjOE4LXM2dk8vzzz+vzWkJc20V33BJFDPV1sjLudyHnNJhiDoYEeXIIuWQNqRc9GlxELSv9ixzMh89hAA6juPlg8EgLWFudNDGGMCSfXkxO6ekWnEXcUexAXgT8VexbRrGVnvHBSGVBybfPJ9khgIRFzO1aisWHeeTW+xpLZ1O57bbbis59Y7jOFlczZ0TDVdzWyU5qZ4oxb95JrFzcS+RillXJ7cYi006+nQ6FZ/a1PprR8pxPSRtUFVVCo0nL8cJUJ+q4W8CIee14pAW1lMpLm5XaGzlQskbQORVa14loW3SytubDgOtm+LWijWvJNNI8H0B4ug4n0xr6XQ6jz76qHEBOI7jFOKLJzonmqtXrw6Hw8DWJ+l0OqKI42JQJlUlarq9NRR4ecXW5sPS0Jk/9EkK4K+xvnIc6QVRkygt4ScKOvdybOT89kNMp/Whe4yUiW8/7FHig1ayiY+tsRcvaexe1VdI5OUrtnRjZAsp2i3XNgX9ehCHxR6rwvExahDzo7KaYawvqiimcU4sXkgRV4ITAV3t1XzNxBACJOCvg1+E+EoOZffYjuM4WRb9l9dxjjrPPvvscDjszF8IPxwOh8Nhmves/ZBdod+4ceAt5Ka18K1cf435M4mqYHK5pm5csoMSTdT2IgFyLuX8lwctnV54nqLjRM0hM83lhdd/EkQrKvRyXokNLkY6wvuotU2sxygfFck2umPT1M6XAq9f+wPhBcTrJ0h/TVH649K+kjRO8CucX+qYKeLg4OCFF144tIF0HOdE4FFz56QD//uG+fyW6XRaVVX6jAyIl4PXJkWGEKOoYoaFNKLEy4MUKcd9wcIB1WI7J4JOdhTnq+B8TYBw34fDYXrKM7k4tnN+C6T1URwfY+iM/NZnJCjhcDFw3mjHbJvtMkZrG+UvBX41Gl+N8rEgLk4ySSW4/qgE1OErz+R/evgfh263u6QBcxzn5OJRc8cJzz//fJo5WlXVaDQisijGyyv20BiZWxLr4Tr8ScpAOrJIOQ+cl0+85hMARDXHFiLaeUpoAXKezqp5p9NJ8XI+lQU/YAenQNMdMnq8y8ZoZCvMHo6f0+z51Q4kbhIbY0fNxXuARiL+1tg5Hjrta9DHVvxrsjMLEwQtcB7r96g4aj4ej/f397/yla8c3jA6jnPs8ai54wQIhIcQUrCc22qsx8s76D3eKREU+eCfrWn0QGREgUBNOyKK/QfFzvEoFXq5IVVpylBSc+7lVX2mkPGEKxlJ2ykLjdMIbxuHNnYXg+K8ZNPYufF1cRHnAexGlAx1SQQ9ssg3T4uFtRrsBG951APnkQXR4/w3t06n428gchxnQVzNHSdMJpNut5v+rwU1J+kQAng5/J/NBR3+n25h53wT8TPxoU9SntepGTlOiHcj+OjQeHESSyIoOg5f4dWeOGSeZpPzHyKAsnNYOiBvAZriG3YuFuONNyw829MWYfLWo5fdUTNysWRAfhwkVw4L2DmpnHRBrJZ8wiUKV+wXv/jFP/qjP2o4Zo7jOD/B1dxxwpNPPvn8889HaQIJlKmqCk8utwWdW3gLLyeUSCpRHN4dTc2D9DAo9/Iwt3Mi5VCJpuZVVWEpxyHzCs0Iqth8oXZjlViul2sybTemRMF5Mf6V7Gh8XUrm0uEiDlcdN2mSH+oXtq31RKNJGVx5UIyfNxt/clmPKHyeGI1Gyxo3x3FOIK7mjhMC8sik4FEirROiTWXB+aTmkqPbBZoGj8X222oekJTjVvHPgCa34Km3QVLzMJ9cjtU8rVxOguVkQosWMn9bvFxEbAk2NpzD0yWbyqW8kXY3zceUjH82GM8t3M4PTKAN/8ZfuZQHydRJmvQ3GzgPKGSeuP/++1966aXsQDmO43BczR0nhBAee+yxy5cvh/l/tAcHB4adi5Fykp+qJUaLKVTM0NAyiSLbRo4T5CialxM7xzWEupon0iuEko7jqSzcyKv6hJa3JprbjkI9XdzOxXTTr0amka/R+rzwnhp2HnICHZvE0cXdAxN9o79NA+fpbQmO4zgt8BVaHOdNLl++jO2BL7adPo1FWvBX7uVGWgPmghd2wa6HJ7BYh5yR82JkVRa8CV7tCS/77Pf7ac14Q8fT2GoLszT996qpRxr1l4wMuS0JZWff3sR7Ua7sYo6R30K7xRGz6yGXSlCuroDGE19jxuWqfRV3FwtEaVab+PfCl2qZzWaTyWQ6nU4mk8lkcu3ata9//etNx9NxHMej5o7zJvv7+6PRCP7rJbHzMP9fH2LnwZx6TkJxTbWSK4hBJS3BLgqH6BbT6ZSbDT60lomDkTgzvUuIqzm5q9EmtCwrZA4Nfgti8OI5WjB23i5Y3jRAXhJ0D60sXDtcbDiVRQyQa2n+leeTA5X0yA6cY3zGueM4i+Bq7jhv8tRTT124cCH9n5r+0x2Px5rs9nq9mb6K4oJLi7Tz+JiL+fFEWoyZTEoxPsPcS7BA400pWA46DjPL+/0+dpesnS8+JnzfpQs6GRmRdnYu1qN9NeLohbUZmdmtjZRdlPJQYOdB0uKQk3LSNkP6tY6QffGhbTv3OS2O47TDJ7Q4DuX8+fMrKysBxa2rqgK/hE+yGjeXTiLo+G+N/N0ZJg1tMBBd3DbylBiPx+PxeDKZYC/nCTgK7ym2806nw8PkCfidQVNz4uVczQ/jXyquj8ZRyF1K9gbGqNm+ErLtbO3ohZmFNzCLnBF+aYkJPubijlphvBfZ3SgQ9ftbvJVPaIkxpgkticlksr297asoOo7TFI+aOw7l/Pnz58+fX11dDWiiiPhgaAghPdEY0FQW+AwhwMyWRg0g6mbrmm0SmpqDlCeZIKZCEjhGHplFJfo63W4XWts6ZH4YxFahdPF0ZDe1iJ2LbTPkGw+ytoudL+6odSobbya18W6SKHhA3ccFQv1M8fL8QMY51aoyWs4r558pgSezeeDccZx2eNTccWTAzrHRQgyYfIpTqHloGSDyHVD0Dns2eUZTBAftSux8MpmMx+ODg4PJHM3LU3kIY+OQNqSrqup2u7aX49ZmvVy7kznsf6lsDYVh0T61OxaxHjtttzD7tUXgvCRHpMVJEXuNB1PL51epUTKgPygMzhfL2PFyUoyEzPGToInZbHb16tVXXnml6Sg5jnOS8ai548icP3/+qaeeWl9fT19TPGw8Hu/s7GxsbJD/ntPbuXHUHAfRw6G5TtS9nMfLp9PpwcEBjpdrIfM0+5zr+GAw6Ha7aQFEaICh5hD/Lo+avy1evsghyI5iFFbcasTO+V5GTtO0UXNJuB23szBwzneJxRPNI5tZjishCdwYu/HagJM4vYYYMq/qdDqdGKM/DOo4TlNczR1H5cKFC8nOq6oC5+73+zdu3FhbWyNv20lwL4cfuME7tf/1SX5kMcIgTRLQon1YzWFaOYmXk5B5miA7Ho+Hw2Hyb/z+zsFggIUGEjDFnFChFS2g8baatz9VbwfaeVyWnZfEvEX/tqV8wag5vwILdyGXsWbhQZmygqU8SF5OJN6GFOPnK1uJbefJy31Oi+M4LfAJLY6T4aGHHrrjjjti/ffrFIG+9dZbyYIk8GAoDwYDmoKLU1mI+hPSj+Zi4BxywMhJvByHzFP61KlTo9EoeXlKjEajJBkB6QtJiGoeFIk0guWaDLX7N6pEGZvWRm6W+KfYALt5PF2oxZqja2Wair62SzC7VnKyeN+1SyuYI68Vg5IELV+kZGYLn9ASY4SpLJDY2tr62te+lh0Wx3GchEfNHSfDV7/61RDCV77yFRwRDyEMBoMrV66cPn2a/K+fAsY8am4vCCi6mi062XUSJ5MJGHkKlhM1TwIxm83e8573JBFPr+oEgjJpASe4mpN2YmvUvBzqXIpJY6CpC9YcFQXXMlvHzsXCRk423SJMbo+VFjjXdiTjQE531KeyaAWM4DrkZ5thY58+XAaHzOP8men0d5H+DD1w7jhOIzxq7jilXLx4sdPpdLtdHC0LIWxsbMDrQhNp7ocWNccR4igF83AQLiWC5EMg1iRqnvLxDBYxXp4mlH/gAx/oScDjm9zwiKRWVQUdTzYPcOErmVwu3gw0onyvEl/H/SWfhq+XtES8H8u2rbWXt3D0FpSPBrnTE2/8SIHCkoH9TTVC/P3KLkweBoW/zRQ7f+ONN15++eUFB9ZxnBOCR80dp5QnnnjiwQcfXFtbS6+aT5+z2Wxvb29lZQUidkkO8IOhYsi8cLYAd44En8QCZkCMHE8uT7PJp9Pp3t7eBz/4QVHK8XKQpKmQjw0J1JzbPOksV3NjBFo7Ymxi862PVXiUFrFzozFGbDvr4raj28dthHFnhePloXiiuVggm8i2LVvMPh2kFzh2nsCxc38Y1HGcclzNHacBac7ol770paTmyc5jjGnp7qqqptMp/L8Odh7QAudYSfn/+pGFCcVmECMHxggSLMevQfn1X/91WHeFB8s1IxcTCViMxXDHwCaa20PdyLAXpJGgN21YIzvXytg55V5efggtv1H3yS8tOFOU71Cm6UH3cnswxVsFrVih5ceCh0FhRSPHcZwsPqHFcVpy7733gp1vbm6urKzARO1ut5s+yYOhImGu2ny5Q0jg4xIdh1/PYcFybOcpZA5e/hu/8RsdRLKH1NrUzlBm5CQBHQHEr+Ve3prF/0HTZBROhPa5SMP4VuM+IevfQXFxsc6mso5pOtq8PBlALdHiKz5rGvZkFf5naBcmE1ognWa2XLly5aWXXmo0XI7jnEw8au44LYE3iXzhC1/Y3d39qZ/6KSzcKXw+mUzC/I2hJGQOEAfinsHVnJC0mzzlCYIOav5bv/VbnToVenOQ0aSSHC0ui/MPVcrDkgLtsR5Bjzn55jbZgqr5bJbQ1sXtOgt3JMUK+87LV9JTnjxB4uJ8K/9amT9WGN3EbcMHzVZFQuawS4qd+8OgjuMU4lFzx1kazz333Gg0SpFyiJ2nBBiwHTiP0jOg+I80spA5d3GIl+/t7Y3H4+TlH//4x8kReRtaCDrZBFWJtREvL/S/Qpb+TxmcF+2TWPsh/VtaYs/Z+yJ7U0l+OeXjwIdOG1KxgJGJN2Wj3dmtYhktk8TOgf39/StXrnzzm99cYGgdxzkReNTccZbGzs4OhKJT1BxPPY8x2qu1BF1NcAHsAROJZOf7+/v7+/vJy3/v936vsAslOk5yRBXDri96P+y4XEFfIoZiiudluUfP3gXZ6fJNhQcth1/PRkm4BnCCh6tL4uL2Jn508fIjDRZrM7oJ8XL+N45fjus4jmPg/1I4ztJ45plntra20vRuvLLhdA6PpRFwbVGK/JHJ5baXpzT38qxZircNPAfyjTHRvBwfenGvtTWasMTKDwlDnQ3h1moo8XLxzC6OdgvKG8MTJfni1UU22YPJ9yUNzl7ApCrtr6aqKljCyHEcx8DV3HGWycWLF69evbqzswN2jkmZNkQE8Vf4DT3r5WlCy3g8/sQnPhEWiIZyrxJlC9ffTmQXEfRG4e2AZL1R5eQHDaN8I0rakCi5BbLTWiWHIeUioqZrdp7N55naJg2jVdnKtQ4a3VxdXc3W4DiO42ruOEtme3v72rVr169fx+8cse08ssmpXAQhai5KOXh5kvIUNf+DP/gD3rxCHbTdRZRyEehIiYy2EPSmXr7g4d4CCu25xMWzXi76qNYqQ2EXRLuc7PxyRzcOxwWadJN8ZkdA/KtJDIfDz3/+80bDHMdxgs81d5yl89JLL913333JsM+ePRtj7JVSrzsAACAASURBVHa7JFYK66CL/82LgXNjEguszZKkfHd39+Mf/3jat8Sho/Ji85DzvNYB8tbtaXqUBdtDQuaLHKWQclHOppdyrOyFsawRqKSJ49n8ypwLjgvgTTiHn31+OPEo2i7BnHHuc1ocx8niau44yye9lPvhhx+ezWZnzpxJi7QQQcd2TnYnwfL0aXh5Ym9v78aNGzdu3PjUpz5VEtUrhJcX9ahRnQH10XDibFOXaMzG/YAo6OIhmh63hYiHYi9v9LVdw3jJxU29UMpJvu3Q4skl15h4QfKaxT7yfLBz/LU65MVDHcc5HriaO85h8eKLL37pS1+azWanTp2CVRSxo4Odkx35PJZCKf/93/99oz2aBLeInmraJFbLY4qkpNE2bROvNpufRXO1bP0lOaHAdxe/a9I2FXr54j9WaPJauC+Rb6La9j1h1tHFpgbpMsNKzWvTqiV9x8Fy2HFzc7PFyDiOc6LwO3jHOUS+8pWvbG1tvfHGG3t7e3t7e2kKeHpAM1k1mWKOXx4EE8eBtO8+Ynd39/r166+//vrrr7/+e7/3e5oxNIqYGhhVldcJvxtkM/EmnqlVXtgMo3m4HjFk/lbSwqqbern2682hIh5Ou5x4fpWbWc4LVAwoSbqPc3gN2hF5y/kRfUKL4zhZPGruOIfL1772tRDCuXPn1tfXe71ev9+fTqcQPk+h9KCv7BFCEB/9PDg42N3dTfHyNLM8spm1ooTZrTWC6LjakiBiFjEorkXKcf7heTmp51AFvYUKa/69oJc3bcahUik/yGjXW5ULlvPLNSi/kOCh4OF5rWFiF0gl/H7AcRxHw98G6jhvEY899tjq6mqyczy5Bat5UBydLMOyt7e3u7u7u7t748aNT37yk+lNRukoWjTRCP4Rb+BpnEgQVSX/jDSKLLbIFNEi7i2q4rvboXR7NLQGlFiytstSvPzwNLHwv5XsLVY2wT+NTeLf14y91BPnzNDbQGfSa3r57rw2WHMp/f2+9tprr7zySuMxdRznxOBRc8d5i7h8+fKjjz46GAwmkwnYea/XS0+GYTUPdYHAUfNdxG//9m/D7+Ox/g5FoxmGn2X3xXvFBZ4EhX3bZYq1ZfNLqhJ3b1S/Rva47Qo0vf85EhiR8mzIXKyKfAb9KWTyJ2CE5AuvfLjRjfMFW06fPr3A2DiOc/xxNXect47nn38+Jf7wD/8w2fl0OjXUPCWSmicd39nZ+ehHPwqx9sDsgR9UDLXyr1myCtLIzoOiR3Zmi8rF/GzfuZdnTb0RJYOvlWmaL269ycW9UMqDbs+GxAel+/wvqNPppL/EbM12XwjtxsRxnBOCq7njvA08/fTTkL5w4QKs2RLqD0SmxI0bN65fv/6Rj3wEG7kIj50vOEukBE2eeNu0NpQ7ul1nOYtH0BuZ+uIDvtypLEcC7XKyr7eSODevU7seYoyGnRde+dAwV3PHcUpwNXect5mnnnoK0g888ABW8xs3bvzyL/9yWmOR74gt3HAOQ+CMTF6PsVVUE3sXUYaMzEaUaL12uLBYgFyUxQVzsmctK+L88mh6c/I2YkTQC8PkRug96PO48P1tNjYPVRldcDV3HKcEfwzUcW5GnnvuudFolJ4Z7Xa76UFPeGy00+lAIs2HwQ4RUIgOZ4rFyvctpJ3zaeUXD5kXtgSKlQTI8aHh9w2xVYX3QoVqns1selwtc0HK/1vJlsyeBfGrUYb/KsUhD3emVU2n0yneKj4byvcl9cCKqJcuXSocIsdxThoeNXecm5HJZAL/nZe8QVCM/ImZhX4W0dwY+9A8ZNvihl8T+qZV8S4X3ipkixle3oilhMxJwwpPvbZ7yVFuWvhvR/jSJV/xXvCVXzD8kq6qqtPpTKdT2FcL2ON9tfu0ozvajuO8BbiaO87NCLyNCEJuWNDx//HEJAxRK5HyFtIg6mm5sxoqozXJrtyWJLuD3L9byDfQ1MJxM3AUv1FarMQolt10JLC9nEh5qF8PJC2eozTjvNIn0oh3pOJdouM4jo2/DdRxbkYuXLiQAudJ0LVisf57fSNsKQeDydLi0JhsJa2PqN0zZGswBN0OmXMFxLR2X+2gdmOyLeSbbjZ3bNQee7IW3kR24btjcKb9AoGS86vdITuO4wAeNXecm5S0/HkSJj6tpcU8Bx7hs7+WHCWUPfjYohKtzhJds8PJoR40LW9bIy0uwTh61H8MObzYeThS81t4oFqLaqetWmGehjKwOw6cN42dO47jNMKj5o5zkwJzWjA8tFkYOhU/cRyafyWZBtoR2+0u0rQw2dGuVtzX3stuQPnEFaOSwhNd3tnyYoXjvPR9myKOsx0p5ztqadgdkwLnRuy8sNl33XVXYWHHcU4aruaOc5Ny/vz56XRKvBx/tqs2Ko4edKUuqZOUbNS8cok3ELtJDlHSALI7T2RpNJUl2zDtqzHa9tdsfknDjL0Oo7BRUpRvw5VJeSPNjRy8XLNz7aC8C5ubm1qPHMc54biaO87NS1qyzbDzrKtFJuJiJlSlZRaacVOZ08S6Bbwq0dcXN05NfBfphTaexuEKW2W3LTsajex5uV7eqLYSO+cS38LRiaCT8nbgHPeoPMTuOM5Jw+eaO87Ny2QySeuXg47PZrOqqvAnFG70n30se68hzi+pECfswtmcErRZIpCvNQYOZ2/NtpMXyDapEKMX2iajmN0G+xRnL4Cl3FktDlx+OAc33mhnpc87h3Saa45nnBuFjQO5lDuOY+NRc8e5eXnqqadS1DwqLzohi7eIMWz+SbbCLmK6BFxhyb68wVoBG6NaUqakBt4LXhvZl+S0nriSrZ/sa3TWaKHdgOxWXqBFp0qOZRew1bZwNpEY886m+fyW8iM2KuA4zknG1dxxbmrInJbIJrTgtc/xjlHxctHkYHf41BIiWYu19xI3tbB2W1JLdHAReS3xrZJeaEdclp1nh91uT+G50HZpp/KERWLPxr72b1Di5PLCOS1L6bXjOCcEn9DiODc10zmdTkec0KL9jF7oLjH31k9trgs5UGw1oaVEWUhtfJeSyR5838JpwVpTta/lw15Y2OiRtskopuWUby2k5EaudYGEeEHyuxRyasguYiWFf1NYx5ve+Hng3HEcDY+aO85NzYULF+zAOZnWwiOU2ifeBSfwjiKkhaLFEkMSaxDL8BEwDq0dTkyXVyu2UCzQqCN2G4xBNnpU2HGxj9nBKekC36vw7BuVND1udt8oXfYkfF7oyjxY3rQSl3LHcWxczR3nZufJJ5+cTCbT6TTORTzWvTxKC7YkRCnhQDE8PQYyxYQogjjfUDG7KkNV7TqzaaP7tjgalRi7HIZl8k1Gx42v2aNou4hleMns2bdPNKFkloj4tbDCRnpN7BwytUp4G9zOHccx8AktjnME2Nvb63Q6vV4PprWkRFovIs1sES2ET2zAn7gk7A614WKkPJ4bQOYJVGyNF9Ik7Nk8U2s/PhYpn53UQSpf4lSWEnPNHtHYt3COSruShS00RlIsnM1ZipiWezn/5O0pvIkSdZxPKuMVLnKT5jjOScOj5o5zBHjmmWf29vb29/f5+0H5tBYxElmiKbhwVJ435U+dFn4ljcEJQ1y0HUmZbNqoUyvTKN8me7iSZpTbnl1SG8OSs2BvJa3VduGXhEFJj7JEdtlDDcato5gphsxhk/GMabsrx3GcE4irueMcDS5cuEDsPCr2zPclOiIWwBoEaNNmoEJxR14Pb0xg3lniZ+Jxxap42ui4UcweNKNm43BNd9GOWLhJPK5xnZQ0yRg3fmrs8iWHsxspFsCfdvl2VAxe4DCO6zjOsccntDjOkSFNa0mrKcOEFlitJZXR4nmQjuw1Q3gTT8fceh1V/a0reF9tIoRo5+Qrn63Lp9ZENtdC/MrbI1LofFrhckhTS8o3XaRFPEq2AM5s1MFGBpyt2Z6obdfGvTxr6k3J/jngKS68eT7R3HEcG4+aO86R4bnnntvb29vb2xuPx+PxGL+NSAxs82hloaZgdY71Z0zFOkl5/pXkkKOQ/Oy+WoXiV7vOcoxq26GdJrGFdqdIndrWkgJGptF+MV/rZknNhZtK+sLB66sYW+0aNLJtdhzHsXE1d5yjxLPPPpvsfDKZjMfjyWQCUh7rjs5lCLyWfAJcWXBEFqri6WAKGc4h6azGkaPgNmuVa+UJWVkkFYrpQ8XwzqyhaqNRWIBs0s6LWDJbbWGF4o4lX+Ga4WWy2r14gZCbdO44jmPjau44R4z0SCjY+Xg81p4NBcgcdNtd4EE3ksAKRYxKS8PhxE2axnHlwrvzwmI6MFcz4IIo1lNS1XIxZFQbJS3HOC+kAB8No3lateSklFRrH84YCmNfzY+bxsvxJi1YXhI4LxlVx3FOOK7mjnP0ePrpp9MjoZM55J1Ekc1sIQufR3NmixY+x2rFE2I6MtnllfDducaJZaDBRhvIQbNiRMochkg18jPDQXk9vI9aTskuWUoObYyAXUDMz6LtaE9iMfLtTeVlSMOm02m2TsdxTiau5o5zJDl//vze3t7BwQGx86gsqBIXsHMcFMRGVZIOTPWMArx8QIYnNl5zQbwX6VrWCzVa+yI5Lm+G3Z4oSbBWrVhG28toXrtOtehmSa/tXfBXY1IWgQTC5e5Jm7T55TxTu/ZCCC+++KJ2RMdxTji+QovjHFW2trY6nQ5WB6ICsIqLWKCqv1cosrUjqvrSKynNM8ViZBexASWKFtE7j8Rm8KPgr7h5Cz6ix1teEkxdxP75uJXkBDYUPEcs0LSpRsu1HLypcPR4wwrNniNew4W72EeEu1a7tgVH2HGcE4JHzR3nqPLiiy9ev349TTqHwDkOnyfEdJCi5rY64PB5kCaf4EyxAC9vfNXqNBKi92sFGqHVLFZI2t8aXkNJTkkx3rxFmlpSeesjtmhYeeDcrsTei0fNcSbklJwvx3EcjKu54xxhXnjhBbBz8PL0iQVdXFExFNi5+Gs+pEWHJhLGt5J9eT1B0l87QZrEK9HaLOZrjRHR9iosrJXnI8ArMXKMYtn2NEWrv2RAtF4XFmhUeVBk3b7IS1rCjdzepWmzHcc5UbiaO87R5vnnn7927Vp6JNSwc02qxE+iHcbRcT08zV1ELEY28WZE5qlkE5dCLcEbb+gj39RCqgqPIp4acdzs5mWL2Y0p6YV24owjimntQIWbSrrQInCeveCb1mCMjOM4DsfV3HGOPJcvX7569apt51oEPShRcywQfA46aYDobdgvRZkj+/KqcElShmwSq9USGmJTSQG7BrGqwl34vvgr2WqU1zKNnBKMptotbzcC2cwW1Say01SMVokH1Z4KJfuGJpei4zgnGVdzxzkOPPfcc1evXk0vIcJejhdVFN9GhKUhKsobTDvnVSXIgjCh7mpiWtMvUpI3khihkTAgQ5otwCkvae9rdMo4kN0Lu5jRnpIRyx6i6Zi0G0MRe+q5EeEOi91iEfg5dRzHEXE1d5xjwqVLl9544w0s5eTBUNHRgxk1tzUiq25ihB7bCU+L5Ulh3kgxX0zYtPCwQnvLjhU5upaIkjuWdIFklrSnvO/GUQrrsTObnpHywuLujQYhYUfNScMWbKHjOMcbV3PHOT48++yz165dG4/H0zrJxXnCcHT+VYuUi3KpbSK7B6Z3Yppkkk1avtaS7FaxAB5nLZ/QtJgxGtoQ8RpKMo3GiH030GrGLbcPB+W1zMIaDBZZqmUpxw316/PZZ599K5vhOM7RwtXccY4VTz/99I0bN9KriEoEPYXVYe1F2IqtCNwIL5vIFc3Imc1mQXdQrnpiWkzw/KisSIMzWwwsb2S2ZGGdfDT4CGjDQo5SmMkHp7x3dmcXHOHCzMOgdbMxiz9C6jiO468ccpzjxlNPPfXMM88EKeAdY0xvIIoxVlU1m834E2z8sTa8lWtclN4LA6StlfK2Fy2NS8JxxQTxV9xTUp5gtJmXzJYpFHEjkw8FHzSxR/wsN8ps1AURaBWvrWmUWjtZvFijaoP+viHx1qJp5Qb8/LqgO45j42ruOMeQJ5988tKlSySTeHmJjuNN8OZRHmHltqGJL8/kSodVT9RT0bHI7kG3c1ElDQzLXNzIgyJthR3n5k3aaTt6IbZni1IuFuNt43UW2nlTGnU5W9joY0qQ0YabWPdyx3GyuJo7zvHk3Llzly5dEgPnmpHzHAzekag5gUuz7VtGwDVr6mJt4rGMXTQW11kj37DzrJfjNDSS33KI7RdteJEeiYcuZOl2viz3barR5Tbvdu44jo2rueMcW86dO5ceOOPmV27kiU6ng2PtQXcXzcuzvkXckSsp6Yjt+sTseSONlmhNarRLSTHRzoN+Q4J3zA4pOREVujdbpAviEe07sUZfD5uYgxS2qyos7F7uOE45jcNIjuMcLS5evDgYDPr9/mAw6PV6to7j/DSDRUuLaq45Fs4vUeryXUoOKnbQqFCr1m55tkJcEkZPtHNxEMTR1npkf21E4f2JeCdAOiL2i+dkW1siwVpmVs3xCdJy8Gu84LFp+MQvFphMJiTnwoULdu8cxznheNTccY45TzzxRAjh+eefT1aBJTuUzWDR0kGZHo3hxWLBxOWKPauX3cUoQNpDGpltCT/QIvAGkJ5W6IeCtLKNeHQYWHJGDg973DQnzrZKk3JILzjsLXYXw+e29BfG1z0W5jhOFldzxzkRPProo5cvX44xDgYDLuVBcnSQ+E6nk9ZygXg53jFR1WeeiIlQ4Chc5fm+QfFp4ui2Fxrmxxu8FOttam9EB/ldEL5TCqi/FQtgG4duZ8DaHQ5vjHY4/lVLl8O7IBq2AS+s1SaepkX03XEcJ+Fq7jgnhccee+y5556LMcK0FiLloS7oWM0hAZPOUxr2CopaGSoWFHMSSxKycXTcAC6RhTcGTbXVluBs4ZibgI53LFRh8bj8oISsyvPbJNHU8UUVykS8pBfiOJfkZLF1PDAR12Rdq9bt3HGcLK7mjnOCePzxx0MIL774YrfbDbqUQzg2+fdsNsPzy0EyUn6q2QiWGy4IjpVVIl5PyAk6PwrJEStsFzInnW1hYHAi4H1PpGH4E+t4rIfPSdeqJhF0EXv3qv5riejioprjGrQ01Jxtc6Gpi9HxbG2F4XOtHtdxx3Ea4Y+BOs5J5IUXXuAuTuh2uxAa78ypULw8keycW346kOa12MhLbInAqxVzeKtIjlZJSf3ZTSXSJppuerKQVEK8nHRTSxR2oQV4rEqM3B5SsalGHDqYfmzc2xjwAlrObE6sPxIa54+BwjOg5JHQ8+fPFwyt4zgnms7b3QDHcd4GHnnkka2trVkOTVBKgGMRIYYC/EDl8B3tengXgnRjgBOkF+Qr7p02yPgWRaNTJ93qdLvdbrer6TVvBh6EyNYMOQx4H8W7O3Lq+cXAx5AUzg4yRxwfMV8cxpIcfsFkG5Mt6TiOk/AJLY5zQnn66adDCOfOnTt9+rQtVXE+cQISeCpLekLUPlZVn7iieZ5BVOaWkHytmNYqXA/cOZD8IMV3jQNVbA4Jrgpn2mHjqqpw+LyqTx3hu3CJJPUvbofEwgNTc5IIddU26hR7tBQiu7+yL7wSQSeZon9racdxHBtXc8c50Vy6dOmRRx4ZDAarq6v9ft+w81CwGEWoKyAIPWzlbtRIzUlh0XoxaU4Ob5jWbNHOAxLxyN67xOsJdX3nrS3JwYM/nU5xA3CrNK/Fp6m17/LKbR3Xytg1i8dalsva9RimLro43kvMt9uAl8J0HMfRcDV3nJPOCy+8EEJ47LHHBoPBYDAYDocVWjARHKvb7WIpwYFzEdtUGoXMtdqyOjWZTKqq6s5Jy8vweir0ywC2ai7oJGKd1X2+I9+qbcKDD+Fz7YiGf9uDrMm94eUh5+g4YbfNOBa5G+Edzxq8eE9YWD4wBSc5WRHn5SeTiXF0x3GchKu54zghhHD58uUQwrlz5yaTSXL0wAQLVmtJOaKdl4jgUrw86PFLUoYIeoK0B9s5zsfF4IhET40Ia1BmdHBt5WXSdHNsunzxFi0ozjP5fUXTtC3oYrDclnKyNWvwSyFKkK28PMnhafsuMX397//+7yV1wnGc44yv0OI4To2HH34Ywue9Xg/izfBsYkJcsIXXpvlWo395eGGoFh55NKrFht1lwOrsuFqciSup5qu8p14bLRTj7uQoWUGP8xU/+OO5pDbNqsUyLRy98JOHzI1WZbfy06oZsK3LoNeil2NBN75CDn7gmC/Pkj5hbZZESv/Xf/1XOpXf+973jKFwHOeE42ruOI7Ao48+mgS93+/3+33Rzrmm24KoZRr5QXp6EqdjfbWWkLPzEEK32+3V4eaKI8G8qaKda4c2elpizKKak8dDeVX8iGKxrJo38nL8WR4CF89p+rpcNbdF3NZxDBFxTc2xl0+n0/39/VdffZWsq/jXf/3XhaPkOM7JwdXccRyVxx9/HOwcR9C5nVfopaFpXyNuWh6+DfpEbdC4BPZXsS8Rhb1BykHTSWNwj0Ld/MhLUsvtnPRCGwTylXRNDJ9rdm7oeCNHb/eZHQFtq23kWQvnCU3ENf+2v4qRcpwA+cYh852dnd3d3XQq8ZLn4/H4r/7qr4xhcRznpOFq7jiORZrf0p+TdJbbeWDB5qYiLiZEmSOhWexGiSRAYnfSLj0Gnn3OITUQNbeN02hGYSLW14Anpg7/hmcVPGvqYgMaubh2+1E4GkChc9sJ8rkUQTci5fgixGqeLPz69ev9fh/UHOt7Snz3u98tGSvHcY49ruaO4+RJCyxiQRcVlkCssTwhajFJw1ZiSMRicS/AI3HgHCCvNcX+TSqp0E8Exjx7DaPvRuEwn1jPHZ2Xb+frhWW0hHayjB5pFGp3tkCJl4cCIyfYc1r4hJaDg4NqfhuJwWo+nU7H4/Ff/MVfZAfHcZzjjau54zgNePzxx4fD4XA47Pf79syWwMLe+F+brJGLdo5LQoIIkzjxAx8r7cXVHE86x86NmxFjFL283M4bSTwfw2r+HiJu52SoE1k1L8lsnWjUdxhh6AL/GpBna1vFwrZqhyZ2bnt5lOaa7+7urqysQJPg9I3HYxJEn06n3/rWt4xRchzn2ONq7jhOGx555JHk6KPRCD8GynWWaHTaHRJ4ayM1J8aM5xWIdh7r07L5w6Aw6Zz0hc+h514ein20avI+HXJcnODdxPUTs2yh5rxA04QxCEa+reb8U/samJeHBQQd0lkv52o+mUxu3Lhx9uxZ3MdUbDweTyYTuMuCZ0ZffvllcbgcxzkJuJo7jrMo586dG41GKysr4kSXgBQTLIdbe7mdk70Cm9NiODrsLs5pSWvRiPJN+oJ93VBz3vKKvSHVgHRf9GbcOzwahEIpr+oru7dOaCOQzTc8O/sZCrycj09QjDwwNS+Jl8f5epdJu9ODntevX3/nO9/Juzkejw8ODvDDAxBB/+pXvyqOj+M4xx5Xc8dxlsZjjz22uroqOnpAa6TwTwMy25tUArIb5s+DYinnjg6mVc0D52nqfErANHou5djF8az0UKzmWLJDfWKGCLkZ4HXiBP5lQFRzPvjaucCtWsTLm0p5QlRtUbi1wqHAy4Oi44aaz9jjnpqdJ9WGkPne3t7p06dhuhRuYYwR2zlcqNPpdG9vz+3ccU4mruaO4yyZu++++8yZM4PBYDQaDQYDWwRtOxcfsuR2TkTKsHMoENAC5/B462AwSM+D8gZwxB4RcN9Jg4kFivviY4WcDVdsKgtH3F1sf5TeHpptgJi2M8lBcUL8an/ir1nnLixGrisjgSPfYOfb29vveMc78CpAAYl+KnZwcBDZjzxXr1596aWX7BFzHOf40Xu7G+A4zrHi05/+9MrKypUrV3Z3d2+//fY0H30wGMB8dChZ5WZdV9IaL1ibUgGs5oGJGtSTPPvg4AC2TiaTEEKn08ESD9NCqvpTiWKOTVWfHAKyC5k4Qaolx8rWgDM7nY4u5zEy5+ZqzsvYCSOt5XDKBxaXb+Tl2TqNa9J2ekhwa59MJvidACGEdI3BNZle5pUeCcWX4i233HLPPfd8/etfbzQsjuMcdVzNHcdZJqPRaH9/fzqd9vv9a9euJSNZX18fDofwStHOHBxH5IiSRITM9vKKzZzudDrj8Riq6na73KVwtaF+VxAK7igI3KoNTxUFnR9aNHVcSTV/F5Jm57h+LepfKOhGWqw223FjeG3J5q5ccujy5pEbAJIA8IU0mUx++qd/Ov0VpB9k4OxwQYdHQmOM0+m0qqpbb731s5/97Le//e1ldcRxnJsfV3PHcZbGJz/5yWQh6XnKRAhhe3t7e3s7hLC+vo7VPMbIVxZPcAMmngoOTTJDfZYLUcNut5smD8T6BGKcSA0LyICzHRdby3WcezmJnZNqiUOLFYrtSQUqNDNeFPTshBx8dDFhpO06SQezOYW+vkQd1xpgeDm/zZtOp0nK098CXBXJy/HPPknQyVr1vV7vtttuW3qPHMe5mXE1dxxnCXzyk5/s9XopNA52jhc4DyHEGPf391N5mOedvqYC+L0/opfjgCi4NW8MFlMi6KltqRlcp0DQQWfx0aHy7GjYXo6dmHg5+REA33iIU1kMYBBgX9HRA1NzLIvRDJwXpnnDSjaVjPNhiDipn3i/mMCQy2k6neLZLDB5Ceycx87TVHWofzgcPvTQQ/5IqOOcHFzNHcdZCCzlOP6dYoRBUbpkLRUCCnS7XaxcWEk1QyKFA7NqrJi9Xu/g4GAymWCdwpMQwM55bVAnmCsfkEIvt3fkvcAaXWK3UBvxbHzTggfQjnA3jZdrrSosk+3gEqVcO4+QSY7I84mUA2l5FrhZhXPB7Rx/JZX3er319fVlddZxnJsfV3PHcdrwsY99LK1nMhwO8RKEHUQqKQo6vGClqpPKpGkwXEO5mtuN5JpbzddMhGktsb68RtIjEjUPusCR/EIvj/VodLYjsR41N4qRXTQ7D2jRmBl7mahGuZc3VWfby7OnmxcwdmnUNlwPvvBEBkr4/wAAIABJREFULycLLE4mk1/4hV9I1xse9hI7xzcA0+n0iSeeuHjxYnmzHcc5uriaO47TmI997GOrq6tJx9Mnf8QzldQC5ykmnZaN42qeBJorLxEjgiiXJDPGCM/k7e3tic+ARjSnBUcx7WB5WMzLSVyctDmr75qDGnYOzYD7EM3OecP4qJaYfUnjSUca6Xh2l6atIl5O6ideTq6fdOcJfxoB3QvhkqKdw0SvMFfz6XS6lE45jnPz42ruOE4zPv3pT585c4ZIOV50BQcIA7PzBMwRn06n2M5TZjWf2RLqsXMjFErqJxMDyNZk52lSDdYpHDWfzWbk9oDUT4y5qZdrgm73S+t+owJid7i+l9yN4IO2s3PNy7kKB/MCWC7k6OSekFg4TuCQeXoGFC5jUc1FOyc3or1eLy306TjOScDV3HGcBvzO7/zO7bffnqQcXByreYXe30lUm0g23prC56urq7h8YPPOG0k5/krENwkTvIKRBz75Oi3a0Xk3cWtLvNzuTmEB3LaSATEq514uHk6L7tuNN5ptK7ih40v3dc3LSSa/bCAzzdf62Z/9WbhTNdRctHPcGPK6Isdxjjeu5o7jNOCOO+5YXV3FMXLi5cRCiLYSv4EodfoRf39/Xwwbk33xJuNr0J+eTK6zsbGxu7s7Go3AqPDiifAkKLFe4qxaf4GsoBshc61fuPJsGRtigXxINeVd3M4LvZwnxL34vtpnYataeDkOmc9mM1ikiFwhXM2xncf522rx1m63++STTz7zzDPZ9juOc9RxNXccp5R77713fX09rVlOvLxSSDtyt07C0ev1koiAtYzH47QjPCGaZtniJc9Dk8CwdujRaHRwcLCzs7O5uUm8Cs9paaTLpL+i9fIE7NLCs7WSooNm72RwS8R7En4U0c6N+rNybAgxL7AUxMpFrTe8nKyZmGazjEYjIuVwJ2bYeUSP6gIwMcZxnGOPq7njOEXcc8896+vrg8EAv0LFkHJi50Hy48RkMgHzS0IMcWteVbmU40xR8tbW1vCcFvAqHDUnJi3KKD40sXOSbwu6YeQlsk5MOlu+kAoF9QvtnLfHRhRxruBGhYdh6tpNAl9qk9h58vJ3vetd+GEJcg3z3UMIOGoOl0fC1dxxTg6u5o7j5Lnrrrs2NzfTaong5TCP1hb0VAORJ3Ep8TD3GCzlyY+5ApZLeZSinjFG/HoX0pJqHjUnM855OBNn2l7OGxnRrBgyPlm3BnUr36VR5ZEFzsV2hgUeAIXdg2nnQRH0Ru4uHkjsS9Cj5lkpT4k0m2VtbY0szEL+HDj4Use/2ODHSR3HOfa4mjuOk2djY2M4HCY1By8Xp7KIM86DpFDpEU/QHRydxSFD8GMssrhtxlfsPWIziGzxqDmsokgOwTto67hm5wHNOLdPgXbvoZUXPTV7PyN6dlWfbLNEOzd02TZvw8JLFJzvQi4VUZ0NSMh8Op2mRzLw2ccXdqVPa0kkO08PK6cdXc0d54RA/8txHMchPPTQQ4PBAELmEDjHmo7zCT0G5MNWPHMdKy/2noCEKTWMmDG5ExADnKEuaj/3cz8nRs218hqNvByHUe06+Q1AeYFKgpSJ0h2L0XKe5lUVQoaXfEam6Vq6xaF5MxaBh8yn0+n/+3//L0XNyQPT6SzAQkY2eM5Y+nr+/PnWPXUc56jgUXPHcSweeOCB1dVVEjIXTdoG+xO8PwWWgg4olBikn/5hvRTIFK0xKA/tYUgmN/jQ0Paaern4lXfEOFCLrYsUhl0iuiniQwTnLltVZOYtfob6iSjPLEH0bC3fBi6htGbibDYbjUaDwSCw2zAygFUudk4et/DAueOcBFzNHcdRufvuu9Ojn4PBIC3MUr42C0CWIISXDQWk5lV95TjYNyBVwnNLYBMWwSjFXEX9wqTpB8bbheCIXDpx5iJerulsieaWq3BTKjbjPGvnJceKuljzT7GYcSC+r1Y/3qQR9Kso1mdD4Vnm7373u0ejEV/dn0Aub155YD998LlVjuMcP1zNHcdRWVlZSfFyCJnz5cxLvBzbSZo7m9IwUyWtlJI+ubZyq44sQItdiusUzg91rQTBwjVrkN7hzFDs37aX26pdIuLt9or665Ca2jmuszxHtOeslBsN0DQ9FITGs2X4y6rSmomdTmdlZWVlZQWrOVQo3t2JlVf1X5DIJec4zjHGb8Edx5G5//77wcvT6z/xA6AkIcIno/O9Un6qH47CzZ6bU6jPROdpGzjE7u4uTLARwUfkaGKtabrh69y9+K2O2AADo18liPcPWlqTV/hqvKMnMi/HmeSMa2njNGmN5JSUSc8nQI/wLPPbb799NBrh13LZJ6hik87Juavqc9OfeuqpVmfScZwjg0fNHceRWVlZGczBYfIuewOo6B9iJsxmqVCAttPpTKdT/AlvCSWFoz6/gqsVz8S9i/OQ5Pve974rV65wNSREKZZcKWJdLTybRbPqprYN5cVONapNG3mMMdR2Dsnn9TRNi5UvSLoswcshM85D5mfOnBmNRknN8XErc0X8gGLnZDYX/2syOug4zvHA1dxxHIHPfOYz73znO8kUc76CBA7p2VKuiQX38mTwMLkFKyzYeUCmHvQ4q6HmQFVVSbbErcZekKikKHI7L2+k6byA4aa4ErgtsauFHUUjN+zc0OXycSaavkjaFu5sgdmcyGL/kJl+eBmNRjCbxeisSDV/3AJ7eWC/ily4cKG8TsdxjiKu5o7jCKyurvbnaGrOo+bka6iLRQgBlCXOp5SkhzvByKt5ED0ZM46yZwXUVnO8LzFjCIXa1eLukApxbaFYx0WnxzQ19RJHF2sgObEe4hWN3HZuMuxGk4ymLi7lIafdBnxfuE6wr6fM8Xi8sbGxsrKSQuYVeoK2kp6mFTur3ceKmY7jHFdczR3HoXziE5943/veh71cU3Oi44aUc7cmL90kgfMEtnO8b5SeWSxRc1GX01FsnbW34jKd+Tsg+YGMfExTIzcKlzQ7a+qh2MgJ2I+1TVk04daqImWWIuUxRvziWDzFPOX3er3RaLS2tra5udnv92HEtLNm5HMFdy93nBOFq7njOJTV1VV4KJNMMa/QU2s4p2LTYUVHB58Oc3cBQa/QpHNMUh9oG96XNFtTc2hPUBTZiJobCqgRY+zUF3nMajqwiKmLzcs6emEbyk2anBpya5Rtp1YyK+X8KK3VnADTq/hUFrip29jY2Nzc3NzcXFtbC+wq5ZpO+ouvUs3LXc0d54Tgau44DiWpOXm1pzjXnM9pgUqIl0M6mU0S4jj/oR+WNidRcyCpsyiasT77POREhyQCipqLsXPxWDZxPjmBH1FsQLmRl5TPui+5XSk8KMa2bX6srNkbBRpJOSm8FC9Pag43bxFFzdOm0Wi0ubl56tSp9fX1qj59BSfsIcJ3raQYuad1HOd442ruOE6NT33qU+95z3vIWocdtjALX6fFkGAeMoeVmyNaxTlNboHCPHzOPQ9rkGHkYsNSOh0UuxeuHBI4XR6/1HS80O+1woYKh5yja0c3miTKcSFQLZmYZB/ROHS5lIeF1RwuDLhni/VHP9PLqk6dOpXi5ekNoNA7bOfGOcJ/F/jSxbt0/GVDjnNicDV3HKfGyspK8vIwN1ceOCe+TgQ0QdQcEthXSOA8ztdS7Ha7oD4AzCtI1XItaxSHxjcAZLoC3oUcJdaf59MqJxD94nsZFi72Tiwg9lE8aHnjxX01U28q7vYNRgspD+yXE/GEFoKvOs3LY4xpHsv6+vra2poRMs9GzUPBBew4zknA1dxxnBppNkunvhiireawr+gW5Ef5VDOX8oC0CY7b6/WmDBx/FfXO0CDIwR38lV/5le9///vwkB8pLGZyRIHWJF6zUsPRjTaIngebWgTRbSNvAdblBW8D7BsDTc3LjTyi1Vfwo594K1yHa2traR7L2tpaZ/74L7Hz1DzxmiSnG/eI9C5d84888ogxyI7jHA9czR3HqbG6utrtduEr+Ks43Ry2QmG8I05gQYcZLEmAOvNFWkCkcAG4N4AQJl9QJc7D0uJBSZPA+/G9B46aa4F5gNeMi4W5n+FWlXhtNpKqoYk+2SQ6uqH14iEKFbmktXbXuKeKRySZWTUPTNNn0ltL+aOfYR41h/xerwdePhqNAhtYw87JVq1r8OfApwM5jnNccTV3HKfGyspKhQj1uR+2nZeoObacDnozC9amqv5sKBw6zqcZQOycWyb/DHUpF9UcfItLv+ia0ZxxbuipGDKPaPVrraoSR+dHz2q63dryrSX3HqSD4h2FJvrZRKGaZ70c+zf+IYUsZB5COHPmzMbGxurqKrz7UwyZFwbOtWHBdwvZEXYc5xjgau44Tg0t0hzqaqsh7kgqTJId5hYym8263S7oUZjrSFWPr4P34JnoRlNJd8iNBE7HGH/t137tX//1X4moQc2kbViqDJkuGWqxsGjhjaoV9yrXca1AIxGv2OO5OJ0dN3Evw8uzgi66ON+Ef5zB9cT6VJbNzc3k5Wtra+nBDLgeYv1GS1NzfmpIe9ImfJ+QHXPHcY4BruaO49Tgqo2VQguZczu346NpawqcV/PpH1iDRC8ncfTk6FkHAheHh1axmicb6/V6OEpKlA53pFKmImDPjiw8DC0sN2zekUIKdbz1DUBWlMsbWS7oLaSce7no4jjNp7IEycuHw+GpU6eSl6+urmIph5bzvwXxXOCriHg5HHc2m00mk/vvv79wbB3HOdK4mjuOY0EMowSxkpTA7gKzWTSLIjoeJV/nFs7T2MvJa5KSl8cYe73eBz/4wf/4j//ArgZPuGJBjyhqbohvycDauzT1eLyj2KpKj9raNG0GHi6tKnJjYx9U9PISKQ8hYP/GO4peTkLmuBI8jerMmTNrc0J94ji+KrQEFBZ7RDqevHwymeRG3XGcY4KrueM4NbKqbYTMSyonVdnxQqzjs/ra0vDwKK+ZpPEKM/hhVvDyVHIwGOAnQRNEc2N9rgIWsvIRFocF1xxRbJ4PWhZNx7ONLHF30ZJxgp9HsTasp0b7xfq1o4iyrqk593IcMudeDgXSFPP19fX19fX0wLTYx0JBx93kHZlOp+PxeDKZbG1t8YFyHOdY4mruOE4N7Wkz4ruilDeVyCAtZAFfkz1jC+efUQpS4q/YyPEnvxnodrvb29tpfgK4Gl43BoOPi+fBR/PxULHXhgFzh+OV24cTK9d2aXGDga1Uk2YygHiItG6Sr9zO+enjUp5Vc/x1htbRJ1VhZV9dXT19+nTycvyCoXaDBn3HDx9Dk8DLx+Pxl7/85XbHchznyOFq7jhOjRl6H6cWEeebWkg5ri1IUx1SQjPygMLYWshc9PI0QwAK43k1H/3oR//93/8dpBwSoa50okpCm/lno9HgtipGvondBvMUlITDWzQSp7NqTvJxw6Iu5UHy8ll9QUMu5QEptebi+CtZn4dUAlNZOp3O2bNnk5en1RJ583C/xATvu9i22WwGXu6zWRznROFq7jjOm/zu7/7uz//8z3MXFGXdlk4tHmzvgo8ICW7kWNP5vQE4PZnEkqR8Vl8eEcLzKXNvb284HMJsFkh00JuVcAsjm+Ii2nksMHWoVkyHMkcX71KME9HinkpTYeKXoe6aOB83TOwU+WrXpjXAVnPYkbxrFm/FXj6bzW6//fb04s+VlRVjfAwvt8czogj9BPHggw/mzonjOMeHTr6I4zgnhu9973vYxclW28i5FJYYPK5ZTIe5PePHN+Ezgd9OmtK9Xq/f78NnCCFZTopB4neLpq9hPof+Qx/6ELY6nMA+F+rPF8b6xImmYInU0hHNh+aZvM6guyymRWtL9rKPTtL8euAF7MPxc4ED4eQk4grJW2bxVjyPZTab3XLLLTDFXGww+SsQvVzsbECLpkPj07XqIXPHOYF41NxxnBqz+sonSVa4YeNMskl0eryjdmgeJI71YDOZ1hKQxxOz55FyQDtuIr1+CM9mwYHzWH9AMzYPmeMaqvo8eztNmkpcMBbMnOG12SU1uH8bCeLlWh+1A5EjipCDYgufzd9LhY+OS+KgOG85XDOj0WhjYyOFzEvGrdzLyU0gNClJ+WQy+eIXv2gc0XGc44erueM4NbC8EikEiF/i3VtMkOBophvqi7rgVsFeEEonUh5R5Fs8HPD666/fcsstuL+z+eQWPO+cWFcLO4dmlwg6HKjdOOM7imwNtr5zheWZgfl0qKu2OHrG4exfBqByYrq4O6SkOIkFH46EzJOX43lNZLhEHTc6FepvGE3HhV9yIGqercpxnGPGomt+OY5z/Hj55ZdhNki/3x8MBoPBYDgc9nq9Xq+HV07ESyiGJlJipLnMac6HjwteXs0niEc2HYUroBbg/8d//MeNjY00CL1er9vt9uakeDwuTJxM/Mo/sZrzvYy2acW0ekpqawQ375BTc7wX6QUZE/EQopfzmslJ57UFZt5i5Th6PZ1O3/GOd5w9e/aWW24ZDAb8yiedEs9RYJc6gGdVwQyW/f393d3dvb29e+65p905chzn6OJRc8dxBGJdlFMaVCOi+RhLCZNzeIyZHBFPaAFJImFIzcuz1ru9vV1V1cbGBt6FqBgeDR4yD0xDAaKMRNBxT0nbWo+2GDLnOSVVadpN0rxMqCtytlPkCtQIzOAhXi4eN6KZ6GKF2OxjjGfOnNnc3Nzc3Oz3+8bw8jEUvTzWbw/w4fDDDyDoJWfEcZxjhkfNHccR+OY3vwmB8xQyHw6H/X6/2+3iqCEJIpbUHOvhQ54mIhUk84t1qU0QtSKTWEh8HeBfq6qaTCZ/93d/lx77g9g5RM0r9Fhq05A5wSjfKGEUEA+9SBBdM2MjHaRJMiRkDncLmnDjr7F+G1AYLw/z9wfxCoP0LObq6urZs2fPnj27ubnJr3ZyLdlejpuEe4R1PHFwcLC3t3fjxo0HHnig8Iw4jnOc8Ki54zgC169fP3v2bEqDJPGYLhaOmJsuYog4TwckXlz4ZvMXhZJgNvEe4uUEUU9BE3/1V3/17//+76uqWl9fxweKMeJ3IZF7klgw6RwX48FyktkuTG7DQ+aNyLo48WZ+rktC5iIk1B3QSYczLh5RqwHqgRrC3J5DCBsbG6dOnYILgDSeDClP82aQ+wF8G4Cj5js7O+7ljnNicTV3HEfgsccee+GFF2677TasF9PpNL2ZfDZ/IBInuLLEuscHXcTFtOZ8YFEk7Er0C8rw3mkxYxKB/shHPrK1tfWjH/0ozWxJ+d1uN869PCJBj2weS5S8PCpqHpCLa5/50yZRIuKNZJ2flyCdI1IhOcXi/UzQpdyAhNWDoubaDJYwv6JwAw4ODm6//fbTp0+neHmoz2gK6C5O7ALvtdZaeOgTvHx7e/uNN94oPBeO4xw/XM0dx5F57bXXOp3OO97xjhDCbDabTCbwa36Q7JzoJiB6krE15OycTCaGYDbXNTuKTzKx6EN6OBz+6Ec/eve7333q1CnYhXh5OiLePUrqya0x6+LaJ++Flr8IRjw76F4u3hfBvUrQQ+ZRujfg9Uf0Y0isx8uNKy3mwMc6ODi49dZbT58+ffr0adHIG3UHNzUiKU8tn9S5cePGG2+88dRTTxWfJcdxjhuu5o7jyLzwwguPP/54t9u97bbbKkRapCWwkHlVn7NhaEpQRNwoibUMhz+xJxHTAjRnxfncy+E+5MMf/vA//dM/zWazM2fOVGxCC7QqzUEPKAROTFoclqo+xaXpZ8l55L0WJbiQKHk5n0SU7p2ImgfpvoVUbqszwX7uEye0kDm5WpIrnzp16syZM+l0V8rMctxmfoojcv2ApsLjZpP3Co3H4+3t7atXr165cqXVmXEc55jQPX/+/NvdBsdxblJ+8zd/82/+5m/Sw6BYUEgcMehxSm0TL0PSOAFp/KAeKYY3QcNwU7l8Qzd5GRyLTR3/3//93xDCaDSCvSK7eSBORgpwT8UNINUan9kCxgkVEY3T8H4ixyLkBKVPWFQnSGOuSbOYz28G8OgFdo3hvfghoOR0Oh2NRmmpRHud0MBu7fgoBXRxkmanewDs5Ts7O2+88cZrr732ta99rfjUOY5zDHE1dxzH4qMf/ejf/u3fDodDbidER7gVBUkotUQ2E2sf2FgKlxIpD8rMYFHNRXeP9ZkSk8nk4OBga2trMpn0+/0KBZ6jpMKRuTIfMTJ6ttuJdZZ8EgzhLgFGJkpSHtmcDWhJVVW9Xo+MAxlw0ZU55HDkvAd2HRI5hr1IqDuEMJ1Od3d3b7/9dljCHOC3eeJ48ttULuXpE4w8fe7u7l67du3KlSsvvvjiIifIcZxjgC+e6DhOnsuXL99yyy2j0Wg4HI5Go7SeYIXWTDRi0txiWySI34CQYflL5bX2GF95Ai9mN51Ot7e3f/CDH7zxxhtpEcmNjY21tTVYPhKTHpMldeKFJoMudiU5RG0bfXKa5gdl+grPxIeGFSe1s4NPMbFw8R6AqLnYSNJaqHA6nWIph5uB6XS6tbX17ne/+9Zbb11ZWel2u+ndUunTkHJxrMRepK/4ZZ/g5devX3/ttdcuXbqkDbvjOCcHV3PHcYr46le/urm5mdQ8GSqscW5obqxHcEXhjmy2bqiHfsW4KeRrtlQi5USXYSuWp7R0xg9+8IOrV6+Ox+O0uPtwOExLnnckcJ3Yy/FrkkibMYch6MY/9eWCjl1TdHTYlHZPb1HlXh7YRSKiSTm2c7Ff/LJJgWo88rjAbDa7cePGHXfccfbs2bW1te6cpOb4sgnsMiPpKIXq8Y0E9/IbN25cuXLlmWee0U6Q4zgnCldzx3FKefnll0ejEcTOh8Mhn+JC4ouGdYW6n1XSLBFwL0PN8criOFHo5Tw/hEC8fDqdvvrqq//zP/+TlqlJc1q63e7KysrKyopo59AYkPXyeRGNcmzrDdINkkiJoNuRcjg1qQHpEQXNywM66e28fMamsmCgnul0Oh6Pw/z1sbhAmIfVd3Z2br31VuLlWM3JUBgnLrDFy/HgwHWFvfzq1as+s9RxHMDV3HGcBiQ7T28Ghddkah5MTAvSWnk4StRD5tjs4Z8v7E+kQu1Y/KlWXCaZE34RzNbW1g9/+MO9vb3xeJx0PBUejUZp/oMYOMeTXvBBgyTQfLRJplbGcF9xSA00QU+UqHmMMV0VWS+HhvGTa6j5dDqdoWkzGjHGdBLJzRsfkJ2dnVOnTqVXfuJJLMnOSWttO+dXO05gKZ9MJnt7e1tbW1tbW08++aR9UhzHOVG4mjuO04w//uM/BvfCb7Dngot1PKJVz211jvWQOYZnppIwITh95TUXejlAvDzxwx/+8PXXX59MJrPZbH19HQak3+/j2cnk2UHRzkNdqUXP03J4Zon+hrqXt3D0rJTPZrNktODl2bZpUq6pefLymT6VJZEe2wUpx8NboTvGEMLe3t7169c/+MEPpok3RM3FwdQShpTP6vNYkpffuHFja2vriSeesE+E4zgnDVdzx3Ha88orr4CaJ1MPkgAZIs6/ppq5tIGZTafTJFJYzcUHDcUDdaTl8Eh57uXT6fTHP/7xq6++urOzs7+/v7KyghdSrKpqZWUltYqHz7md8zEJTAFx5cYpIIIo6m/Qo+b2fwHkdBDdxDlhfoOU1Fxcj4U3TNRZXLno5TP05k7SlzR9ZTZ/RSs5+6F+XR0cHFy/fv0Xf/EXU4OxlOMpSbzx3M55X3B3yDyW5OU3btxwL3cch+Nq7jjO0rjzzjs//OEPJy2L+sQV4qCiehIXJ58rKytra2thLmcwORgqFA9a4uWJdCDC9vb2q6++euXKlfF4vL+/f/bsWThiYjAYpAdDQdAhnE/snLcwMEfH2HaOy5BP7uXiv/lZQdfmrqQdcWeTmmvtIQfVwvDczuHsi/HytJVIORlqcrM3Ho+3trbe//73w7L9fHJ50O08sDtJMV6eDpSM/GBOipf7Kz8dxxFxNXcc57B48MEHT506tbm5iTOzlsnFiHh5jHFzcxPezRmQmosBae7i2QktYR6CxUwmkxQ4397e3t3d7Xa7p0+fJuHVTqeTlsROhtfpdGCJElEZSWvxo4pkoErsPEgSXGjnpDyB6Phs/ggm+YkAbpCI0fK0Fi8nwfI4X/EQn31cCWyaTqfkdoicTRIvv3bt2vvf//70yAQJlmvN1m42SOW4U8nI9/f39/f3U9R8a2vr4YcfzpxFx3FOMK7mjuO81dx5552nT5/m+bbPVfOpJoPBYGMOVnMyFUHzb8PL8dTkOF/uGnP9+vVXX331tddeS6HQ9Axohy2JSBZVTIFkPsWFqDmZGB3a2jkuSVwcQs4l//LjvbJSTiaQGOcx1F2WTJIRp7Lg2SypBviaEjCViJ/fyNjb2yNeThYvtwcfn7jAvBz6Mp1Ok5EfHBxA4Hx7e/vRRx8tO4eO45xQXM0dxzliPPjgg8nLb7nlFpBaCJyTB1JtKdc0PR0ozl84Cmq+v7+fAudbW1vj8bjb7abl9jrsFfRExNNsZpjoUtWfBw3Iy4kghgUEHbs1/iT5xr54F03KobO8EtF0RZHlU1nwzHLR0WezWVVV6Z6nQlOG8Bjye4CdnZ13vvOd/TlwUrLNDuyWQ/R++IElBcvTW6tSvHx7e/vcuXNlp85xnJOLq7njOEePhx9+eGNj44477kjTJ0DN4Xk+27ztwHlgD1BGNLnl9ddf/7//+78f//jH+/v7SQ1Ho5Fo52EevE8kC8TxXa1hqY+aINqQf9JjWdQ81meJkH2BDpqoU7EHW0mdhV4uGjn3cpKffpcgRo5HlUv5dDolXg6V2AMu3hph9cfNS16eguV4VZaHHnqo8Aw6jnPC6b3dDXAcx2nMzs5Ot9v98Y9/fNttt2EJBhvjsWfAyMfWFeZh0fQVfHp1dXV9fX1nZyfZWAgBXjOJZ7aAuqUnF8lcbfzQKm5AnC9oE+bP0aZNYgzFCKxwveZfuY4bxXiYHH/GgjB8kBa+xMFy/rAvkN79lNL4RVeilwfpViSOCe+HAAASmElEQVQFrd/1rneR5T7JIJABx7XhTaD+cMNGvJwsyeKTWBzHKcfV3HGco8c3vvGN++67r9frjcfjtB4I9nJxF2zMhfkpgY2t1+utra3t7u4mOz84OEj7TqfTVJK8172aL/aCmweOTp47JAoYCmaEG/0VLZxLuVYGSC0kEoy/arqPR5IFyt98EycJORMvT3ab0mnxePILA0njyiGxv7+/s7NDvJy3mZg6/4pHjDQ4gaevpJd9fvnLX7bPoOM4DsHV3HGcI8nLL7/84IMPTiaTEEK/3xflDyg0cp7Jd+z3+6urq2tra+vr69euXYMHE9OO6SvMvYZMbOcBSWGafhNQaJYkNIiGhobCTTJxAv90AJ9ilDpIM9fF9vNTI85UIVJ+cHCQxnM4HA4Gg0qaiQQzUnAzsJ3v7e1tb2//zM/8TJrBUs0fJu6ULYZDNsGdFV1ZczqFNct3dnbcyB3HaY2rueM4R5WdnZ2k5r1ej6s5sUxM1shJsYgC5yGEjY2NtbW18Xi8s7OT1tJO+Tg0PpvNyKIfMJ2aKHWKnccY4VNsDG8GZAZpErlh9lziRR3nnzhkTo5OasahaNxrGByu5njRlTRRu9PpDAaDtFq8qONwLDKqcJSdnZ2dnZ33vve9aWxTneLZgdaKadJ4Eizf39/f3d3d3d3d2dm5ePGiNuyO4zgl+GOgjuMcYe6+++73vve9q6urg8EA5iqQtRTFOCtPQ06qmZtZqM/BSI8V/tu//dtkMonzRyTTouaEgBb7m6G32ePWVvXpIjimi/+VJu4Y61HzKIXPxXpwbSVGDl9JlDpKIXN+XG7kop3PZrO01GBVVf1+P3k5HhxeOb7hwc3Y39/f29u79dZb8ZCSEcZqLkq5eL9HjDzZvxu54zjLwqPmjuMcYVLgfDKZiHNaEloolKSJg4rF8Neqqkaj0Yc+9KF/+Id/SN4ZQjg4OBgOh6QBnU6n3+9PJpO0rxg7h5B5qjzOg+ikv5EFzgu9nJQnSor7nk1oOi42wJBy8qxnesdqCAGknKyggk9BrC+5CAeaTqd7e3vj8Xg6nd5yyy0kTJ7AaRI4hw5icE4y8p05zzzzjD3ajuM4TfGoueM4R5uLFy+mVVPSMtU8ag7PDmrxch47TzWLgXP+zGKaZ/wv//IvyZvTcookTJuqjTGmxUbSY6Pdbhe3mcR0O9JK4UG6uyB2zsGWiT27kZdr6k/UHCe0MDlR8/TKzBBCr9cDKU9njfc9speGhnmYHOLZ6T1QHBIyhwTUTEQcSEfc29tLYfLd3d1nn31WHGrHcZwF8ai54zhHm//8z//8wAc+kJZqESO4ka2lKKZLAuc4aI0TnU7nl37pl/75n/85hJCWzxuNRjxm3+l0BoNBCuWmYD/2P+PdN7G+rh93VtGYsZHzTvFeiImIVjkUDyQ2QAyN44krqWFpPZMQQpoLlKQ8LZ8iniNs9rE+uShV+9hjj335y1/G717NOnqnvngOdnH8NRm5P9/pOM5h41Fzx3GOPBcvXtzY2IDAOQmZd9ikc0jzBJH4wGYek3g5dsSdnZ3vf//7acHywWBAYuf46Cl2nj5DCL1eD8LnRCLFlojaKgZ9cRktKK7lkwpDwXovOKSNH+vEPg1SngLe1XxaeRoBcmtEpPz/t3c3PVJUfQOHqxlgupn0AAJRcGHE3CzduTTx4xgN8SWKQoywIGGDbFz6XVy4IOgKExe+JBpXLpAY4tAw02/P4mROTtepbsaX57n/T891LTo1Pd01VT1k8qvDqaoyx9OBTfnjrl69Wm7PrVu3etVVZepfev0Jt9J8Mpm89957y//1AfybpDmwDj777LOtra3BYLAizTvLrG70vM56mLkcpp0vTneezWbpMh3fffddGvft9/vp/jh1nff2r6iY6jwlYAr0fJfKcrpFvT3lcqvF00LZuGVzN0uKvHxBXeSdQ+bld3PL1uPlrQHp8Xic15B2OXV5uXnNYpTPF69XmLI+/9BWkXe6ceNGZ523XtZ65sMPP3zmmgH+XSa0AOtgNBptbm7Oui7W0SyfhlGbV/f9aapB3JTvs9ksjy6nhXRUcOnSpR9++OHo0aO7u7u9Xq/f7zdds1Dy0UK6pU4KzSdPnuSzWtOJrWWd55W0dq01WJ4PMFqN29qX/GUZqeXEldZqm8VR89bQcl4u56u0zPYv+t7sD5anLq+LPO9m69rhe3t7+aDok08+OeDvtGmaGzdu5OVr1661unw0Gt25c+fgawP432PUHFgTt2/fPnnyZL/fr08DTY/lZfjqwfJWpDZV2vaK66u0xsvTQj5NMN0r59dff93Y2BgMBmlmS2+J1tyM0WiUB5LzCHqvOAtzRZeXs6ibKnaXjZE3XYPlywJ9RZQvK/L54jSY9Lsod63e1M67+aTrrpSRDbB+jJoDa2I0GqU5JK0onC9O85h3nVL5zEGKXnGfzmy+P14+3782S4rOjY2N2Wx26dKl77//Pm3YmTNn6ukTSZpfngeDh8Nhatzd3d3d3d2csPn15abm5QMeXTRd/43Q+d06ypvFQD9Ikbe6PB0jpUksaUZ+3eWz2SwleCryFOVOvgQOD2kOrImU5v1+fzAYzLvGmLN510VOaqt7PV3Zo0zzdCOhwWCQ51u/+uqr9+/fP3bs2MOHD8+ePbtiVUeOHClnZueF1KatAe9Sq8hbA+H1Xs/3J5aseFn96dWB3jlw3hnlzf7snXyjpXo70+Pe3l66D2jq8o8//njF5w+wlkxoAdbHjRs3zpw5c/r06TyDpV6oizZP/2gNOSf1wHMttWnKyvriJHfv3k1XBpxOp+n+lPUG5MRv1Xk5e74zzVfsTuf29/YvvdKq56aY1lJHeVPNaWkW753U2eXpcCXPKcoXYKm3ajKZ7O3tpWuTX7ly5W/++gH+/zNqDqyPNNX72LFjw+Fw2ehvDtBeNa2l9JeGLVITb25uHj16tLy0Ylp+/fXXp9PpN998c/z48d9///3kyZOtWe9lWKeZHq3R6HydwdWarkuhz/cHy5tiWk65m+XH0nqy6SryFd/N0v8DlAdFyz66dHJn6nLD5ABGzYG1cv369e3t7e3t7a2trXxn0M6bg/YWL6JXBm5t2fNZTtVZcW+d1kXQv/766zR83uv10h0r6zRPX6ZtbtX5wbu8KQ5I6lHzZnlSt/alrvDO75Yva0V56yNtbczu7u7e3t7Tp09FOUBi1BxYK6PRKI3R9vv9MnabxZuDphfnGG2V918dsyibtdmfhp5vM9nsh+xrr702nU6//fbbzc3NdBWXzc3NOs17vd5kMilnZudAXx3lrTRvqp7uFaeudu7FshZfvZDkHC+v416uv/xyPB7v7u6ORqODXJUc4PAwag6smytXrmxtbZ06ders2bM5cDcKdQo3zxo1X6Yeac6PrZuG5hsMpQuP/Pjjj/1+P12Y5cSJE53NneZnp10ozzqtc7x8sh7bbroOS5pq5Lu8Z2e9R8uivLc/oby3eEOf1geVn5lOp+neTKIcoCbNgTWU6vyFF14YDoe5bvPjiquMr15tb3Gu9ooun++fKFnObCnrPL3gp59+OnHixHQ6bRbrOR9L5OV8gFFfC7wu9brIWwt5s1tRnnS+sX6y1eL17Uvzh9bsT/VJJwP81RsGARwe0hxYT1euXHnuuefOnz9//PjxVp3nMel6lLouy/KPZK7M1mPnk/mxrPOU5k0xinzv3r3t7e3BYFC/Mb13MpkMBoMTJ06Ue9Ha5rzc2phlQ93l+mudW1LubGuWfH5sfWjlJ5Dux3T69Omff/759u3b//z3C7CWzDUH1tPjx4+bpun3++fOnUvnUKbH6XSasjJ9WaZtPtUyr6S1vGwUOb1gxbfyvPM0+F2u9o033mia5quvvtre3k4zW+qVzOfznZ2dyWRy6tSp6XRaDp/PZrO8C2n7WxtTd3lZzOVjeWH11vY3+8PzZZTnb+XKrz+HFOXJiy+++NZbb/2jXyrAujNqDqytt99++8yZMxcuXNje3i6HzJeNl7cmhyQrxtGfubD6+Tr07969OxwOc6DXP3c2m+3s7AyHw8Fg0Dl8Xr9l2ZB5q8tzXufXtGbIPPPT7i3OYm+a5unTp+fOnUv/XTAejy9fvvzMlQAcctIcWGeXL18+f/78+fPnB4NBecuhg0xo6ezj5IAJ3iyeLrl6tkxe1b1794bD4dbWVuvF5dvT/wmcPHkynSFaHlfUf9XrUfMyxMvH+mel/2eojyLqDSvfcvbs2Xzy63g8fvTo0bVr15Z9mABk0hxYf3fu3Hn++edbFbui0Z+5woMMk7eGxuv1t/78ll9++eWXw+GwDvTe4lmeTdP88ccfp06dSlPVn7nNrSif789jyWsr8zotlCettnb25ZdfTpcwz2trXdB9Mpk8fvz4gw8+eOa2AZBIc+BQuHnz5sWLFztDvBXo6fW96saZpYMMk5fqY4DOtdXP3L9/vw70ctpJNhqNetV5mfV+zfdPLZ1MJr3FKeN5x/PCZDIZj8fl5RRfeumlfOXy+qZIuctTlO/s7Hz66afLPkMAatIcOES++OKL8s6geaEM9Pzi1X8e6/HyWv7ushH6+qd0/tD05MOHD1sTUVbvbJr0Uq6wtcudPy6neery8XjcNM0rr7ySXllGed3lKfpTlD9+/PjWrVurtxCAFmkOHDp37tzpDPT8ZZ48XS+kNXSOkTddgd4sTmX528PnrScfPHjQmh3+V5XvLZfTJu3t7Y3H4//85z/lAcZ8Ps/3VZ1Xp5BOp9MU5X/++acoB/h7pDlwGF2/fr0u8pbONC8XyoH2zlHzNJVlxR2Ojhw5Ul+xsTnAUHp+5unTp48ePVr23dYzrUOFco/Kg40LFy7kN5ZHI/P92eSt6y3OZrPd3d2dnR03EgL4h6Q5cHi9//77nVHe0iyJ8s45Kr3FMzXL5zvv7zOfzzcK+VCh3M7WH+qHDx8+ePDgeJder/fbb7+VbyyH81fsSJnj5Q8tH/Mk9XTjpLwLT548Macc4F8hzQHa3nnnndZoelm0y666ePXq1QOu/6OPPspdW3d5vbyxsbH6Zj3Xr18vA/3YsWNNdU3DX3755eLFi03Xqau9rjuJ1o/p/M6SYXKAf5c0B1hnN2/ebLpyPCkn0vR6vc7J9/mNk8nk3Xff/b/acIDDSJoDHF5vvvlm0xXon3/++X9vowAOL2kOAAAhtG82AQAA/FdIcwAACEGaAwBACNIcAABCkOYAABCCNAcAgBCkOQAAhCDNAQAgBGkOAAAhSHMAAAhBmgMAQAjSHAAAQpDmAAAQgjQHAIAQpDkAAIQgzQEAIARpDgAAIUhzAAAIQZoDAEAI0hwAAEKQ5gAAEII0BwCAEKQ5AACEIM0BACAEaQ4AACFIcwAACEGaAwBACNIcAABCkOYAABCCNAcAgBCkOQAAhCDNAQAgBGkOAAAhSHMAAAhBmgMAQAjSHAAAQpDmAAAQgjQHAIAQpDkAAIQgzQEAIARpDgAAIUhzAAAIQZoDAEAI0hwAAEKQ5gAAEII0BwCAEKQ5AACEIM0BACAEaQ4AACFIcwAACEGaAwBACNIcAABCkOYAABCCNAcAgBCkOQAAhCDNAQAgBGkOAAAhSHMAAAhBmgMAQAjSHAAAQpDmAAAQgjQHAIAQpDkAAIQgzQEAIARpDgAAIUhzAAAIQZoDAEAI0hwAAEKQ5gAAEII0BwCAEKQ5AACEIM0BACAEaQ4AACFIcwAACEGaAwBACNIcAABCkOYAABCCNAcAgBCkOQAAhCDNAQAgBGkOAAAhSHMAAAhBmgMAQAjSHAAAQpDmAAAQgjQHAIAQpDkAAIQgzQEAIARpDgAAIUhzAAAIQZoDAEAI0hwAAEKQ5gAAEII0BwCAEKQ5AACEIM0BACAEaQ4AACFIcwAACEGaAwBACNIcAABCkOYAABCCNAcAgBCkOQAAhCDNAQAgBGkOAAAhSHMAAAhBmgMAQAjSHAAAQpDmAAAQgjQHAIAQpDkAAIQgzQEAIARpDgAAIUhzAAAIQZoDAEAI0hwAAEKQ5gAAEII0BwCAEKQ5AACEIM0BACAEaQ4AACFIcwAACEGaAwBACNIcAABCkOYAABCCNAcAgBCkOQAAhCDNAQAgBGkOAAAhSHMAAAhBmgMAQAjSHAAAQpDmAAAQgjQHAIAQpDkAAIQgzQEAIARpDgAAIUhzAAAIQZoDAEAI0hwAAEKQ5gAAEII0BwCAEKQ5AACEIM0BACAEaQ4AACFIcwAACEGaAwBACNIcAABCkOYAABCCNAcAgBCkOQAAhCDNAQAgBGkOAAAhSHMAAAhBmgMAQAjSHAAAQpDmAAAQgjQHAIAQpDkAAIQgzQEAIARpDgAAIUhzAAAI4X8A82U4iR/Dn00AAAAASUVORK5CYII=;clipPath=inset(14.04% 31.67% 15.79% 23%);" vertex="1" parent="1">
          <mxGeometry x="-710" y="250" width="639.1999999999999" height="752" as="geometry" />
        </mxCell>
        <mxCell id="35xYCaBtxRfiESiEqBeb-2" value="" style="shape=image;verticalLabelPosition=bottom;labelBackgroundColor=default;verticalAlign=top;aspect=fixed;imageAspect=0;image=data:image/png,iVBORw0KGgoAAAANSUhEUgAAA94AAALwCAIAAADu3jqOAAAACXBIWXMAAA7EAAAOxAGVKw4bAAAgAElEQVR4nOzdS6wk153f+XPikc97q4oskkWxilSLUrsFNL0w0BujV17Ya3vTvRmp1RZAiWqJlFgiKZVEFkmJFPVgi3q0JD70bPG5MWYx48EMDNjAwD2YGQzgRa+1sBZuWLTYrPvImxkRZxbn5qmT5xWRefPem1X1/aCQHREZGRkRmU398n//cUIqpQQAAACA05ad9g4AAAAAEIJoDgAAAGwIojkAAACwEYjmAAAAwEYgmgMAAAAbgWgOAAAAbASiOQAAALARiOYAAADARiCaAwAAABuBaA4AAABsBKI5AAAAsBGI5gAAAMBGIJoDAAAAG4FoDgAAAGwEojkAAACwEYjmAAAAwEYgmgMAAAAbgWgOAAAAbASiOQAAALARiOYAAADARiCaAwAAABuBaA4AAABsBKI5AAAAsBGI5gAAAMBGIJoDAAAAG4FoDgAAAGwEojkAAACwEYjmAAAAwEYgmgMAAAAbgWgOAAAAbASiOQAAALARiOYAAADARiCaAwAAABuBaA4AAABsBKI5AAAAsBGI5gAAAMBGIJoDAAAAG4FoDgAAAGwEojkAAACwEYjmAAAAwEYgmgMAAAAbgWgOAAAAbASiOQAAALARiOYAAADARiCaAwAAABuBaA4AAABsBKI5AAAAsBGI5gAAAMBGIJoDAAAAG4FoDgAAAGwEojkAAACwEYjmAAAAwEYgmgMAAAAbgWgOAAAAbASiOQAAALARiOYAAADARiCaAwAAABuBaA4AAABsBKI5AAAAsBGI5gAAAMBGIJoDAAAAG4FoDgAAAGwEojkAAACwEYjmAAAAwEYgmgMAAAAbgWgOAAAAbASiOQAAALARiOYAAADARiCaAwAAABuBaA4AAABsBKI5AAAAsBGI5gAAAMBGIJoDAAAAG4FoDgAAAGwEojkAAACwEYjmAAAAwEYgmgMAAAAbgWgOAAAAbASiOQAAALARiOYAAADARiCaAwAAABuBaA4AAABsBKI5AAAAsBGI5gAAAMBGIJoDAAAAG4FoDgAAAGwEojkAAACwEYjmAAAAwEYgmgMAAAAbgWgOAAAAbASiOQAAALARiOYAAADARiCaAwAAABuBaA4AAABsBKI5AAAAsBGI5gAAAMBGIJoDAAAAG4FoDgAAAGwEojkAAACwEYjmAAAAwEYgmgMAAAAbgWgOAAAAbASiOQAAALARiOYAAADARiCaAwAAABuBaA4AAABsBKI5AAAAsBGI5gAAAMBGKE57BwBgOT/84Q/VnBBCWS5fvnzaewcAwOqk/t82ALghvP7661mWSSmllEII8yilNAF9Nvfggw+e9v4CALAEojmAG8Pbb79dFEVZlnmem2guhHBq50KIqqpms9l0Op0teuyxx07zAAAAaEM0B7C5PvGJT4zH4/F4/Kd/+qdlWZZlWRRFURR2HBeLuVwpVde1zuXmUZvNZl/84hdP+ZAAAIgjmgPYLB//+MfPnj2rE/loNBqPx/fff78ulot5B4vw4rg93TSNbmsxidyk8/fee+/q1auneHQAACQQzQFskEceeeSs5cyZM4PBwDxrcrkWvBJU0+lcl8+ddP7b3/7229/+9kkfGAAAHRDNAWyERx99VGdxHcrH43G/38+ywwFelVJ2LtfTwWiuQ7k94aTznZ2d3/zmNz/60Y9O5TABAEggmgM4fV/72tfsRN7v93u9nsnlYn6tp8+J5k4uN7NVVU0t//AP//Cb3/zmV7/61QkdHgAA3TCuOYDT9Pzzz589e/bee+81iVxP2DVyUzI3Ad0s0WMmCq+CLqzUrgO6lDLP87IshRB33XXX7u7uSR8qAABtuBsogFPzwx/+8M4779ze3h4Oh4PBYDAY6AkzcnmCvZ0u6VzTS/I8P3fu3Mc+9rFTOGYAAOKomgM4HT/60Y+Gw6Epk+uJXq/nxO4EZ2AWs9Ce8C8P1QF9a2vrjjvuOIbDAgBgdURzAKfg1VdfNbncpHPdbeJXxE03i93WYkfw1qq5zSw5d+7cCR4xAADtaGgBcNL+5m/+ZjQajUYj08cyGAx0vby1icW+HtREbREplgshzJWgvrIs6WkBAGwUquYATtSzzz770Y9+tCgKfWvPsiz7/X5RHP63KNjNYkdw4VXBY8Vys8Q0sfjuueeeYz9gAAA6I5oDOFH33XffcDi0o7m+6FM/6wzM4tTFnYwuFmO6WSK85hY1H6dFWHldKWV+EgAAsAloaAFwcl588cXbbrstyzIdx00oDxa8zasSVXN747GqedrHP/7xYz5oAAC6IpoDOCFXrly5ePGi7ho36dy/slN513faswnCK5bbfSzBZ5umOXv27EmfCAAAIojmAE7Cpz71qfvuu0+PWW5K5vp+n34ut0N5sEDuPOWs05rOg68CAODUEc0BnIT77rvvzJkzdijXE05dXITGQDTPJiK1Xz4PvsTJ67pwTk8LAGBDEM0BHLtHH330rrvu8kvmsXgdXJjmvESEwrqz3AT0Yz9+AAC6IZoDOF5/8Rd/ce+99+pRWZySub9yMFUHpWN6OpSbXG7GVTyugwcAYBlEcwDH69577x2NRrpkbl8D6qymFjvF7eVdyuT+s7GxzIXXht40zTEePwAAnRHNARyjhx566Pz588PhUN/sM1YyT0Rt0aGnJfhaEWpbd15I1RwAsFGI5gCO0cWLFweDgV8yd24tZL/ESdvB3Nwa02OVcjuUx8I9AACnhWgO4Lhcvnx5OBcrmfu53Ex0LJP77HJ4MKPbjeZUzQEAm4NoDuC4nD17VpfMzY0/7TuAingub5UO7rE0H6yaL/W+AAAcK6I5gONil8xjdwA1/NnVquZ2Odzh5HKz/DiOHQCAFRDNARyLp59+WpfM8zz3x2ZpzeXLvp3J3LGBWcyzdV0vlfUBADgxxWnvAICb02AwcErmZiIRxJXXay66ta/Yq6Wr5nVd13VtJ/h33nnnBE8MAABRVM0BHIvhcDgYDMqybL0DqD8dXJjWJb7rkrnB3UABAJuGaA5g/Z5//nldNZdziTuAan5kT+fmdASPVc1NLq+qimgOANg0NLQAWD+dy8uydFpZnNX8MrndmmKWxDpY7O3YoTz2EjuX6wlyOQBgo1A1B7B+w+Gw3++nS+axXG6v0CU6q8URyhNVcx3KTS6nag4A2DREcwBr9p3vfEd3mZslznDmIpnLnbp4onElWCaPVc39RnOiOQBg09DQAmDNBoNBr9czfSyGflYlr/sMhvLYG6Xzul8y9zGoOQBgo1A1B7BO3/zmN3XJ3Anl/m2GWgvn9pp+Ru9YRA+WzE3VXE8f5/kAAGAJVM0BrJO++rMoFv7bogO6H8FFtwtA7ZXTZfJY4dxc+ml6zc1yBjUHAGwOquYA1qnX6+ku82A3iyMY1kWHqnmsTO5ndLtkbi4ANYXzqqrWfwoAAFgV0RzA2rz44otlWTrdLE409+N4rEweS+TOUOXpOnqwy1wvr6qKkjkAYKMQzQGsTb/ft3O5mNfORaguHpsQSw7SEkzk9sJYNKfLHACwaYjmANZGl8zNrBmkpfWFymo0j4Vye+VYKPczenBgFt3cQskcALBpiOYA1uO5554ryzI4ZmJw5EQRqpQ7sx0TeePdbMgvmTsXgDJsIgBgAxHNAayHM2ZiomTeGtBjhfNEmVwt3mzIKZk7F4By9ScAYDMRzQGsx2AwKIrCvwA0VjK3ObE7uLALp2ruh/J6fpshulkAABuIaA5gPYbDoZhf96lL5lmW+i+MmveXO0tEssU8NiqL32se6zKv6zrxIwEAgFNENAewBs8991yv13MazYNrBmOxSeGxRB4rpcduNqRCA7NogpI5AGBTEc0BrMFwOHS6zJ2SuQr1lzuF80QEb2Vn9MTYLHqFkzgjAAAsj2gOYA0Gg4FJ5MuWzJ2nOgbx1owevAZUUDIHAGwwojmAo3ryySfH47HdymKXzFtjuimW2wnbXq171by2bifkF84ZMBEAsOGI5gCOajgcxkrm6VuBisWA7qzTmtHt4cztenmsocV/FwAANgrRHMBR3XbbbcGSuVMvj8ViO4In6uJCiPTwLH4ut1tZGDMRALD5iOYAjuTxxx8fDAZ+yTzdx6KsDhazXHltLV34uTxYMrffCwCAzUQ0B3Ak29vbfsk8lstjlNfWsmw6T3SZ6+WCkjkAYOMRzQEcyd133+0MmBjM5cobLdEpnPsT9mudIN5aOzehnDETAQA3EKI5gNU98sgj0tP95X6x3MzaggvtmO7ncmdCUDIHANwIiOYAVmeXzP1cbpbESubiaLcZckrmJoj7veaUzAEANwSiOYDV3XbbbcFc3rF8rkKjKJrZYIHcn/UL53SZAwBuUERzACu6fPmycwGondET/S1dCueicxE9MTyLnqZkDgC4URDNAazo7rvvNld/6gmxmMhbC+d2KBfxWxElQrmTzp1LP/UjJXMAwI2CaA5gRaPRyB6bpUu93OYE8Vil3F7Bbl+xQ3msoUXfARQAgBsF0RzAijKLHcqFlc6D5XMp5bIF8u4NLZTMAQA3LqI5gFVcvXrVhHIz4feapzfi1MWDz7Z2s6j4laD+NgEA2GREcwCrOH/+vJ/LRbduFrV4Gai9pGOZ3EnkarHd3BTOKZkDAG4sRHMAq3C6WTqOzWKo0PAssTVV5A6g6YYWPWwiAAA3EKI5gKU9/PDDeZ7HSuYi0s3iL1HelaA+4V0Dmi6cm6o5JXMAwA2HaA5gaffcc0+wZL7U2CxdCufd+1vskRP143oPGQCAE0A0B7C0fr/f2s0SC+jKu+unmegexFXo0k+llMnlb7/99nGfBAAA1o5oDmBpeZ47w7OIxSaW1lyuvCtBY+snulkSDS1rO1QAAE4Q0RzAcp544gk7ly97AagIFc5j9LOxa0BjuZwLQAEANyiiOYDlnD9/3q6atw7PYqaV12IuQkMoinhY9zN6sKGFbhYAwA2KaA5gOTqXOyVzJ523biRYOBehS0KDoTw4QgsXgAIAbnREcwDLybLMpPNlu1laC+fBlyRCud/QQjcLAODGRTQHsISnn356qW4Wm18Ot6dj0uv4dxqimwUAcOMimgNYgh420aRzJ6OL+DgtTqXcXx4Ui+N2LncC+poPGACAE0Q0B7CEPM+X7WYJhm8VuvrTWUEt3go0ltHtO4ASzQEANzSiOYAlrNbNoiLN5So+JIuzfqJwrvtY9MQ777xzzCcAAIBjRDQH0NWzzz6ru1n8gVn8bhbR1ruSbmURViIPLreHTWQ4cwDAzYFoDqCrfC44bGKXsVlEKKA7+dsvnMcK6nYob5rmzTffXOfRAgBw4ojmALrSubwoCimlfQ2ofjZ2AagIFchjtXA/o4t4u7ndykKXOQDgJkA0B9BVURRFUdjDs/gNLXpNp+ZtttCxp8UJ5fZCu93caTRf9+ECAHDSiOYAOvna176mo7kdyv10nqBCF4MGy+HOak6+F/NuFhrNAQA3GaI5gE50Li/L0oRy080STOexAnmsUu6snO44d0rm3GkIAHBzIJoD6KSYC95pSHj95TY/lwcDeqzd3K+vUzIHANyUiOYAOonl8kS93G5cEclLP4MtK8GGlmDJnGgOALg5EM0BtHvuueeKouj1eiaXp7tZjFh1PPGUE8r95SaXm5I514ACAG4ORHMA7Uw3i3/1p/DuNCSSoyUG+1WCrSwilNTtVhZuAgoAuMkQzQG00xeAxrpZWl/esdfcPOU3sZh07oTypmkSmwIA4MZCNAfQzulmCXJekojjwbbyYOHc7zh3Wsy5BhQAcDMhmgNo8cILL5Rlqavmfhy3c3mXPpZg+7jzkuA1oHY3i107f+utt47lsAEAOHFEcwAtdMnc7zJv7WbpXjgXoZFY7Olmkbn6k5I5AOBmQjQH0MJuNJfWzYa6BHQnYdsTsT6W2AoqNGwijeYAgJtJcdo7AGDT9Xo93WjescvcCF7HmQjTfli36+WxhpZ1Hy5ucs8//3xZlnme21+kr3zlK6e9XwAghBCSmhOAhKeeeuree+89c+ZMsSjPc3vAFr2yE6lNqTs24VzTacfuqqr0o+3g4GAymUyn0+l0OplMDg4OXn/99VM9PbgxvPTSS/qPP5r+Ajfejav8JXVdX758+bR3H8AthKo5gJTbbrvNNJovVTLXlmo3F4uFc1Mst2dNYKrrmsoCEl5++WWdwsuyvHTpkpnWJXP9y9D+ERh7/N73vqfXfOyxx077mADc/IjmAFJ6vZ7daB5L51Iu/AnO1M7t2eCE8AYyD/aXx5zIOcCN5M0339RF8QsXLuRzWZaZiaZpqqpSSpk/++jpxKP2rW996/HHHz/t4wNwkyOaA0jRJUYzPIsJ6EKIWMnczuXBLnMngvsvt/vL/YxuSuYMmwjtjTfe0LeqzbJsOByaIG6HciFEXdez2cy0rCwbzXU6r+v6y1/+8mkfMYCbFtEcQNR3vvOd8+fPr9DKkqiat/ax2LOUzBH0gx/8YDQajUajfr8vpRyNRuZHo5PI7Z5y/aPOzJportdPR3Pz1kqp559/vq7rJ5988hTPAICbFdEcQJRuzO3SaL5UN4vocAdQH9H8FvfNb35zNHffffeZP+aYP+mYCZ3IpZR2mdxP5040j1XQzQ44X8hnnn3m6lNXT/GEALgpEc0BROkr52LN5V22sFrhXHk9LX4up5vlVnD16lUTxz/4wQ+ORqPY3a/saK7mg/84ZXJn1uR4O6Y70Vx3wgR/KO6X+6d9egDchIjmAMJeeOEF3c0SvABUryO9a0DVYqO5vVC0Fc6D03Sz3Goee+wxncXH47GO41osiwvr+6Yv8bQHQDTTfjo30TzzKK/L3P5CSinrvJ5kk4/99cf+9tG/Pe0TBuCmQjQHEGZ3s3S8A6ify+0aebpw7sR0Z4kdynW0Op6Dxil4/PHHy7Lsz91///39ft+kc/tLKLyx880SP4v7ubxZvFOVHq3FLpn7Ad1J5EIIvTOTYjLJJ5NscqpnDsBNiGgOIEwPm+jXy5fK5eapYOFchFoF7ODl09GKbpYb16OPPmpu/aOz+B/8wR/0Pb1ez/8yBP/A0jGOm4Qt5vHanjDPmhRuormetR3kB/vZ/iSf7Gf7//zlf/53n/q70zyhAG4uRHMAAV//+tfPnz8fLJYHc7kWy+XOCsIbOdHP5c5yk7G09R8wjs0Xv/jF0nLp0iUngjs36dQf92w2c4K4WPza2N+KWC53yt5KKadBS8zTuTOtK/TOwsPVpJjkE53LKZwDWDuiOYCAZUvmMcsWzv01nWhuuhGwsR577DE7i99zzz12/raDuJnWvSVN01RVZQrk+lGEorn/hxQ9YadwP5T7Edyng7s+kOAKppXl8DGb3PnrO//7//TfT/GEA7iZEM0BBBRFURRFsGRu5xthDdXil8wThXMVIhb7CpwQZu6d/vbbb5/kqUCa3aBisrj+8mRZZkdwO4ubwX9MjdzEcWdCeP3lwTieCOUimcVNIrevKzWcNF9ntcnl+9n+fra/n+9TOAewRkRzAAHmGlC/pyW4fpdcbpfD7RcG2bHMzuWUzE/d5cuX7Xj9gQ98oJgzVWezJBjNhRB+BDe/wZyFwrvQ066prxbKzXLz9dYT9mH6LxdCTMqFRD7JJ1M59b/VALAyojkA13PPPXf77bcn6uWOWC63s3gwoNtZSoQSmA5Yur/ctDoc+/FjkW4WNzn77rvvNtMm15p0aydyO5oXRWF+ZXXP5frjNksSKdyfjcVxP5HLeXO5ZkdtewuzYqY7WHTh/CA7aFQjG1lU/C8pgLXhPygAXKb9t2M0F5FByu1n/YlgLg+mc7tkTjfL8bly5YrzWed5XpblhQsXTNTWo4A7cVyv6Sdyc1mnvitnawoP5vIuKTwdym32btsHYk6CWiyBX//a66s/57m8VrVUUv8b7g9P+qMCcPMimgNwOc0JfulRLN5syI/jKlIjtydUiFMf1alO53K6WdblS1/60mg08mPr2bNnzbRJ2OaOPH4cN70rTiI3d9AUQuiPz/zFIx3EnU4Vs8PdQ7mIdLAEy+R+c7mKtKZIKSfFRPexVKIyoVwIIRs53COaA1gbojkAl7lEz6k1ym6N5n4WF8lcLiKtLKZkbrpZ3nzzzeM87pvNo48+ev78eX+knbvvvjtSUz4M5X5ROTjrJHLzUTbzPm8hRF3X0+l0Op0mgrgz4efjLqFcKWV/S1sTeay53CelbLJmkk1mciaUEHotJYQSUsnB/qC331vzJwfgFkY0B7DgmWeeuXDhgkk55s/9djSXVuHcyeVmO6qtcO7kcidvadUcJfO0L33pS+fPn3d+UN1///2JCG6IUJBNzNqXeAqrOi68H2BN08xmMx3N9VAq6UTuf4uMdCh3jigWxJ2FzvZj51ZKOc2nSilTLJdKSnG9m6XcL9f1OQIA0RzAAlMyD3azOIK5PJjFRaheHozjJnI5JXOiufb5z3/+jjvu6Pf7WZaZzu977723Swp34rhYDOWtNWbT6SS86njwm6BDuU7nVVWpSL3c/sKIeDTvGMpjQdz5pZF+O4efyPV0b9or98tyj2gOYG2I5gAWmGET/XSuV7CDnQjd19Nsyg/rThz3l9gx3eRyXTJ/6623TuocbJAnn3xyNBrpCK4fP/KRj9gZdLU4LqxQ7kRzP6br93U+L7179kJ7Vv/FQ3ez6Gjuj1zufBOMWDQXQjhR3k7k6R8V9jG2vpf/1sF6uVRyuDcs90qq5gDWiGgOYIG+jM/Jc04u1/yUFsviIl4st7O402Jurv68RbpZHn/88e3tbZPC9cRdd93lBGXnUcTvpyOsz85/jMVxO8KaD6iqKhEP4ubRfF7ms9MTVVVNp1PnKk8/lGuJheZVHYO49CrosTeSkT8KHe5kI5x6uVQyq7Nyvyz3S3rNAawR0RzAghXuNCTixXLRoWTu9xDbJfObtZvl6tWrTgr/wAc+YM/6QTxLVspFKH8HA3oijptPwbnLpkiOW+/8lApOBH+S+acluNBevlQQdyacbSaWqMUfmVJJ++pPPa27zGloAbBeRHMA1z377LMXLlyw+wT85CcWLwAVoVzu57lgyHPiuGl18EvmN0E3y9NPP21id57nZ8+etYO4kyljubx7UTz46GdxaQ1/qQO0iPxkEqFcHovj5rHxxia3N+IILnS+jYmfK+lZf7MdPzhlN7TY3Sw6mu+Vb7z1RsdNAUArojmA64qiGA6HXUrmTgQXkTguQkE8Fsrtbpabo2T+xBNPDIfD0WiUZdnZs2edMnk6VjqPsRS+QigXofAtQp9RbIVgCrdn7QFbnNeKSATXy+1vnX3gHU9X8LyJeBD3l6vF35ma32veP+j39nrlXjnbm6345QCAEKI5gOv6/b4fjPRT/kQwlMfSeXd2vdzc1P1kT8ORfPazn9VxfDgc3nPPPfq+qok2lUSmdKrjieSdDuVy/lcOtdipIjp8NHY6T2Rx8ztKRerrTuQ1035F3Pn6dSyQ2wud82beKPaRmfPjLL++50o46Xy4Nyz3y2K/+NWbvzrS1wUAFhHNAVy3tbUV652wBbO4PyHakl+sZO50s7z99tsnfSKW9Jd/+Zd2HNcTvV7PTpDOWU3PisUo6Wf04BJn1jSTBFtTgkv8sVOUUrPZrKoq/RgM5Trui2Q/un0gjtipWKp3JXZ+/DPZ5QPVZ88+CbK53s1SVIXuMn9v970jfGsAIIBoDuDQM88888EPftBPSyJUMheR0rhYjH2J2WAuN90splNZt0Zspoceekgn8o985CM6jvf7fVMdT+fO4BIRGpvSvJ2TOMViVdhZwdziJxbHYwvNS+q6ns3FonkikTu71Hrs9pJl/7DgnMD099afVfF6+fVobnWz6C7z/d39N96gyxzAmhHNARwaj8fB2OSvaQc7s8Rf7ucbP/85C53R9zbwAtBHH33UFMj/+I//2NwaU484uUIoF6G+FDvamre2g6b90Tiz5vTGBitMfC52Itdx3Inm9p1Zzdb8nfRD81K5PBHKHcH3EqFQLr1vsn2enYXRaK6kUGKwPxB7Ym9vb+VvEQDEEM0BHDLdLOkucz+F+3FcJNN5Y916JlYy1/lvQ0rmV65cGY1GvV6vKIoPfvCDhSUYHFt7V0SyTVxEquaiLZSbWGnGugmmczumN9a9V4Nx3J7WiVxKt04v4ok8eAZip6i1QB57C2e5cw5l6OdNWuBc6esdlBjuD8u98ne7v3v99de7bAoAlkI0ByCEEE8//fR9993nJyd/zWAoj6VzP5QncrkfzU/xAtCrV6+a/H3nnXfacTx4QWeXACojcVwu5nKx2BBiL5TxUC7n7dHOozMrvGErY3HcUNatN/29CmblxBnwF8bK5DKSxWNvKuK/cJwdVl6x3Bb8GXP9AtD94c7ezu7u7hJfJgDojGgOQAghtra2YunKWdOuuabTeUIsmjvDs5zKBaDPPf10Phhsb28Xi+yWlXQoD17TKeNx3D/JZokdIuViEHemzTlsTef6IwimcDujm3ePBdyYWCN47ETZ0Ty45Y4Lg7vq7LOZ8NO5WRj8xupBWspZWe1Vu7u7lMwBHBOiOQAhhBiPx9kiO/8ZTnYRkRq5SKZzu78iVjU/lZL5dx5/XF64sHXbbYmWlY6hXHSI4zKSy0W8am6vY97UPqt+ELcndBN/LI5Pp1NzztV8iHFnN/yIHDwPreus1j6eXu7vavCs+suddWKkkoP9wT/s/gMlcwDHh2gOQHzlK1/50Ic+FMw9Dj95i2VK5n5Diz1dLzqxC0B/8K//tbx0SVy8OP7QhxItK+kRQuyKr+gWx6UXzdOJPPaJ+HG8DtEXcTpZXE+IUO4XbYm8Sxz3V040+ay2UHYI5c4ZSz8b+xpnTfb+7vu7u7u//vWvE1sAgKMgmgMQ586d61Iy11ZO5411xWGQ02h+Agf+yr/6V/LixeE//afy4sV8MIi1rHQftk8sn85VqGUluFB4sVLNb8zpDAbvh1PTiIEAACAASURBVHIz7oqJ4/XiYOQ2GUnkq2Xx4InquLzjwuC56k4mW1mM2e5sZ2fn2rVrK7wFAHRENAcQbjT3V/ODuL8wJtHEcirdLL/60z8Vly4NH3hAXrokzp+XRSGXD+UiXgjvMqvJUPKWixndPpNiXimv5hK53A7lWrM47qFzWoLBt3sid1pWnPae2KN/PlsX+mdSrhTKHalcPpu9//7777//PmOZAzhWRHPgVvfEE098+MMfDkYfh5MO/aQey+jpXK6sTugTuAD07X/2z3SlvL54MbvtNlkUcjaTQoiylFkmy9JOmYnx+8RKcdx+DJ4x/wQ6Z7uZXyxbefwKuulgEYtxXEXaV4IhO83uxbfjePpc2SchdjKdb2Ns4VG+DNL6q0UslDdNM51Od3d333///ddee+0obwcArYjmwK3u9ttvzzyxxNMlnTuxxuljiQV0p2p+HEf6P/+TfyIuXSofeKC+eDE7d66fZXI2E0KY3Hf4f4tCFIVdRxfdonaXhZr9s0Qko7kza2K3n8uDGd2P43YodyJvaxx3UrgzEczQolsQDz76e+hvfI2Cubyqqul0ur+///7779PKAuAEEM2BW9329nawHumLJfJgKFdesdwJ6H4uP747gP6vFy82ly6JBx6oL17Mz54dSykODmRZmgworQnz2PT7Ih7Nl1ponyX/zwVdcrndwZKomtunVERCeZdEnojgThwXi3F57aE8tsJ6Bb+9pgtIl8x/8YtfHMdbA4CNaA7c0i5fvvyHf/iHwVYEn8mLsWk71gRzuZ/I/ZJ5vdY7gP7v587Vly41DzzQXLqUb29vSZlPJqIs3Uq5HaN1aM5zIYQdzf01EwsN+y8AwU4e5zEYzYOlcXPe7AK8/4mIxVAejOOx5B2cEJEsfhyh3F7iUIs9OUdnn3ldLNdXze7u7u7u7lIyB3AyiObALU13s9gRLdeR1KM6l8ydiBnL5c6s3YaxlkP7D2VZX7pUP/BAc+lSsbU1kLK3tyfL8jCXe5Vy1TSqrlWeq8GgKUu9XHnRXCT7p8ViZLR/vQRzeTCgN1aji6mO+xVxEYqnwZ9MdhxvTd7BgC7a4njwzARPUfCk2SunZ+2fGcFTvQLn62oPLjmZTPSoLAyYCOBkEM2BW9q5c+fsUK5HDwyu2ZrIW3N5MKCbJGq6zN95552jH9d/uOsuXSkvx+OBlIPdXVkU+hJPO18fHlrTqKpSWdb0emo4bPTzQjRCdInmKlSfdiZifytIB3S7KO5LPKU30j15Bye6EIuRXSRDub18tdmOlo3p5ptZ17UplptWFt3NssJuAMAKiObAreuRRx756Ec/mi/STymlnFQUTOQilM5jEjlyjReA/qfxuL54sXnggWI02hJiuLtb5LmcV8HtrHeYyPNc/2uGQx3H9Zp6QoVuJOScEzPtTJgV0gHaT+T2CJKJCB5crhO5/ii7RPBl47iIlM/9k9N9tsuaKlQsl4uF86AuMV2HcpPIzePe3p6O5sc3XhAAOIjmwK3rIx/5iM5w5qb0ernO5XY6V16PhF8Ub0IFcj+d22nVCaNHj+b/6eLF+oEHyuFwW6nB7u5ASlGW1y/3lFJKeb1xJc8bnct7vcNcbtXL9Usacb3d3D8VzoS/MBHKG69k3ixeC9uawu2FOl4XRWECtx3N07l8tTgu1l0RT8+2ikV2uTg8ov9Ck8vtWzJNp9ODg4OdnZ2dnZ1f/vKXS+0JABwF0Ry4dZlEburlOjebXG7SeSxh+4E7tlosjNrRvGmalcuT/+e5c82lS70PfGDQNDqU53kurA4WvRNqNjNlcpXnWVE0w2FjUrhVL9dJXc1Pi+iWxe2JdJhurGK5PSRiawq36XhtJ/JYLncCemsKF1YcT0yL+UkLTh99tjVtyw6F8+AGxfwCAKdYbo/Ksru7+7Of/azjxgFgLYjmwC3q+9///mAwMFVzuVgmF1btXIRq5Omw3rqaHz1XLpn/XVk2ly717r57UNfD3d2BlGWWyaI4zOXzxpXDAnmWXY/m/X5TFGKewoVVL1dF0QwG9XgsQq3krUndP8AYO5HrQVdao7mat6yUZRnL37FoLroF7i5JXXRO5MdaLHde2z2y6++h38RiWll2dnZeeeWVlXcGAFZDNAduRS+++OJwODRVcx3aDD+jJ3J2LJQ3Xsm8Waya28tXjub/11139S9cGFTVoKoGUg6F0GOwHO72vHFF5Xlm5fKmLA8v91ysl1dFoQaDemur3t6utrZEWy4PZvRgBPcDtz08ucnliWguF1tWEnVx85RcbFwR88MUS5bGO9bLxfrCejBhL5u85fwPPmbCvNDkct90OtUDJv74xz9ObB8AjgnRHLgV2X0szmiJarGhxc6dfuaOZfHYCo3Xa66nV+hm+X/G435Z3i7EYDYbSDkQQl/uaRJ5YzWu2PXyZjCQZbnQtVIUajCodCLf3l4hl5tjbL18U/8IieVy/1U6WPd6vaX6Vfxiua17aTwWytdeL0+k8+6CcdyesL+NThx3RmX5wQ9+sOy7A8BaEM2BW86LL744GAycSz9FqNHcflUweTuF80Rqj4Xy1Urmf18UtwsxnE4HQgyk7Ot4nef2iCuZlcsbncv15Z5S6vYVVRT1YFBvbVUmkW9v11tb1daWWiyEJ7K4sNpXnJFV/LTthHI/l+t1lFL6J1OiZaVLItcLgydwhTL5CdTLY7vqx/TWFC68ermTy6dzTjrf39//7ne/27pXAHBMiObAreWFF14wrSz2pZ/KGy1RLN7JMhjK/dnG63JpFi/69AO6Sa5d9v//G40GSo3KcqjUUIihUr3pVAghZrNApXxeL8+KohkMGiGkEIddK1aBvNraqs3j9nY6l/tMIk+UzO0CueHkciFENm9ZceriieSdWBgLvvqz7l4mX2+9PJ3Oj57CY2Vyo6oqv4PFpPPd3d3gSQOAk0E0B24hX/va1+xcHiypKq+VRSxe3ehn7mBYt1drvOZyZ7au67feeqt1///fO+8cjkYDpfpC9JUaTKc9E6SUklWVV5WQcmFgRF0sL4rrXStbW3Ycv14v394O5vKEZnHYx1jJ3A/ldi7XMdoUyIOhXIaGIU/H9Ng5VFa79lLp3GzhmOrlyuoFdybEkcvkhj1Oot/TQos5gFNHNAduFc8880y/37cHTPTXUWphVBb/2WAKT8z6ZfJm8WLQ7t0s//cf/MFwNOrPc/no97/vBwucSsmqklWVSanyvNrebuZdK/U8f1fehJ3L03HcDnm2YL3cT+Q6lOvLOk3LSqx3XC6ORC6Tdw5qLZb7n2lrmXy99XJ71v92pXN2MLIHJ9IfmTNCom0ymdBiDuDUEc2BW4Kul/f7/X6/3+v1yrJ0VtDZJZjLnemOodxO5E4cD1bNEzv/v3z0o+ez7DCXKzXY39/6H/8jnMvtI8rzYAoP5vKm14tV/f2jrj2xDhYnkTdNYxK5k6r9YVW653Jnwk+9wY9S65LO7ZWd13Z5Kii4QjCXd5xIh3I1H8Lc7jJ3YvpLL72U3mcAOAFEc+Amd/Xq1X6/PxqNdCi3c7kdXOyo5Kdzf/1YKE+XzNVi1dyE2kSa/N/+5E9u297WlfK+UqPf/W7r3Xfbc3lRdMnleuTybG9PCSHrusnzJhnyzA6nS+ZOKBdCZFmm47hcvONP7J6drfnbn21Nw8GTHCyTO6F8jYk8vXur5XLR7Q8diaESv/GNb6y82wCwXkRz4KZ15cqVfr+vi+W9uTzPgwVRTYcYf6E97YfsYFgPhnL/JTraxoZN/D/+xb/Y2trSTSzDnZ2tZXP5mTOxXK6KIptO5WymiqI6e1ZMJjLPRZ6rPK+zLHggdoE8Fs3tGrkOzf1+387iTjTX9fLu+dtfGPwcNWd57PdPLJQfUwSPWXuZvDWXz2az/f39b33rW2s/FgBYGdEcuAk9/vjjulLeW2Q3IvvxS0WaWGzB1pTgrA6sKt7TYida/41+9C//5Yf7/cMmlroe/+53S+TyM2eiZfLRSDRNce2akFJlmSrL2dmz8uBAVpXMc/1P5HmT5/bvDL93xc/lOpE7LSt+FvejeSKFJ0J5rKSdWJjgp/Pgdo4jkRuqQyu5WKZMbudyv31lb2/v2rVr3/ve947viABgBURz4GbzpS99aTAY2Im83++X87vWa7FcHkvkZp1YIg9Gc5PO/XWUVYf2G81f/jf/5kO33aabWIbvv7/dPZeXZbRMnufZZCKnUx3KhZRNv1+dPSvrWuzvyzwXRaFzuSmfN1L6BfJgOldK2S0rDuHVpJ32ldZQbs/ax7tULo8tV/OxFINx/1jjuLMPrRMrsIdKNHf6vHbt2re//e0TOC4AWBbRHLhJPPbYY7o1wm5f0ez7CjlNC/ZEOpeLUMk8kdTrxUG7VaRk7nezvPaxj106d06PjTh+990VcrmdyJvhUNZ18f77IsuUlOaxGQxUryeaRk4mpl5u/8uyTFSVahqlL9+sa9k0sq5F06i6PjwGKUVRmB4hJ4UHZ7O4dCj3j3ctudyuSZ9MCo/thlhT74qtXhwqUVfKKZYD2GREc+DGdvnyZX1rz62tLZ2u8jx3mlj0msGyaPdcrpYvmTv3ufRjutPN8qW//MuPDocXzp7VYyNurZzLz5yptrdVluX7+/nBwWEizzJTL6+Hw0bn8qoSStnFcv2YC1HMZrWVyDNrWj82o5EcjdLVcVsilCcK5+vK391XPi3BXC5WLZY7uVxXyrWf/OQnp3yoABBHNAduSF/4whcGg8FwOLzjjjtM8jMpsCxLPRKLnRHNa+1cbtJPa1DrUilXXjeLfxd6/1Fv/ysPP/zHd955Rsrh/r6O491zeVOW9fa2bjFv+n05mxXvvSesLK6yzNTL69GoGQykUkKpYMm8aJp8NqvrWqfwbDGRy7oWRVFvb4t+37mmNpjLg70rrZxPytb6SR19hZOn1lQmN5qm0R0sOzs7JpR///vfP+0DBYAWRHPgRvLII4/oRH7hwoXYSNg6EeomFr/sas+q0CjX/kIxr1x2bGVprFZsv3Cut29W0zcBferKlT++446hEOZyz+Vy+Zkz1daWkDLf3c339+0y+fU+Fl0v39qqh0PRNKJpDq/+LAo7l5d1nU2noqqyxUr5YUBvGrW1pQYD0e+LwSDvFso7kqFucv8DSp+NlV8e/NxPzFrK5LbZbLazs2PncorlAG4I4f8ZBrBRPve5z+lEPhgMzB3dnUTutEBIj11WN+sEHzX7Pw5dKuVmBXPhnZ4wbeV2ctrf359OpwcHB/fee+/29vZ9/f54d3d7hVze66lez29Z0WVyZ7ba2qrOntX/ZmfP1nle5bn9mFVVNp1ms1lT1/oWQbr4r6dnvd50e/tga2u6vT3d3q76/WAo757Clwrl4gix21lhA/+zv5Y4btiJXPv5z39+2ocIAJ1QNQc2mm4lv3Dhgh4e2w/iZkJ43eTBXC4Wb/wZfHT2IR3EYyXzxuo498NT0zR33HHH9vb29vb27WU5/t3vlsvlUqo8l1WVTadiOjWL7cYV57rP6swZ3cQiIq0s/ek0m83y6VRUVbXYyiKkbLa2xGCg+n2hS+ZeN0s6fAeX29PpuHzE1H6UlY+JOV7zRfK/Icsm8qZpdnd3d+b09Kuvvnq6RwoASyGaA5vo4YcfHo/HduNKMNIJ7z6OZguxerl+VkeZLntiQk9rLjcbdPZNSqkvyMvz3KSoixcvbm9vb21tFUUx+m//rT2XS6mKQuW5+Zfv7cmqcvZW6k4V7yiqra3DJpamkU0jqkpOJuaiz0zKYjrNZzNdMq8Xm8vVcCi2t3UcF/NWFlmWWSSUt6Zw5yXm8+rycQSdfNTu+OWJvVBZjSv+X1RWyOVOKNd+9rOfrfOYAeBEEM2BzXL58uWtra177rkn1rjid1CIyO0bY7lcLF4Amt6f1lYWnY1MPV6/Ks/zwWDQNM3BwcFkMtG3xpxOp1VV3XPPPVtbW6PRaDgcSinzpimVKpXqT6ejnZ3x73+vc7nKMmGC+GIoF0oVu7t+Lk+QSsVK5rkQvXkoz6dTVVXXr/vM89oK5cqasG/hmU7eidWOHqnXEspXyNkd39cJ4sIL5c7jCrm8aRpTIDd+8YtfLHtEALAhiObApnjiiSfOnDlzzz33JBK5WLxxo/CaWMzWErncrKCspgKzXFk9LSb9+AHdfheTk5yFQoiyLPM8Hw6Hk8lkMpncddddw+FwNBoVRaH3rajrUqlCqeuPUlZnzwZDucrzbDrNd3dlVUnvRkUpVslczmayacxgLNlsllkl88oUy7e2xHgsrA6Ww4miKIpClKX90XRP5GbWPuFLHMjiJ7jsS4Lvta6iux/BgwvTv/G65/JgKP/Vr361lmMBgNNCNAdO31e/+tUzZ87cfffdwagn4nHcr4Xb04lcbq8fDOhasK6pt6ysQe7Ma+1QLi1Zlo1GozvuuGM4HOpiuVmuS+bmX6HU7Ny5YChXeV7s7sq6XjqXO1Xz/X1ZFGI+GEs+nWbzXK70lns9XSw/LJP3erIopBB5XRfTaTYYKCHUYCBD0bzLY/BTWLtjTeGiLXzHHhO53C+fx9R1rRO5nct//etfr+vQAOAUEc2B0/T000+PRqPz58/HkpxdEfdzufDClpmN5XInjgtvwEQ7cimridy8nQnlZh01v9O7rqabaTuC61De6/XkIqdkrkajmR/Ki0LWdW7l8mWj+fWquR4wMc97VXU9lE+n+WwmZ7NKqUZ3sJSlzPNcqbyqiulU5XmTZSrPc53LpVRSisGgSxZPnHnfGqPzETcV28/uQdxfaC4UTuTydDQ3odzk8ldeeeUohwkAm4ZoDpyOZ599djAYnDt3LlFb9SN4MJ3b7BWcXJ6IiXY6d57K5oOH2FlchFKXeUczrZN6WZY6l/vt8jqaXy+ZCzG77baFtvKiUHmeTSbZdGrn8hWq5naXec8qlufzdF6XZTMa5U1TzGbNwYHKc5VlOpE3WaZv4KSkVEIc/tPV9MhPKV/w94+/TvdIfUzldnvjy4bv2KOdy1tL5sF0Xte1ieP68bXXXju+wweA00I0B07UlStX+v3+YDA4c+ZMolIurWK5/xjL5cKL5vbC4MrBdO68o4gncjMRK5n3+32/WG4fZmmVzA9bWfJcmIaWLMt3dg7juJ3L583uXemS+f6+zLKBCeXTaTabmVV0dVzH8SLPdSLXE7LXu57IdUDX//p9532cXzi+1oDeMZ37v6bWqHtpvDW1O1m8Sy53orkdyvUEQ68AuIkRzYGT88wzz5w9e9YZodzvf3BicfdcbtbvsppZOVYvD1bZE4HML5nrXG4PSOKn82JeMhe9XjUc2i3msq6DuXypsVkO918pUdf57m6pc3lkC8XBgamUm4l8MLiexYVQQszyfNbrzYZDEY/RTuyW8a6hZY/FPbS1ZnT/Iz5KydzP5Yks7j/qUG5y+e9///s33njjiAcIABuOaA6chK9+9atbW1tnz541g+75j8KL48LL5cIL7r4uZXUR6WZJv8rO7sHQZqfzwWDQt+6X6adzKWXRNKZkXi22smSTSXFwEMzlSzeaCyGaprh2TbbV2mXTFAcHjd6HLBNFUc6L5Y2U06KYDQbVaKT/KavnPnbeDD+LJ8rnrYVz5yPzFy6b0dNxfOVieSyXp1tZ6rr+7W9/++6777777rtvvvnmUgcCADc6ojlw7L7xjW+cP3/eDBcYu9YzGMdFJJF3iebBp+zpLvVyn/4V4ac3u2Te6/WKovCzuBPQ9ciJpVL19vb1/nIpzfCIbh/LateA6oPq1gOTVZWuncter5SyzrJZWdqJvBqPq/G47vWk9YNEePHaP4etodyZ7hKvj57RO4by7uk8lsXTubyu62vXrn3+859vPWQAuLkRzYFj9NRTT507d257eztWKe8Sx/1Ze6EvXSx3Fnasl8eWO3V0nc4Hg0GiUr7QaN40ZdPkWWa6zLOqOhyJxf93hFy+lOLgQI1GqtebDYc6iFfj8fVoPhpVo5GwcnkwBwc7VVpDeZd03hrHgwtjPxVaa+RdZs10LIv7udzE8WvXrn3lK1/xDxMAbk1Ec+C4/PVf//Vdd93VOr51Oo77y20dC6utz3YssqZjut5I4opPf6EzkHm+tyd0E8tiyVwsLmk95COqdWl8MYvbAV1lmQjlcruI7lg2lHfZz5Uz+lriuDObyOL2bFVV165de//9969cudLlGAHgVkM0B9bv6tWrd9111yA07rX0LvdMTPjLY7pkdGfllevlsWellMEmlkRA1wOZV3kuhAhc8RmZ6H6kK1B5Xo3H9WIWtwN6PRw6udw+n35AXzmU69TrnOfucTzdi7JsCveX65xd17V+1BNqzh5lRU/v7u5eu3btueee6/xRAMCtiGgOrNl3v/td/76eMtTEonWsmq+FvamOAb3jPth76x97LJ0XSlXnzsnZLJXLm0ZIqbJMFYXq95vpNJtOj3QWkqrxuNbd5DqXew0tfgQPFs7rum7m3e2xj7JLavfTub1aa7YOLlwtjgezuPOoOel8d3f3pZdeWu3jAIBbDdEcWJtnnnlme3t7NBp1uUm7n5L9CT89B19+FLHtLFsy9581j7GB2zMhqnPn8r29bH//ekO5EEpKleeq16vrWtenhZRCSpFlQojs4EAcWzRvBoPruXw8rk1An2f0pij0kTu5XHlt1qaLQyzz68tZQczfy6nBryV5Bxfay50sHkzkwYBeVZU+dgYgB4BlEc2B9XjyySe3trb6/X6e5yaGBu8T2bFq7q8Qk14hmOzX+xYiEjqDs9djuh4pPMtUWap+v9Y1ZimVTuH63zyUqywTUmazWdPrZXl+LG0tUlajUT1P5LVdPp8HdBm53jHYXW2iuX0SYqfFrpQnZp0tBGedbS5VJu8Su81TDgY6BICjI5oDa3DlypXRaNTv953bCcWu+IxNH7EWHuxvXm2bK4f1Lulca5QS47FJ4Uqn8MVcbsf0rKqaXq/p9VSvJ/f3VziotOvFct1TvvhYF4Xa2amVqpWqm6bRE3rgv8i9dUxHh3/G0vm7Szo3uvyWCy4xvzGcnO3HbmfJW2+9tdSJBQB0RzQHjurLX/7ycDjUuVyXzO1oLubt12b9dNV8LRKbWq09psu+mcO0J/xZYbVQN00jhkO7Ou7EdDVfIpvG5PKm18vWHc2bsnRaWQ4bWvr9pqqaa9fUZCKbRigllJJKCaVE0xxOKCX0vXKUapSqdVhXqlZqJsRMSjujrxbHg7P+KbXr34klTYTuj9eqqnr77bfXe5IBAK2I5sBR9ed6vZ4dzf2oKuJBfI253LdCEf2YquYmKeqq7eGz/f71rhWvWC6yTCrVHBzoaH74ryyz2azLgXTkJvLBoFGq2d1tqkoNBqrfF6E4HkvqtZR7ZbnX6wVTr748tGP4drK1Sfn+ECjBFYjXAHBjIZoDR3L16tXhcKhvSt/r9UwuF6EqsljHACwdGxu6xPGlInuXFRJNLKZS7uTyw2FMej3TUO70tAgpm+lU18vVPJqrXk+sL5rXw6HpXWmkbPb3G6VUv68Gg8NcLmU4kc+n9fJZnu+V5V5Z7vd6k6pqplMnkfsZ3fSj++VtsjUA3IKI5sDqnnrqKdPKMhgM8jwPFsuPGM2dLH70srffDrHUy9PrJIrlwT3JsuwwnReFGI1MLjcxXdb1Qr3c6mmR89EJj0LleT0eN3neTKfq97/XWdyEcjUYqKIwKdwvkMummRbFYSIXYi/L9vJ8Opmk47heQuwGADiI5sDqdLFcP5Zl6efy7g0tCWvpdUkUyNXiAH9H343WYrn92DTN9XSe52p+YahuN9ct5k69/PrFoJPJEqcgoqnr5v331cGBE8obPdvvB+O4UOqgLHUi35NyP8v25v/qvb1gIufqSQBAK6I5sKKvf/3rupWl1+s5d8EUa43mK/Cr1MG3S4fyFQrn9iH7beWxRyGESedSSjEeH9bLhVhoMe/3Va/X9PtNr6f6/abXy44WzZUQtf43nTbTqdrfV4NBo9P5PKPrnxemj0UJMZkncjuO638TKeuDA4I4AGBlRHNgRaZYbgYyXyqaB2dX0zGI++vbq6n4XSe7bzmxS4lcrkO5TueHGX00ElLK2eywTK7juF84LwpZVV32x9fMc3llJqqq2dlRe3vXo3me61zeCLGv43hZ7km5J+Wel8vfeOed1fYEAACDaA6s4tvf/na/3y+KIs/zoij8mwp1jObGshl92UFXVmtoWTasJ4rliR0zJXM7nTf9vhgO5cGBPDiQk0nW7/sNLU2/n68UzRs7kTsTTVPv7am9PdXr1Vl2GMd7vf2m2VNqX6k9IfaFOHyU8tV//+9X2AEAAIKI5sDSvvnNb+pxErVgsTxYPjc6BnGnqr3UFrqs37HLvPv7dm9iibWbX+87F6IejeqqKquqnv8rq6qpqmY6VdOpODgQBwdiOs2XHKolmMjN7EyImRAHQkyaZi/PddeK+5jnL/3n/7zUmwIA0AXRHFhabsnmRFsu90PtGjOxrUvg9tfpOCZjeh1/NO6O6VwshnKjHo/rqiqsdO78y4sin83y6TSfzbLpVEaOwqhCuVzH8ek8lOt/wVD+9b//+9azAQDAyojmwNKKOdNlLrwmFuHl8kTGXbabJSg9JGKiiL5s7XypvTX5O7ZcLrab13XtrFlvbcWieSVEPp2aXG4yej6d+uMqqsVEbrK4H8oPhJjoLJ7n+vHL//W/dj9kAABWRjQHlmaXzKVHRMrn5uUrdLPEpDvOW/vRO9bOj/jLweRvu5TurKBL5rHKfb21FS6Zl6VdMrej+eGS6TSrazFvLjcpPBHKD0vmea4v7vzS7353lGMHAGApRHNgOS+99JJuNNe53Nz+M5bL7SK6s6llI6/fNxLbQseelqPUzv2VYwXy2Hs57eaJt1ZKVV46PyyZz2b5dJothvJ8Oj1M6gcHxc6OmkycLG4ep6FcPpHys9Np9/MAAMC6ljnGKwAAIABJREFUEM2B5Thd5ul6uVMyj6XPlTO6L5GwYz0tJ1w7D+5SrF5uP1tvby+UzHu9cL18Os13d/Pd3aKq8rqeHRx0DOUTIT7V1qoOAMCxIpoDy9Fd5iaU28MmJnL5sg0tK+TgWChv7UE/Yu18qT2M7YN/Aaizgp6ot7fruq6rqpLSrZfv7RW7u3ld501T1HVe11VVZfv7jVKzDqH8IUI5AGADEM2B5dgt5kvl8pUbWlpr5LHV0jnbeTY4231/nEFXEjvst8FoiXRub1D3nef9fj6b5fv7+e5u3jTFwUFe11VdH4byus5ns2x/P1tsZQmG8r8ilAMANgbRHFjCQw899Cd/8idyscVchHJ5rJVl5YAe1DF22wv91wYbWo5eOE/UyOX8qlD91voC0EQ6t/dcKVWPx7kQ+WyWN03RNHnT2KG8qOtM5/L9/cYqlvuh/HOEcgDAhiGaA0v40Ic+ZIfy4AgtsVaWjj0tR8zEiVDepazevXZu9napGrlZbq4ENaE8ls6dXN40TTNvWcnrutYTVjqfHRzoermcToOhnIZyAMDGIpoDS7j99ttFpEbepZVlqZL5shl9qVAu2rrM7dnWAWHEPKP7j8EOFvvR5PJYOrcvFW3mqrrO67rQvSs6lDdNVdfZZKLr5dn+fj3P4ntFsZ/ne0XxhZ2dLmcSAIDTQjQHuvr6179+99132x0ssTUT6VwsGdBjz/q16qUq5SKSwoOzrbvXOr6KHfGdRzuXB9O5aXqxCd3HYq74rOu8qrLJREdzMZ1OBoP9ra29otC5/CnuGQQAuBEQzYGutre3/Sp4sGQu2tK5PxtckpBY+YjtK+nCufPurR0v9mp+vdyvmvvpvAlRTaMbWnQ6v95cXlWT4XDS6+0Xhc7l3/kv/6XLHgIAsAmI5kAnTz755IULF+x+lVg4TvS0BF9yxIxuS1/9mQjlItTfsmzhPPYoQqFcWCXzRDpPkKa5fDrN9vcrpSZbW5PBYFJVe3m+XxQv/8f/uNppBADgtBDNgU5Go1GWZXo6VjW31z96T0v3gB7rBe/Yfd5aLA8Wzs07thbOnYs+hdWjkkjnWl3XzuP1npa6ruo6OziY5vnk7NnJ1tZ+VU3q+mf/7t91PG8AAGwaojnQ7oknnjh//nye5+mquRPT19XTkkjGwVclyuTBhV26zIOF89guycXLQA3hdbPE0rmfyAOPTTMriun29nQ6nc1m+vH111+PnSUAADYf0Rxo1+v19JiJetapfyfy9Bp7WlqL6EepnR+lcG7e1O5gsXO57hp3onmiWN4ll+uJqqrqujYTVVWlTxEAABuOaA60y7LMlMztqnm6s+VYe1r8lLxa7TzddB6ctjfix/Fgi4vT02KHcjMRy9/2o1mulDJxvKoqvfDtt9+OnS4AAG4IRHOgXZ7n+u5Cera1gL32npbgWwSXr9zN4i9xsriZdhbG0nmQCI1lnqiL+4/65XaxXK9MyRwAcBMgmgPtdNVchNpXgvVy81TwUXQI6LGFjo6189aF6YaWYFh3quPOrJPI7Z4WfwCWZXO5juZ2Lq/rmpI5AOAmQDQH2tlV80QWd54VyVy+chxvXd9JzP5yJ4L7SxKFcz+O+yVzE76dvXLCut2j0prLzTb1a00TCyVzAMDNJDvtHQBuAOYa0NYs7jzlP/q53N+CXF5sl7q/kbPEnvX3XEZ+Zjh7EuxpMYncv4jTnzUL7SBuh3VTTf+zP/uzTp8lAAAbjKo50C7Pc30ZqJ7tkonNEhHPr05uPsoe+pk4+JRfJhfJbhYRamKRyas/g3HcyeX+lZ3BernTxGK6YpyjO+KpAwBgc1A1B9o53Sz2U7Fo2Fpmtidite2l+O8e/KmQeMfErAj9zPAPys/i5l3s4Q6DZfLgclMpN78Q9Gdh6D9o6KconAMAbnRUzYF29s2GghIRWUSCbHCiC3vlWHU8/axquwxUhIZK9HfDqZ3b7eD2dkxnuY7aXQYst5vLReSHjZPO9fodzyEAAJuJqjnQ4vLly/bNhhK1an8d0ZbLYyXthNh7tT4b20N7ibOOCP268A9BeAk+eLlnsGoerKDr3pUuh2+q5pLCOQDgxkfVHGhhGs1bY7H0knoiywYnWgXXTNTOuzedxwrniUexWDsPdpanm8tjneUm7gePN3jmNQrnAIAbGlVzoIUeOdFeEgviIlKQFl4R2p9IxM1E9PffVCZ/P6T3M7aFxKMWC+VOyTxRO9dMLu94TkzJPLP8+Z//eeLTBABgk1E1B1rYVfOOWVmzI6ZZEptYjQw1k8hQdTz4dommc+XdVCj47mpxVBY97STyYOG8tu4i1Fg3ITLjVKbfV8dxvZOmoUW/sGmaf/tv/61e+Oqrr6Y3BQDARiGaAy3sYROFlQvt2URM75LLW1+bFgzc6S2krwRtbWWxU7s9ERyDPMYMTG7SvAnZiVaWuq6Fl86d2el02u/3pZQPPvhgURTOoC5N03z/+9/vcmIBADhhRHOgRZ7nekJ6Fx06EgX1owT0ZSWSur+O03TuxPqO6bxZFByk3C+ZB3N57NZOZqETxP1X6UtIq6oqy1J/Xn46f/zxx81bNE0zm812dnZee+21I5x1AADWgGgOtPC7WUwQTIdps8J6c3nrmukmFmc1p3Dux257O/4KzrWercVye5xy+9Gc2EQoN9OxdG6fbTvH++ncHI5SKs/zsixHo9Hjjz8+m82m06l+/MUvfpE+zwAArB3RHGihWyNi9fJgjTzoxArnHbO7E8pFW5nc346TyJ3wHRyDJZjLxeKNhNKHY/86snO5Pa6LvZpZoSxLO6/bXfJ6y3me9/t9pZSO5p/97Gen0+nBwcEvf/nLZU4/AACrI5oDLba2tuwybayhxams28uDmz16Lk+Xwzu+cIUWc/3ot68k6uWNx8/lsV8+/v7bF4DqdG5Hc2FFdvOp6YmiKJxc7jxqRVEMh8O6rnU0/8xnPnNwcPDTn/609RMBAOCIGAYYSPnyl7/84Q9/uCzLPM+LoiiKQo+laMg2ejuxie65fNng3sr+//1EVHWqy3rCaRz3Z51bCAWTuvlVYNe2W4/X3oKe0C0ofhuPKZaXZVkUhZlwDkd4P2bs2aqqdBFdx/SXX3555RMOAEArquZAyng8tkfODpZ1u6fqWBBfuXCefknr0IdmtVhpPPjCWPtKvXhTIZO/zcCITtXcFLzt2nbrQcnFYRP1RFEUdtZ3mtftCcP/yRE8gVJK/ausLMter/fII49UVTWdThmWEQBwHIjmQIrdzWJSuB8cg5Vy81R6YqlcvlR2b1152RZzUy9PdLP4vSt2B4sd1mO5OXEsduYW88YVfZ1ulmXN/IpSEbpdkTP8uanQJ9K5+QGg30Vn9Nlsluf5Qw899OMf/7j7ZwEAQBc0tABRX/jCF/7oj/5oOBzqPhY9yofTzdLa06I31T2g27oH8aUiuwj1q5jZYAeLsIYtb+1mCTKdLTpA22cv0WvuHJ3yBoTR27SvKzUv0UzNW3ezmKFa/JNmXxJqv535LVHNzWaz2WxWVdVkMqF8DgBYo5a77gG3sq2tLTNy4lGGZ1mqcN5aP152zcTL/R2IcerlfrE8US/3y+exnzH+7xy/od85fLue7fx8Ct7G1bzWLqI7GzHMck33tPT7/cFgMBwOB4PBeDz+9Kc/vezJBwAghoYWIGpra8tvMQ9G4aVSsh/Qg7Mdn1p5fb9lxSml2xN+Ivcv62zineVOLvf/4NBxeBY/1pvOFv1U0zR2/k4kfuF9EHaLi1muLOaXgJ3m8zz/q7/6q93dXcZBBwAcHdEciBqPx6aP2U+Nsfjr12jNcmc1e8J+dtkgvtRLZPz6ziAnZwe7WfxqeiyjS0+s0Tx4RP5rm6bRF4M6LeOxUG5vx34j/2MyP13MgehZU5Wv61oHdF1r/+QnP8kAiwCAI6LXHAh77LHH7r///vF4bBqU7f7yIw6e2Lq81cprdmwrd/rL7Thuj4foR/YmNIqifhSLidl5TI/QIhcHU2+skdFtzeKYjOZT0I3mdndKazpXSfowdeu5ntjf39/d3X3vvffeeeedjh8NAAAOquZAmG4015HRXu4Xd4NFX+clzkRweSJtdw/iifVV6NLPxI9ztXhfoUQubyWsdpGlfsn40ybcO/Vyv2qeHgHG3h8R+bEUC+Vi8fal+iWj0ajf7587d+4Tn/jEwcHBm2++2f3zAgBAI5oDYbrRPBa7Eyk8ljLTNdqO249Jrx8M5SKS0ZXVXx4cYmWpUK77QHSGFt59Ov3oLOK53CyJ5XL7QIK53Gwh+BkFz6GUspmP+qLZ7+t/ak3TXLhwoWmaRx999N1339Xn7a233kp8OgAAGERzIKzf7+u2B7PECeh+XnekA7o9mw6jwS23H8BcIn8nZmNDHwZzeSys6yAuFjtk7MQc7AWPnQ29NV23DuZys1x40dxc9xlL5IlTGnwvUz7XtxfV6rrW29cTd9xxR9M0s9nsk5/8pB5s8Y033uj+wQEAbkH0mgMBV65cuXTp0ng87vf7wf7yYLu5CHVr6A06+S8YChPpcKksbiwbys1jl1weazRvrLHG7W0Gu02cRnP/x49zOI3XXG4HZbt27kdzw+44T59e+ywF38gsMU3n9klwTo49LDqldABAEFVzIECPzWJHty71cj+Rm+Uimctj0bBjIjerdc/fwVmTO4/Sx6JDuT4Jat7yYUdztTgAYmwQleDhxwrY9sbtaO7/AHBGaYx9lAn2PjTzvnNTOzclc38iy7Jer2dO8ic/+UmT1LlyFACgEc2BgPF4HLwA1JlN17mDsbtjLk/nxeCzrfk7Hdz9hF0v3sKzo9geOhldeoIjVPobiZXMnSEUg6Hc76JxPmLnfNoJ3n9HMY/p+t11Otcp3E/n/j6XZWmmP/vZzx4cHOzs7HDxKADc4ojmQIA/vp4WjOOJjN5aKY9F2MSmfN3zdzqUK2tIlhUu+jSZ22zcxHG/Fi4jI6ikjzcYlxuv9dxO3rEeJKd83krOR2/Us+Ydzbs7lXgTypt5A4yIDMioVyiKYjQaPfzww3rhbDbb2dl5/fXXO+4eAODmQK854HrqqacuXLhgGs2D2S5YgrXzpTOdeDSOGMrF8hndieMmYdsNLXYd3V7NecpOn/bb+W9tjshpNLer5v4h+9tPhF07l6cDeuu59ffBidTOtNNublaI7XMT7553Nru3t/fLX/4ytrcAgJsDVXPApRvN090siYVi+Vx+8qFchW7f4yRvJ4v76xiJXVVe7dz+6eIXztMHruZ36PS3GYvmiXSuV/MjuL1l5+MwiVmECudq/ncD01yezuUd6ZPf7/cfeeQR89tpOp3u7u5yLSkA3GSI5oCr1+sFq6rBinhaay5fbygXHTK6Sdh+1E6E7xgnJceis52hnXPo8I/d5F0z67+FvY6d9dPp3I71sbcLskO5sDrOhTUyTGvgdj6gLuncSepbW1sPP/xwVVX6p5S9HTNd1/Xf/u3fJo4FALBRiOaAy2Q4PesHdGd9J1kGJdJ5bOUgP3l3z+gm2MXiuPOs32XuNLGIea4N7rC/PJ3Ls8Xbc4rFlOxM23Hc/wHQWiwPdrO0hnJljTyTKJw3kWHX09Hcn0ikc5t9Oen+/n5j3SBJH8uDDz5oNqjHhPn1r38dO0YAwOmi1xxY8Oyzz95+++2j0WgwGAQ7y7Ms0+0udnU2UQB24nhrLk88G8vlraFcRK71NLNqsZTud7P4TedmV+3onNgf/7QEo7m9NefY7UTrT5jZ4EcWjOb+9mOfiPNUOjTHMrTDP0XBCefo9Jnv8hb/+I//KBa/S8HvlVOPp50dAE4XVXNgwXA4DHaziFAfy1IJO71yK9UhlwcDn5PInQl/ebN4C6HglaDmiMx7ycVuFrVYyQ7+Ygn+hgmeK2UV4FWkWK68FvNEH4v/4TqHE3t3f307N6vOJXPNOajYhL2a3nhm3WPV2QHzod9xxx32wvfee88+RTL0q1II8YUvfMGeNd8K/08oP/vZz/xzAgA4IqI5sEBXxGPdLGahsOJjLOr5a9oLl6IiRWLnWf+xSxa3lzuhvDWX+1nc2e3WXB6M5v5GTCJ3FjrpPPaHjizUYt7xtLeumS0Oqd4xl/vhuzWsm9ViidxMOz8PhBA6qYvF7605BH+heS/nXcyX4eGHH26apqqqn/zkJ61nEgDQEdEcWGCSnL3Qj5JBiXW6x8FEQk1EcLOOWMzl3UN5sF7uF86DEVxYSd2J6UfJ5X4ydsKrn85lh6p58CRLr2QeO1J/uYyPsN4xmvsT6YwuvK4ef9Z5ysncsSzunArnG+Vrmuby5ctVVU0mk5dfftk/XQCApdBrDlz3/PPPb21tjUaj0WjkZzu/IitX7TVP8FdwwlbHR7v3QHXoZvGbWPxobhJel0e1UiuLsDKosySYQe1n5eLFAMFo7gTT4LsE9yG4M/7EUpw3UpEUnljNf3f/RGn+BxScdfYq+O1yNFa3+mQymUwmr7zySuzsAQDSqJoD1xVF4ZTME7FbdO41T8TBVnbAcqYTj41HJQvnTsk8OGEfl/JaWZR3y8+Oodx+lYo3kDhPKa+VxU/hwWie+CBkpNfc2Q3/YP2NOG0/XaK5WrKtRSxmZeElcvuMJRJ58HdRIqALq1HKz+jj8Xg0Gj322GOTyeTg4GA6nf7iF79In1IAgI1oDlwX7GaJSSdRf50VOKnLLBTx8KS8HpUuhfNYsdxMCKu8bU8El+scrOZV8+D5cc5VOpT7iVx4WVZ6rSxSyjzP7eVdPpRYQA/uYSyj220t6XSejuMdnxXeVyWRyDuyT4L/lfNDuT2R53lRFOPxuKqqz33ucwcHB0KIpmmm06n+RimluFkSAAQRzYHrnGAXI9rGpIstWTYbBVOXSJbMg7k8XThPR3Ody3XGbY3mpjhtdjV29pxcHgvlYnEwFrEYkZ3wGus7MhOxT8cnvX7r9Kv8Q5Ch8Vt89lv4RxR71lnoTCz1NUscUWKJfVz2V8uZyPO81+uNx+PZbHZwcNDv980LP/3pT5svmP6yvfHGG0ffbQC40RHNgetMm3L3l8Ri0GqlSmPlXN4azZtlWsz1hO7zCUZze8L+VaO3nwjlJoD6pygYMZ011WLN2G9f8Zd0+TjkES4GtZdLa0gZ+3CC0bxjHFfxvxh02bGldNms2fk8zxPpXE/kea5z+cHBgV4orK+0XqLDelVVP//5z4+4/wBw4+IyUODQN77xjfF4PB6Ph8OhjnTmakI/7ZkwaoJmZl1i6IdRsczwLOlc7lRJnVyeiObBdB6L5iaX6+aEWNXcPny7OK03LhYL5Pb6wf/yJBY6WdaZtT+g2Kdmn+GE4A+h4Ar+asFHf7f9Q3AOP70w+OwaxQ45uCR4sMGk7sxWVSUWz4NZQauqiiFfANyCqJoDh+zyqkmTvmDIiyW/FeqXdujx818sAgbzdzqdd4nmeZ7bo5340dwvTkspm8V7xQdzebAEGztdKtLQIrxcHqydZ4vX9cbOvPODQVpXuLbuVZpfO/en/WO0F6afXaPgNp0z4O+M8/3UJzwYze06uh/HbWVZPvLII3qFH/7wh+s9TADYWERz4JBTXhWR4VnMU/Zq9nacWN+9ZC7ipVbROZd3j+at9XJpjUWY57l9LNJqK3cm/NJ4+uwlQnksEzucN/V3I8syOw23biqRyGPJtWPi96fts+RsrTWOdzw/S/G36RydP2uOwhyLfUTmy5xI6nZAd8K6/uwefvhh/bXk9kYAbnpEc+CQ06zSvSDqTARnuzMRXKyUy7uk82A0D1766RSe7bBrny77Uc1vI6/3zc/l9pEGT1QwyMZiaGsu10dhzljHDB3bAT80B1/Yun07yzpRO5jL0xl9XfxttuZyJ47bX1cnr+tvRSKa+zHdzuv6K/eZz3xGfz9fe+219R47AGwIojlwSFr94maJwywPTsTSefcI5WRxP5f7AWiFaB68o5A9q5QyQ7zb0dwvkDu/Z8yBZNZll7Fc7qdA53R1zLuxXC6slhv7vKU35a+TSN7d87Gfy8208EJ5cNp+uxPI5f4Pp1hMT8TxYF43r+oe07Ms0+k8z/OqqrIse/DBB+u6/ulPf7rekwAAp47LQAEhhHjhhRcGg4G+BtRusA72MftB0Km1+wGxyz7EsviyuTwdzYPDlvtDsmj6GlA9ETx8p17u7GczvxLUOUz/wINLnNJp8ISYj8b+yEwiL8tS/8awdyz4jmIxDcfOufNJ+es7q/nHkt4Te7bLdMxR/sPe/QMS8cNPnED/NHYJ6M53uKoq/XV99dVXVz5SANhAVM0BIazyqoiMSu6EbHudWLE8OBsTy+X+s2Y2URcPxvREW7k9YWfcXq9XlmUijvv1clu2OAylChVi/VPUPXr6P43sdeyfWP759N8oeBR+yVy1VaxjVXZpjXQuF1vMzfodi+itp8g/yd3ZRfrY1px1/C+n9Fr2Y79b1LyhvGMub+ZXQeiA/qlPfaqqKsrnAG4aRHNACKubxcnc9pIuuTyxMCGRy4PV1u653Kk1+tHcielZlhVFMRgM+v2+Lpn7fxyI1ctbj9GP4P6JWipHBnO53qzJ5XoFEQmR9puaX19OphShNNzxqNM7b++wvyfdg3j3Nzr6C52YbnZVLbbOB8+wP+F8vWMZ3fzI1N9Yncv1jy79Y/LBBx985ZVXlj0zALCBiOaAEFbIE14i99cMTidWS2vN5c5qwTriarncKZkPBoPBYNDr9XSuLYpChvp2nEc/yPoHKJKVV3vhUsxuiMWAm8/ZbfHOiRWhvOhvf9mfCq3r+4XkFYL4anl95VJ6LNwHa+eJieBy/8enk9FNLtehXH9jpZTN/NpQ7aGHHprNZlweCuBGRzQHhJiHPBHvZgkudyZWEAsrwQkRGY8lHdYTgySa6bIsB4NBWZa5xWlZ+f/ZO7dfS46rcFfv+9nnnLl5xnbsECABHpKHiIiAsEBE8MYrEiRKgpIgIE48xpexJ/b4fptxbCsXJxBxyeNP8F8gEaJIgIgiEYQgKBDFMvFlJnPmnH3v/j2U9/Lqdevq3nvGM2ev72Grurq6qrp6n5mv166uFtXcOC9xr6bpoZEHi2H41nK1RzL7PFSpea2eaCeY2PMUEefFMvb8aKgp2bjyBofju4jK2lJMnRh5KMt6sXwAlHy94zWN317yNMif/umf+ouKHMe5ofHHQB0nXLhwodfrbW9vg562pJdKZuwhSDKbImOEKnHnUsITOA163SxezkPmrVZrMBjEBz25l4snyyeQiH0mvhskpSN7+bFGDo6IQ6Ldbne73ThFniwyIw4vOQXtdPhRha6blZ/asNRKiN8lbVcltY6FwloYntSm7bIvN8e+54Sv9Hw+H4/H3/zmN2uOgeM4znWBR80dhz4DKsbIg75mIk8nAlISzKh5QNbSQMo1iQkhwHI0RM2xl2uB8yD5XFEOihd6aBmXbOCUcCCuAcfL2+02XFau5uLg4wJ1r2atQ4ry5PJabRmB9lXi6IkXAl810m0e0Rc3SdrwcsjMl0soxgsav9IFWlERx87z5RqLPvvccZwbFFdzx5GfAYVdJF/0ci0nJMyr5lJOMvHedEEX57GAmsOE8kovF9WcCGKKkWsOinVZGyI+PmK15CzgLgLUPJT9Wxz5ZhjGbFDp6Fna1Bd+FNRZqz+JrWj3EoaRa5VDpublxfJJBiLoUc1BynM0ywWu+J133vkXf/EXtUbAcRznHcfV3HFK/g2fopEbXm7ni4KiaaK4t2CPxC0WC1HTuY7jzVarheeUEy8nIi6qOTkvUS6JaGqbxO+JumkuLrbFJ+QQO+dqrjXBO6zt5Yl0UoauQbWYuo6ectY8WI4LhJpGTnL4d54IOnd0CJzHvsUEXP3Tp0+//PLLKefuOI5zneBq7jj0GdBKGVrFlkQFh4Ro6lhHsKMXy7XkDDXPy3PTW60WvEiIqzkXcTEHxAh6WEsrRS/He1MEndRPprKQ5wTgshKTXlF81wLX2avh6Ik9qfvNFzfhLFKMnO/V1Jw4OhZ0Qr5cwiV+K+65556DgwOf3OI4zo2Cq7mz6cRnQLHAwS4SIxQLNGu0YBFcTdm5kYOUaFJOdBwOj57aRi/4hAR4ua3m5BQSJVLcS3xLHB87B2rjXp6VZ5nzA8HLRR8tVoiFpyAaKhmlsLKj4ybWcha2l4vlDU23WzHUnOs7+a7C0ooQSt/d3fXJLY7j3Ci4mjubDvynHpTZLJqCcFO3ywMgFniTJEQvJ45OBF3UcSiQsSkfnSXaPBZiPCFZGStVMvaQjElKDh9MOC/8OwCex2Jfi6wcSodMreekP+JNSOMDxXRQBtyoHJ9FInVvQozCiSJui3uG5reIRPkmds5ntsDm9vb2XXfd9bWvfS39HB3Hcd4RXM2dTQcLaFCcg+/Fxeo6UJDsvJDC50TKiXaTkDnXcciHeDmJlLfLL+UxBF0ck1Bl5ET4yFmLg1Mp6HgXv99os7XMQ/mq4Y4RNSRdTRR0YxASIfcGKY7Oa4B03dbr9rlB/eRw4wtA9tqCHsr3roGtXhrvSOEPYWtr6+677/7qV7+6Sv8dx3GuNq7mzqaD1ZNoh2Yhje2EezlxcUgQKeeCTlzc2BX9lcz6iHaOLVazc3voQrKYikKGvYpkpown93K8lnlKDfhExO6lCzo+yq7WbiuYjr56Q0a7laTcpQR2LxRqGrm4l5OxwHme5wEJOqg5xM5DCPfcc8/+/v5f/dVfJZ6y4zjONcbV3Nl0sJvGHGyl2EV4DtllQPy7KMePiZSHcjgQvFyMmvO05uXxGVAi5VzNMza5nKszOXfRzrlrkkpwZgNBJzPmIyRezvup5fBD6nq5WKyW+PJDiOniTLHPVxX79kAsY5++beSkjCjoQQqcRyOHyS186nmWZZ/97Ge/8Y1vJJ+64zjOtcPV3Nlo+DOg3CQauLjmUsTIQ9VUlqIcLMcWLgbUyYHZ8hFJ/Cl6uTjVaJYZAAAgAElEQVSPJX0YuZ2HctCXjIYmZJU6HoGp8x2G5uW8q7iTPI03bUHXbktwJYnwcRO/SIn3CYmNruj3xuHaiKUYudGcoeY4Uh7K4XMy9TzLss997nN//ud/3qwbjuM4Vw9Xc2ejwQ5KAuQ8Xg6JBr4VmJcTF8eZtpRXGjl+7pNIuebl6ZNYivJ9BR9Puzw/pFZOPMGAprLwkLnYDRstfF7p5ZxVfNo4JKUSPG7XOKAu9qTB3V36Xsgh33/s5ThBPmMl/mCo4zjXIa7mzkZDfJS4qWjn6XCL1Vw81JFyUdBJKJ3Ey9vSK3i0OS2883XDnLwSTcrxuWtDBzlwdnzSPKwzI3aDnAiO8YtGDi1yL9ccnZcxarYhTVRqbuOGrgZibxuYukjGZq63Wq2CEcpeDkDgHGrLsswfDHUc53rD1dzZaDQRxwVIWitfKU/Ey7GPEoUtzIg4z+dqguPloN2ijotebpyFuMlNOmMTD8ixiZmQD3cg+H4DzzXXOm//0JGxJUF464aXa3sLNr1Hq98gUcrfESMXr1RIk3I8OHXv+nhz/PsvBs75Hy/k/Nmf/dlXvvKVxn1wHMdZL67mzkYD8x8MgdPUh4uaVixIXo43gy7l/AFQyDG8nE9cAcRdDSK7lQUMzzaqIsZPzjdeKb4qS93+86g23+TBdR5E52fHjbxWCFysiu/iNa8d+xI3PoXEvxqxRRg9MUH+Crigh7Ka48Q999yzt7f3N3/zNw065jiOs15czZ2NhkfN8S/guBhJpGDrODiELeUpOfiTL1UuxssJwVQx29KITBvFuIWTocDwUwvL5XTa6AVDkfTrwsWO5ONN7uJiJjkp0Ueh2pS+aaSbvdaBdFbxfrGfWmblDU864OhYx/M8b5VX0szYtJYsy3Z3d/3BUMdxrgdczZ3N5fnnn+92uziHyIFo54lUejnZNBQczyM3QuYhhFb55UGVwfJYvlhGow1VrTxNclJi97QDSQ4/U3j0E86FePmKgViySeLclYFzbVM08kRN5+WNQyqv1DWOr6dIeYNWEmvgX12yie+0o6PDX40/GOo4zjuOq7mzueD/oTW9a+YTKV4uimxl4Fzcy3U8JV7e2Ggrzz0F7VjRywv0a4Axm6XydDL0GCg+hG9qicpMbRP3gRQzbooMH01R9vWiXTW7dfsUKnvOy4jjzwvgSDkJnMcnFkL5X4Cw/Hfg9OnTL7/8st0rx3Gcq4erubO5cDcVHT3R/ESHCKaXp0g5X8Uc1Bb8A8wjxchX93JyRjydXg8/ZXFKPT4vMpUlOhYm5bzsnwgyNJslVHl5IYXVIb9gAWOxXVvQyaCln6ZGg4vVoEV+7mSvUaF4q2O7OD8K6zg5ZdI3UPO46cu2OI7zDlLjXdaOc5g4d+6csbeZnWMMLyc5hpQXjLA0cvzZKi+JaAu6ePthn7VxgjwzHX4UWQgyEpZTzEnUPC7MEsqPB+ArZd9+kL18E3/CXi3By5BipCGxnxl791OLPaGbKRhXSjv3tZPYCt9rjCc/NqU85OOvvfjnQH6B6fV6vV6v2+3efffdtYbUcRxnXXjU3NlQdnZ2YkLTC76ZXrnt5ZBIl3LoXqvVghh5TOBNoiNamJycS2FGN3nJ9PxQJevRvMV82KuJVHQpaEjsP7+CWUK8HKezckRcS+C2inKUnXSD1K911egkGV7j9K8SWmcq+yB+04qqaS2FFDLXNsklC+jHJdxtPMUlQzPOA/oHwWPnjuO8I7iaO45FA+NJ8XLRRAmhrDKajuPNrBxK55Fycr8R1rEyBj418SxIYe7lkM8TWoxTW8u8UtBhk0ituMltDye4PYt2TkaJlOFDlCi4iYWbocn3Ko2K3zT76yf6t+3oGvjPJAKb5NLgO1i3c8dxrj0+ocXZRM6dO6eJQljfbJZQ9nIinVzKQ1mJRGlrKVNZsHkbUk7U3DYw8YyMApVoLzTVIGfK3wAKw0JOzbgVwYOZuMm/ANjh+IHQqNYlUol2O6HdU4nXtPJ8a1HZRF3EOvmw8HwyUJWZWluZctcKmeQHmW632+12+/3+6dOnVx9Px3GcdDxq7mw6+L92kMIWWwg5vULNy0kml91EUcZq0pIeA033cr6Z1Xw7Y7qy8+k6oSz0gd29kDXaSci88hqRs4OcQo+XFywgDQeKiYxNgMHtFmxmC6lZPIScQuUV4XtrfV1XhPQ/vYD49asskJJp0Gq18HDxwDkG/l58zRbHca4lHjV3NhHxP3KiiURkE//vT/RyUlisIZFMCaVXejlOG42m7FKi3oKOpwTLIzy6CVIOaybyUxNPNpSvJt8lFiN7jYRYGKqCT61jvJ8805iVpF3r9RIU7L1a9/iAGMXEwnamPSxa4Jz8OBO/Zv1+v9/v33XXXcY5Oo7jrBFXc2dDEYN5xM55ATGH15zi5aQnKZkGKRYlVr6ilJPMdC8PbLRJwp5lDmsmcplLIUvwY76XJ8RN0jGtvFYbPxxyWmjBFkM9645GCinNJRJ0LyfjQ8qEsnkbJSsRpdyw88Fg4HbuOM61wdXc2XTif9Xcpw07N9BEnMs6sVtN3I1u8xwjXg7lDS8Xb1cq4QFvPJW8Ml4u1sCdqbOEhMzh3ElOygBmZfHNdEEn2hd0seZ1avpIKtF6bpypeH3FY68fxKEg6SCZd5BE3NhVOVaZ9FSG6OsQO//85z9vfaUcx3HWgau5s4lk5fm7mjLi8naFhojzTb5LrK0umTnLnNcsenkl/ChDwTUvD+UxD+heKH5yWyIhc/HsEkfJ3jRyjIRWp9hJbp+ksNbzjLksL3ANaNwcHxB7V9Cdu3JXZn4r4BAu5ZkUR4fYudu54zhXG1dzZxPR/FK0xoj9Pz2v3NB0LsGNXRzSONqXsfA5b4XfmdRtHfu3GCNPmV8elJA5odvtgpTHZ0ONXhnDJXob1zgxhySMdEq7XDH5IWKdmsumoPWwLo1rI52pTPNRStxVCzFqjjfBznu9Xr/f/9znPreukXQcx+G4mjubS4GW2tCUsVmdhpeTBD821FcfrhE4fM5b1NJax2AXV+3KGDn38iDpOOSTE4Fl7CKwnHmtIRILZwk6nknynek+rVXODyf52rkYp2m4pljePuQaExK8PNQU8coCNnbU3O3ccZxrhqu5s6EU5TC2Qd06bS8vzPA5BoSjEs0kQM0be7mm1/mSul5e6ehYjDqdDkh5fH16t9uFB0BTLo09hnyvncMTRhMZM3XRIANTSa2fiV+GcD0puEiocnFxrMRK7LFt0Df86xNPg533er0777wz8XI4juPUwtc1dzYRoqeFsngIJLIEK0r3ciLlpCQhq1rWusXmscCn2Ek4l0JZWFqTZjFTc3GSyYdUTOPOxwB5twy8Zsi4BDBuWrFMX7+8Mofs4lVVXscMLYieseXSxdb5SSV+JysxvlprqV9sEZ9gyreRj5i2i2cmnkhr+a7QPM/j1y8m8N8R/lsmf8KO4zhrxKPmziYC4hj//055OWVI+D++SPNyUngVMv3Hd2wP3PZI60Q7xNHQYue8QErgPCDFAWASC/HyGDKPT3/ic9fGpHIXL8CPgkiq1qLYSmIPyafWVbuG1THix1ej5lC+BLghMU2uF/lMySR1VpIyrSVOsur1enffffeKo+Q4jsNxNXc2kfPnzy8WC3saNKRDWpyMH0LyxTJ2nRHDk7SQuVgt1FNIXl6Up6nYds6l3PBycST5sGMvhxg52Ln99CecoDZWfJfooGINxPBIQtzU+iDmZI0cPdE13ymMcyEnxdNiyWwFO+dV2WBBJ5lAtPPKi+44jlMXV3NnQ9HkMqQt2EIQdZzni2VC0wg614WW/tbxyp4bIk4yNSkvdHc3gNbx5PIYNYf55eBJDUYpVHkzr1lsC+fw8nVLkgT3SK2fpEy6bl6HBF2dgy7ZPFMcRjLIWf0R06Lm2M7vv/9+8WI5juM0xtXc2VBms9liscCxc2yTAU3t4LFkUlWil5OaQx2HziRd48HyWiNA9Jpg2Hmlo4sT90UdB2ASC59iHuPllSFzbdwSh4WXxCIIOYGZd2X9vFoxwas1aq4sYPfnHSSU1dlIhzTzriyTNRJ0cVpL3IQVPKOd33fffQ2uguM4joarubOhXLhwwQ4AV4JrKxK8XCtQNAqZi/HyuhjObcS/EwPnfLi05lroZZ9kKot94yFmJu5NP4QonVY4cVeQ7FxrHQsr70xo5NlaE9eAkOzl4oFhBTvPVhN02MQzzqOgd7vd4DiOsz5czZ3NJc/zxWJRSyKxekI9RZqX48pJ+RSyspC1yq8WEvtjUCjB8sqbE1vK+eFE8TkkRg6C3uv1cLQyfaD4cKXvMvZipePF+FGJfcY2Wdk6d8qUJsgh3Horm1sXYuv8vHiClA817ZyckTaYIvweGGdGQX/wwQfXO1CO42wyvniis7ns7e31ej1iloabhrJzx3Av1Fbp5WST5KcDxpBJKyTiCjW1wmeEC4udqRR07t8Fu73RNuNscnEqCxajWo5oFwY5M0Y+lrELkHEu2BqIiYdAOmOL/fGq+KnVteerXT6ForzQIU5A2i7D88VNPJ5amm+2Wq08z3EOl/VQ/j7DWvuO4zirU7FksuMcbp5++unBYAAxsPgykSiL7TJ47mlWnoqKNcvwci7luFgi+XLdZdvLceyQbBJFBio9HveBpMHIczZZX9wsiiLLsvhixU6ZGC8ng28IYuJZiLsq//XjBexT40eRGozNovzNsUk35tVtfr3wURKHi4wtSSTmh/KlqUyTrzf5SvMffBaLxXw+j4+szOfz559//hoMoOM4hx6PmjsbTXwMNEOrmwMkVBZCaKH1T8AhoCTfJYoXSdRFm3tt1Iajg8Uy3o8VWSxMKtesBSeIl4ey9ODNVqvV7/e5l0fIRILKKDicey0vD+UYamXllYeLhY1gOe98gWK9iWeR6NnG6V9L+PdN3FuZSMwvWDDeTost4k18Pxy/xjFeHtPrGyfHcTYaj5o7m8758+ejDsaoOZ7uTKLmJFKOf+AmP47zBJdyIu6JJHo5tgpy20A8G5fX0kU5gkiMHKs5bog0B5txVcR+v4+HOibw/N2UkDmcfqW+V9aQuItcPn522lFGheJmUTb4umeU6OLXzM4rT5P/OVQm6ubbaf6nwRPk2x4D5zFkPp/Pp9PpCy+8cFWH0XGcTcCj5s6ms1gsohHG/3TjZkxED8b/YcfYWF5+iTdMMtGEQ7S3BrSk5b2J02jTNkQFwf3R7ByONYy8YFNZeLsx3e12+/2+OJUlk1asS3HHusFysdgq14UfblRox9Fxfkpmg3uSax8sJ40WZlA8lAPVRqJWfijfo5ICWm95tUU5fB6/2/G72un4/6eO46wB/6fE2XTm83mn08H2CXYeaaGX3otSHjdjOkhejjcbA0F6yCEVivWTW4JcesgVN0HSuIxm5JAITMpJDSDlxMtjaByvfUEmDzQesVUO52gOXXllbR3P2LQWfnhlTt3C74igB1O4axWutPNQfjyXNESsnUDKG5/xHwe4k7z//vtfeuml9Y2W4zibiKu5s+k88cQT58+fj/o4n8/jf7cQMgc7h9B4PApPRud7uZ0TTW8A8VTRy8VoN1Hkgq2vgg8h6k9qMNRcPFP4jJOFQM17vR5Ieav84iSySl3jQaurnkb0OrEDpLfpOh4UO0+R7HTtrhtxXy/a2RVmvDysYOekdaNmrcNiK2L4HD9HvrYhcxxnU3E1d5y3J2zgTSLT8ddq8ngomdACgXOoJ6ym44C4SqO4GcoB71A2bM3OSbycl8ejVEiTWwLTcTik0+lgKYeQOQ6WZ+UZ/FF0Gg/XOyKdYjcMHTcKk/5fbUfXMg3qfqu1cDU3dTGT6zvpjCjl6fcAxh8RDpODjkMOv5+85557vvzlL9caHMdxHIyrueOEhx9++LnnngshZFmW5/l8Pg+KYopSTgLn+D/7FDuvtBxuG/ax3KeDMpUFB7yxPIngXdoUc3y+cWTik7VxVUo8lYUEy0kAEgSoLu+4lDeIjmuFQ1Mpv3pG3vhAftaaMadIuebiuDm7sK37hRKP1z6xmg8Gg1oj4ziOQ3A1d5wQlv9DQ9j74OBga2uL62l0yqBPaMnRWoq45lA2uUodNzppVyKKMhFxLujk8Fp2jnU8LI08hACLlMNbhGLUHOTbtvMG4xOqZimsC/vy1bJzUpsRO+c5lcH19Mxmg5b+NRYj1qHs4pqdh7KpE2+GnnCbt0WcFCC9xXu11rGyw/e23W7ffffdX/3qV2uOpeM4zlu4mjtOCCGcO3fu2WefhSc+8zzf398fDoehHDgHO+exczLjPFtOC1m9b7wS7uhREeBZTNJnIuK2f9uEsp3jboCmZFlGpBzSLenNTcTOyb0NjyUnDldd3dQaqtsBfkjdTbFCY5Pk1AqQazWnnHLiCBfSrYgRIDc0umBezg/E7fJivAlyIvzE7ZB5sZzlAoLugXPHcVbB1zV3nLfBdh7Z3t7GC2+TRUXwf8k8EfRIOUnbJo17yP9gIQdXotWGq4X0bDbj8+wr6wGBJsHFbhm8VDyXcm7nMe7IHavxNa0l6FpDfGz5p3FpGmwa/Tc0vbJwrWKJpF8d8l3VMnGCfAl5MfFrH8rfW14Dyay8XyXTt/LyMudFUcTXgsLnpUuXvv71rzceUsdxNhmPmjvO28TYebvdhv+StZktRVGAnfMJLfyR0EpEvxFVRttb1zzirPrZbBbn1gcmTCJZmVB+Hg4bebyliV4Otq1NYiFR8/RxqwROasVqxUtgs0rsPKw2oSU9cF4Zj+dU9lMrr8XFtQTJJMdmbGIJT+AOiK2TU9CuMg+TF2g2S1j+WBT/8D1w7jjOKriaO06JaOew0nlRFKPRaDAYiJ6Kl22B/5VjDkxrSW+aaEGBgoJamVAVDiQuDunFYjGdTmezGQ6Z81Y0I+dqToLl2Mvh0VgxTE4yV1mYxUZUMQL345Ag5UaBBnbeQKCvceCcl7SHiKiwbduhSrsDk+PAXNzOEXdVDgJ3cZxJbsv7/b4xII7jOAau5o5Def3110+ePNntdsFKx+Nxv98vykt6g51jHV+XnRMvF9VHtHCeQ1gsFtHIo5pDyJy3EjfJFHCu5u12m+s4fGLVFr28MmReacYNwGq4ej0RHouF/Fp2zg+3czQvb2zkKcNCTtM2WlyGSHnQo+ZcuyuVPTCDJ30rpJA5LmPfZQVT0LGdt9ttX0XRcZxmuJo7DuVLX/rSvffee/LkyV6vB747mUxGo9H29jZf0hsElLyciCyCLrYlxmixl9tB3EJfvjBCprJApBwScAjpQHwlKkSycTrLsrhUeQgBJrFgHYcEMcWIbeeV47NGVhF0rWOZFHfXwsaVh9iZ2qZdTMu0cypd3BiQoAs6MXWu6UFS9rqyHsryTTpv3xqRkpqgw3cb/uo9cO44TjP8MVDHUXn22WdxsHyxWMT52cePHycmGu1cnKTB1Zy4dZDi3PgJs6B4D5dvsaoCTSsnas5D5vEhNug8rHgILwwi7hLVXPRyKAOHVC7PIp5jkytXHyNuSu6U+I2Tfftk5IubDUw6Jb1KjkjKpTFGhv8V8IQx8oENPvn+B/a3wHO0P5bEMuSp0PgMKObNN9/0h0Edx6mLR80dR+XcuXPPPffcYDDAstLpdC5evDifz2+99Vb8v3iUURI1J9M5EttN1L5CMnhOlHLs5ZDGyhInne/u7h45cqS/JBq50fOo78TL4xT8wDSR37fApzEODSjqh8PhEDGGXRetEjte3iy83czR7XrEHHJGKYFzfsNDos4w7GKCHK7Fy/kmboJ0r7LbKV8AMUgfF3fCv5VtbW3Z9TiO43BczR3H4uGHH37ooYdOnTqFM6N6vv766ydOnMAS3Ov1Qgh8cguhQTdEQefg/Bjp55FySMeQ+WKxKIri5MmTg8Eg6vhgMADJruxtVHOyGAvswsWCvjwLPkcjel13rJoJulG+Vpea2TnOr8y8SoFzbQRSpFYrgEU86C4uJvDhlV4uCr3R55QBEY/NpNk48ftM/kFwHMephU9ocZwkXnjhhSzL4pyWOLllsVh0Op3d3V0QU1jDW5vTwtWcR7v5ksnkjxQOIWVIJSRAzr08Lszy3ve+t9/v88h3NGzorSGs+FjxydcMzcdNmcSyCvY/aI3vi2DMjc9a/RGvqdFJWx+vkqM3QDxf42TJfVRgQ1o55nyT/02JOfyPzs7R9uJpLfAvA0xu2dvb+9KXvrTiqDqOs1F41NxxknjggQeeeOKJuPYCBHrn8/l4PI4/W+P/ueMTkDhqnjizpVJBIG1oxHw+55FySMS9RVG8//3vF1dWiTNzwKdxn3HPi2XIkDz0aajhO+vlIcGAG9QZzCkQ6bFz7XA7s4GU12qrLvwbApniphYs18LhRdUTn6Tyys6I5w6tGKeJKySXEsfOPXDuOE5dPGruODU4c+ZMG9Fqtebz+e7ubr/fb7fbcZo1fzBUI5Sj5jxerkXNtWJ8Wjk28sh4PP7Qhz7UarW4kfNp4oaaQz489GmrIY+ar/fSNPunrLIb2s0SuXGq7IO4y5a/yszVA+d2/lrg58jvNisTxs2qVhLDc0R4LDzxLaG4PPywFgPns9ns4sWL/jCo4zjpeNTccWrw4osvhhDuuusuLOiTySS65mKxwM6Np55XUil/OCEqgiHloOa//uu/3iqD1Rw6H6rUHMscn5Iu6iCZYp444OlDt8qxdfsjXiAbMQrLM9PtWRzktQfLxb21BhxqgKNIwLtgMfIgBdEL87lPUob0nDStnQXualaetq6dvtjhuCsGzjudjr8Z1HGcWriaO05tvva1r8XEnXfe2W63x+PxLbfcEo0zhs1iejqdQjgZA7JOrKXSzoMSMo+zWrGIw8QVrOa/+7u/21IAvU5x8aAroJHGwXJNehqwipeTSuwu1RJxEc3Ogz4glZmJAfL0ylP2arvswYEzhU3NwoOk6baIaw2RrhKr1k6BtJV+IvBXgxN4IVHHcZxKfEKL46yBRx55ZGdnJ65tEp+hjJNDYqLdbmc6gT3TST5jE6CGeFf08hgRJ8HyyWQyHo9hHsvHPvYx0ijvRqhSOlv+7ErESSwrCvra//kSTS79xmmNnUyR6UQvT8yx8xtgnLj4W5CdEDcrPwGyif+ORMQJY8bh+E8SprXEzzinBe7nHcdxbJJ+anccx+aZZ54Zj8eTySROMIVINk5oYHXQPjUvnyNw1Dx6+XTJRz/6Udxb0ZmIW4sGT3aJ4GLkNUy8MJxaA9bu5aHcH61+zcs1yavVAXF4eSbftOvktaWUXBF+48f7gBOkDyRh3KsYn+LQiT0kJbV6tKugHZ5lGX5w3HEcpxL/98Jx1sMTTzyxv78f1yXEUg4Ydp6X3/opyh+P2IGR49nkMXA+mUwmk0lMf+xjH0s/C+JMonkYykWq4vWINFDYq+HlYuWaiF+b/mheu65Nu6E1YuhvYPLNE7yY2FutAGlaU21c2GiocoR5K/1+Xx8bx3GcEq7mjrM2nnrqqcuXL0+nUxIyh0WORSnH+aHqd/l8+UpwvOgKnmIOXh7j5R//+MdJJyslstLI6w5L4iHpgn5VvfwaNKGdacpANTNve+9VlXK7Ra3/dr72yTPJN1b8DmcMrXJyCN/U/nC63e6dd96ZPj6O42wy/hio46yTyWRy8eLFo0ePbm9vw//NUcVgTXQtaMenrwQWNceTy6PxYzsHL59MJmKwvDCfvxTFyJC/omr5Z3xevKpmha+Bl5O2KoPo9tSXq0fleK5egJRc4xllbDnwQl+bRcvnn1rPI9q3ixyYsQdPxdMnmVCeeHmWZfE1ZM0GynGcTcP/sXCcdfLFL35xOp1eunRpb28Px8tx+Nye2SLOPo+ZWMqxkUcML28QFuV6IYYGa1Vea/q1WLKWGhZpGIfXbTqxZhExNFuZY+y1Nytrw8V4MFi8t2wGvyHUei7mp3yKPefnWPmd144V6yGb8fW6juM4lbiaO86aeeGFFyaTyaVLly5evIjD22Dn8/m80s757HOyEgt5+jN6+Wg02tvbw4uxhIQZugailvF66la7oqAnHriWkjxw3rghzBqNttlmSgdqFVtF09Ol3PgaG3aulbdNXayNFBC7LdYf3xnsOI5TiU9ocZz189JLL4UQzp49m+f57u5ut9vN8zy+nwhCqrCiYjyEzI7An/DEJ4maw+Z0Or1y5cqVK1fISixBmprSwM5JWpxvoFHoU2i02QVGyUSalcfdEI2cX5pVGq1LpQumHJhy7Cq3DZXfh8QDM2UeSyh/8YwvYcYmpYhoX0KxCePscPdEfHVzx3ES8ai541wtnn/++b29vUuXLo1GI3g0Mwa8tcktkINj5PGBTkhgJpPJlStX3nzzzTfeeOOjH/0oF4LYk7pyRlixtsppHs1mgBjNrXhg+lQW+3S08+IjlpJjkH5F7Gp5/Pjaw79mWsL+5BXyXUEP+adUro0V/xu8HgbWcZwbBX/lkONcXc6cOTMcDofDIbyNCN5DFInxNkKO3mYiPvc5n89Ho9FoNLpy5cof/MEfYAkQuyFKhqjyRjpUvQimlovYXW3G6v+gZcvwp/E7hrYp9qGZiKf75SqbRmZjVplKxMdTSxhXx/gUyaU3CuX6K8AK6WVDYhrfaU+n04sXL7788stNxtRxnE3CJ7Q4ztXlxRdfDCGcO3duMBj0er1ut9tutxeLBVbzIK2QKKp5ZDwej8fj6OWf+MQnYkMF+tkdZAuMWfwkFOZP/5FMmleA89PBfeP5Wift2lbHVnAjc43dSD9xu2Sll19voVz+ddIS4vctU6agZGxaCz5W/AZWVpVyofFNb6vV2t3dbTgujuNsEq7mjnMtePbZZx966KH5fN5dAmoeC2ghvaIocLwcpHw0Gv3e7/1eXJGNKEtAkg3akWjnGiRqS8xGlGzRXWqJuObunHV5uV2t1orRerOQuVGglosbu643KQe49dp2Xk3dtlAAACAASURBVMvU8S5ckrco9qSyw/iXpUwidRQcx9lgXM0d5xpx/vz5Bx54oNfrRdUGO497QcQD0/RYfjKZRCkfj8cHBwfwxCfR8USd5XZuh8xFW2oQMm8g4ldJuw3sGLkRMr/GNJi7Urnr+oEob6KdayLOv96VgXNyrNGEcbNKAudrGhvHcQ4zruaOc+144YUXIP3EE0/0er1Op0OMPDBNn0wm+/v7ly9f/u3f/u340iKyRjKPmkdEV1uLwBnOlIjm6Ia7XxtsBbfPUQy+rpiTGDKvpen2bdg7jvil0r5ptRydtEJySLWRxpXjW02PmjuOk44/Buo47zwPPfRQkOa0TKfTn/70px/5yEeyLAMph89IYA9fij+gYy83PvnhKTaJdVY7yuaqWkutyu0YOfd1LS22u0Y1r+XiYo6WuSLp/6ck3ueII4wvhHGNyCe/+y2Ux0BjPn7JQOUjobweKJDnObx/4Pz588lj6TjOJuJRc8d558H/W3/mM58pimIymdxxxx2dTieG1bXQcpEwiQXyU+w8hRT3sssYcv9OyWJWXn8GHyg6YmKFdk7lUc1C5unwr9Z1iBE7N2LY4i7xKmt/XPgetTBnsGiZcKCHzB3HScenvjnO9cU3v/nNX/zFX/zwhz+Mg3xBn+Js+KK2q5ad82ii0flE/zCqEuOXDUjpBm8X0kEfvbr5BuvStZRvhdHtBj2/fqj8GpNbU7JL/H1J/PmIV5JyT0vKuKA7jlOJq7njXHfM53P8S7pYxtZHgjY7xdYaW+ZWVGFcVa3CiTq+SpfETbFCrZVmIfNmHdN6km7n9q7rlsSfgyoPh03u4iSnsiExOg5l3Msdx0nBJ7Q4znVHVPOom3meaws7FDVnIyRaS6Wda8H1lGIi6/JCqCcrz1tooES1BL0Z2jCS8U/fXJHCnBZ1nWDcCxXmk5pZeToKr0r7zmA7t5sgndH62fjcHcfZEDxq7jjXHU899RQEznFImEfKjagzKSZ+GgfaBVLi5bWC3DZ1q+JindguPzBxE6dTQuaGoq2lD+k5vECtS3O9oQWzSQHxqCDFznHM246XixXynDvvvHOlM3Qc57DjUXPHuR6Zz+e9Xq9YLu9AfmePFOwFQ5UUyeu+iQUq4+W1goJrVECoCjpgjAlplxezbXgt2JesaBo759WKOaHqSqWUWZG1jGqmP5qpxcvFq2/8LQRlSjrvhvE3BcWyLDty5Eji2TmOs5m4mjvO9Uh8/Wer1Ypq3mq1YjgzaroYDbV1DXt8zE/8aZ60YuzlBbRiiaTYm2GiiXcsWiu1otdaf8QcXIOxd112nlJ/gx5q5d9B+Ne40stT7j9JKF38q0ms3HEcpxKf0OI41yNPPvnkYrHAE1r4qsnkEC2TfOLCpDbxU6xWrEQ7F94WqVwjZaB4YfE0U6rih/PNlENqYY9bs83EU0gcmfSLW1lVZZfEAjhdeZ8gzjYRi2kKrhUmsfOUhnA+pK/qbxGO4xwCPGruONcp8/m83W63222Y04JnthBFAAoU6Sz0R+L4Xq0b4i/+ol7gyiux5SzF82rFy1P6j4vV0mK7Wt4ZrVFeSVEndm40ml7S7iQe4cpD3lkyZX4L3xX0aS3wJ8YR/3Aq/5Tcyx3HqcTV3HGuU+bzeafTIQ+DYvI8b7fbthBzOw9Is4isGD/Qp5tupeUb9dQCdx5yDDtPb1cT9JRjjQrTb1qa2Xm6jjfu3nVo5CnzRiq9XJNyGBl8J0wMG9/xNrildBzHIfiEFse5TolzWhaLRVF+Zzh/eXiQZh2kzBnAx4pAPSRTqyqlRV5/XYzW8d6ULtm9TaknvZXEUeJ1pm8a9ad8H1L6Vgvtel2DnkAl4qwS2OSibMS28S7ymxVPkJ6Iv3E5juNwXM0d5/olqrkRODc0Nyhzx0kTdklRiDVL1tTZQKtWPDu7IdhM6Wpilyo3+bGVDSX2pFY3yCknHiU2WuvyGZXgqoxL2YDGdsu9vFnlfC5ZYpfcyx3HScHV3HGuXx5//PHKwDnoDvch4xNT6cTagbzRlAp55SnGJpYhmeTcU07TaM7uj91Q5VEp9fNRTdzU0olNJ547r5ZfjsSLa7dey2jFLwkvVitYLu41zN6YuOV27jhOJT7X3HGua6bTaafTiQspcrOEtRTx//1Feepwoaz1Rhoq0p4KxWhTzNP9o9ClX2xLVJxCmm8tnqPWgcS99ibfZXdAO7zZRPOgjAMvJuassf/irga6n4hxd2SMMNmVPk1cnBIDw8X/DHGX3Msdx0nBo+aOc13z5JNPjsdjWEhRm24Odm5EhbGviHt5MJ5UlRgW1Q4Xuyd2O7FpcmoEMTOFlAMTyzTog3jVEje1Xdo1qtsT7YqTAmL5xpfD7tWKB9rBcpEMgTOb9cpxHIfgau441zuPP/74aDSaz+dcmsWHQUXxFWvm2lSU7R83wafQaFUZ3sYzje7xYw0xJUYo9qqWIKa01aCeFZuu1TF7M6VvleMmFrC/AynU6qTdf6OGWj6d8mxo3Todx3E4PqHFcW4AxuNxu91utVpZlsVXhELcDi95DuX5pI4iYUILpGGeDMydJUeJEwC0+S2kS2K7tn7h04GS4jmShkRPskVtFRHUMDpjHLL6VBZxM0hXqu4cpJS9Ysmraq74u1R5HdMnbuFD8J8Ans0SypNbcH/w4bWacxxnM/GouePcADz77LOj0Wg8Hs/n8/hUaIQEtkEFKmOQWowT0qR+cZYL6WTKXp6JP0V4r/CxvGaxoRTEyvlms8obdMzog73Jd9nHijlBuSJaV8noVZa0K9cuRGNWrIfc93LJdu12HGdduJo7zo3B008/DXYeJ7fwCSdFeeo5NtqgyJyoU/jwyqnnmrfZEmb3jfdTS/A+i2dXC3GgxF3NKheHq25P7E3xcvBuaB2r7J5WUrwi6dXaPRTPQjuWfPLHNxO7AYXTJ7TYPx85juPY+IQWx7lhGI/HrVar1WqF8ivE8zyP6TzP43SXWCag13zGzYK9FpQnQvm3/kq3MEREXAoDb6bYOV8BIyuvQgMH8lOwJy2k+Nl6vdyoHNNsKktgGmpvijnpnTTKVGo9z+TTk+r2RPsWNf4OkD+KUH4ANGVCS63+O47jRDxq7jg3DM8///xoNBqNRtPpNMbO8QuJxPVVtAc3NWOGmB9OhITZJkYrdmHyqdVvJ6A52NREjXRPOyk+SlpDVwP7YvFNO0fcFHPs0RD7ScZc3KxbrdZW3UNE7SYR7rqHayV9QovjOOvC1dxxbiQuXLgQp7XMZrP5Ev4SInsWCq4QNsUf5bFzaLUlep5WODCN5odoCV6eF2igdGRktEqaKWaD1sVNMYdfiPQCKV3i19RoK6W29KZrHV4p5Y0RA+dkb5C+PFf12+I4zmHC1dxxbjDOnz9/cHAQl1MEyMLn2J9gE2rgahsT3DNIgssZ9mBibMYmSQdFX3gPScIwQnKOa4TUWcsv+bjVaqgyh2fytrQClRgnJbZVtyrxrBNzgBQpb+zoq0TZr8ZX0XGcQ4mruePceDz33HMHBwfwSOhisYifZH4L8SG8hEukYMobqsLnomal2x7fG8oardWckuDnYvfHLiNWyCvXMsUzbVagbk5glsyLJQ5CJUbl4pikQGrme9OrSpFyMRDOI+JG07ykeOCKw+I4zobgau44NyTPPvvs/v7+ZDLhdl6Ul1MsmKYHMyAdJKHBgs6r0qStMsfuFTlKS8AhJJMU4JDWtTJi2qiqss66/UnPqSzJy6zSYVI/qWfFAREP0Srh+ZVSvkrs3J7QItYMPTx//nyzdh3H2RBczR3nRuWZZ565cuUKfiQUPrW55sSctEQwVUYMn/McLZPvXSURJCMUPxMRx6puJXblzUqKOcaxpPNiDi9QF6O2lNOsRWKdtaavNBB0sRspIfarNCyO4xwyXM0d5wbm6aefvnLlCjwSimPnOHxOiIsthhXsHAqDbaQ4HN8MTLjFQ7REKOsO30U+RXijYhnzOqiIlRstiiV5AbF+o/XKw5udnVZhg8ori9lXUMwXHV1z8VozWAKLnRs9D+sYZ8dxNgdXc8e5sXnqqaf29vZI1BxPbsFoaykG3c4rJ9FyQtlFSI5YoJA0WizA6wzMCPlJaV1NsaW6RlWrcl5ePCNSlVizcV4kh1+FxohNpJ975UlV7hKpO5sFP+ic2IRYMsXRE+t3HGdjcTV3nBueJ598ktg5wNdVFEUwUkh2G/Sp50EPdeNdQbJPIyconifWr3VbS2tI2vl2f2odW1neriToZ8Q3jeZ4Ab5ZeWzKgIgXy67fbpdn2ocYmY0nlCc2BNix8xW/G47jbBSu5o5zGHjiiSfAziM4nZchmiXqGtEI+8k2TeBswzMOwdWKHSOd55viJ+9/M2fi3a51iJgvpgOzVaMGrSdiDTYNTp+3kjAqav2J9dRtxQiWiwObWKcm5YX+3XMcx9HovNMdcBxnPVy6dKndbg+HQ7KgChQoiqLVauF03MyW77QnFZLMDL2EPN1KSZlMf5O5KGRQXkuIm9pn3d6uglGVoYD8jEgCF6usmVx9npneZ4IxJ7vWGCaeiHZsej7+AiR+Ger2pzJqnliP4zgbTu1/oRzHuW45c+bMTTfd1O/3u91uZ0m73W6321mWtRBxExu8sR4cbqIyvGpIm+guxPjFwmRxGEjY+bxMYwtMYRXb48dWnqlY2GCNUzs0Gp9Fg77V8nKsxfDJIfn49yWeFj8XZWI+fgLkqaeeqnumjuNsGh41d5zDw4svvhhCeP755+MmllEcLy+KotVq5XlO4uuioOO0aDMYOx5plMef0BZP4wQPKgcUdSafjYYziXUZObktsc/UuP/he3GZNd6ciCF5uyGNuoc07rB9YOVtZ4Om8RfbcRwnBVdzxzlsnD17Fuw8gidCtFqtGOHD5h0UO4d8CLHb7lJLQbR4OZfyoNtq0CdFiG1pJRN7rvmoRuUo8RFI8XJc2K7flvj0zvOGeFViTi3hTilc695P65Xt3w2o7JXbueM4ibiaO84hBNs5jnlHLw+SkQfFziNRm+Lh4DSVtmHEKfkuopviJvfya0x6u7YmanZe18t5K+kB9caavnptdiuGoK/9uhcSlY2Kl0+rP7idO45TB1dzxzmcYDsH4yHB8srAOcxKL9jzlOlBRzHEmxL71ALnPLxaK3AeTPlbnRRXExNBuQMRf16AMpX9qTvsiVWJh0CX7L5VKniDHqb8QJEYLLdNnVdum7cbueM4tXA1d5xDy9mzZy9cuACG0el0RBfnCZDyKFh5nuNNEjsnGCKY7ihG4Hx1Vg+6a06ZaLcwdKKdi15OCuAWr8ZthnZleT603mBIeefXGy+3rboyWL5iE41LOo6z4fgKLY5zyHnuued6vV632+12u3xVllD28hACXr8lfpJN0PRmsU8RbKJ2MTEt7hJ/DbArWaXnKeAfHEQ75z3UGsXF7DNa5Ry13xlSLhP/NLoq1p9+ayfG73lOXfhRsBgLSRTLFVrwOi15nuMXgT3xxBPGoDmO40Q8au44h5yHH374qaeeGgwGeZ53u11uq8RZY4wcf+I4Lnwa4VKuWaInifF1W3MNfa8VP24c6+VN1Kohk2aK4xp4jtiB4posPoPBXSIXNLEPtW6rGvfNyDH826hZlHXeip3pOI6Tjqu54xx+HnvssRDC888/XxRFXOM8mEuycDvHn0VRQDTdDqaSWCn3uWbuUktMuUeKjSYaYQMlTSRxKPgtzTV2dGM8xWC5GDvHhxubdtPropaswyE4kXI/6ZruOE4iruaOsymcPXv2/PnzcVpLMNdjiQ4ExUIIsLQL/HYPC6UHZGA4h3eAx6rFyDFgOLSopA0MVexS4rFGCD+lXXJ25F7FMDly7tfSzjUvxwpuqDmvTUxrzYk5dUPmlecYmKyLlRvt4oR7ueM4dWlVF3Ec57Dw0EMPXbp0aV5GfIUhh+Tj9yBiiSGaTkLykBmQAPGa8RRerRtiB8QKCYHJk7iL74UyayQrv6UVbnhsz9bGrfLcVyEojktu6niOGCzXvFwsnw6/QAVza+MEtTqL8rcCJ8QD8SFGMcdxHI4/Buo4m8j58+fxpBScjpvtdjtOfQFlhDQvz0OkmmDZkoeLVZ4Cic7izFDli4G5r2aKWrtiSbjlqDwjOHHeFtyWaFXZveJn19h0M2W5SXFUA/sCiJ3Ruk02RRUWcxJLrngfgsHPgPJPcqMLj4E+/vjj+kg7juO8jUfNHWcTeeihh954443JZBI9IwbLOZV2AptimUKJQNuVa82RXnExwo3aFQYpFIp3iYNmB3TJXYF9LL7PwXdEcFOEZxOlIA7+iuR5juvHJ1KLyhETxyfxxHkPeU7ll0GsTdxFviQFu+Pim1oTjuM4Ij7X3HE2lC9+8YshhC984Qv9fn84HBbo4U5cLIZO4QHQ+NKiKI4xjQ8p2BtnCl1/bTGq3MzYujG4TLvd5mdBWsmklUZ4DjlE7DCH1xZYbFs7EIhyXMvtsI82EFyxbyQEDlfcSIeqOxm7xWbdJl+2xAONryLJx2NLigUm4obBO47jGLiaO85Gc+HChRDCQw891O/3t7a2YKnEUJYt8HIs5fhJ0CAtHhITJJMIutYx286hOa2GxWIRu42D0JiMzdbAm4X+bCU8EZuCKJ2Vgl4sl6eMdk5+f+AltdZhkLUyvCdaQnTuSjXXOsY7gDfxrVdgzp2CdkNYeVSloHNT1w7Bn/j3B8dxHBtXc8dxwvnz5x944IHZbNbr9Xq9XnxvKNYm0CMeNY9pMUwuyhmOmhtdSlFz8UDcjcViMZ1O22W0wiRfDKhnaO0azclsJSWjKqZD+ReJKOjiiGF/NRrFvWqQMD41R6889/Rd66JQEIuJh5OEuDcwLw8hzOfzNZ2E4ziHH38M1HGctzl79mxvSafTifFmCDxH69IeCcX1cNPisfPKzhh2HhdZF8PJ0BBxqXgi8aRETceVi4HtrPw+VK2fBqKLi2NVsFdOGuHzytshLZ5t96fSy0PZ0SvVXIQX5pqrZSYWTkEsSTK1pz8L9hgofgnofD7/r//6L3ic4+/+7u/SB8dxnA3E1dxxnBL33Xdfv98HQQcvB5fF0Vws6CEtJMzVWcMoABNsQIl4Q0FytU6nE+28s0SsHLsm7rlm55Wno926GIFzLHz8KVhSP8kh1fIgt9iH1e2cn0WtMeHXS4tV28qOE+kiXino9lPI8RPUHLx8Pp+/8sor8LB1zPnbv/3bxFFyHGfTcDV3HEfgzJkzPQSEmfnrikIIeLERqCElIhtMk9P+dcrQjBosr2J5bGnxQKLmfIpLJv0UAGeqFdB6zsskBq35CWI7J9OX+bmLRs4D2+vycvJZl6w8s8g2b7sk8fKgC7pWwDjEDplHsJcvFovJZHLp0qUQArbzxWIxm83m87kH0R3HIbiaO46j8uCDD4Kdd7tdWOycEJDRxgPTzS8lkwBmXLDJHjFByuN/5fC0FrBzHv3Vfgrgs3qymg8pJt6xBDStRVNzcjdC7gcqvdwQdEO4jcygX7LEAQnJzp2YSLHtdEHXjLyQJrTAy7z29/fn8zlcLGznseR0Ov1//+//1R03x3EOK67mjuNY3HvvvXh+S7fb5e8bwqpnqGeilJNqOdibRWeFT35slmXxBkOc1sK1m/grLpCx2HnlP6eVdyNaeTt2zn00oDFPSfD+pCt4rROpJMW200vaUs532TnaJBai5ngqy3w+39vb6/f7pBL+ZqK//uu/Thwix3EON67mjuMkcfbs2cFgAIIeyg5N7BwrHflHRvM8rvtQD66BqLMRTgZtIq1nWQZeDnaOp9Hj+skjobaapwtoIsSMwe3IKYeylQKJXp7i4pWZ2unXHZNENa/r5WFlQU8JmRdFgb08zmbBPyXhYjC/BQT961//eq2xchznUOJq7jhOPc6cObO1tYXXQbftPCIqFJddDndrIs0gqVF0sLwWUvg8yzLu5Z1OR5ysgiP0uHXcAaKzInhv4r+6ovTHASGCLno52HkwRZwkQh0dt728UspJAVHBA7vr0HbxY7lqi0Mk7hJLGl4OV4Qsz3JwcLC9vU1OPKp5LABHRb7yla/Yg+Y4zqHH1dxxnOY8/PDDg8Fga2sLL4Uu2nlg0y0SgbbigfiRUzynBSyHaBOR17DUa+LlYOeil+Nz4XcRUK02StiGiVwaaPVDAp8grhlkESzTEHSu5qTbob6X15VyOB2c0GxbK8D3aoKeouO8cKWXF0WB12CJ5n3lypUTJ07w4c3zfDqdxtg5tvM8z1988UV79BzHOdy4mjuOswa+8IUvbG1txRkvQZkvXqAweahj5+SfKeLH0Y2wmmuTDaCeLMuIl3e73fica6xTC5xn5WA5PhdjcHAxIo72IWQAtTS2c+KR5Kxxb0VBx4WNRht7ubZX8+xQpeZieaLXYmatXelejqePT6fTvb292267Da8ChL+x0+kUjBzfYcZ39DqOs5m4mjuOszY+9rGP/fzP/3yv14uOjs2SG3lItnOoPzoNtmcQnWL5EJ7m5Vhes+UqipHo5TEtTmvJWLCcn4g2JtyAuTiKh5DRIwmeSXS8YIJuGDkZZKMVI7NyHLRdeBBE1dY+xcKGcJNjjTTeTPFyPHE8Xy7AMhqNjh8/Hm//4PTxUXEJRa7mk8nk+eef14bLcZzDjfC6DcdxnGb0+/1+v7+/v/+Tn/zkxIkTvV6v3+9H340FMhaX1aID3OSgZJ7nsZ5YLbGuUBY4qCrLMnhfOhZ0brHQsdgK2eQnYoCPxQlyuFGVVgPPxKcTgRczYd0ktxP23YXt5VrhxPyUAdSOEkePKLXWSq12tS8VycTATeBiscAvoA3Iy+PrbOPEKmzn7XY7z/NOp3P//fe/9NJL6f10HOfQ4GruOM7auPXWW994443xeNxqtd588812uz0cDvv9PqyJDi8WJSugF+VIbSg7UFaeBwJyA7qM4UeF5UQUPOkcSzmR10Q7r8SwarGToM5ibbadgw5yRyeCDu2Kao7P0ZZ1o6t2gWZGXnkgd3HDzuu2SLwcbxIpx+nFYoEnTYXlLxvg5fGz1WqRSefz+Xx3d/fzn/+8r9niOBuIT2hxHGc9fPrTn46egf0b/oXZ3t6O4XMs6DEB7/0xCJIJgd9zL+eTrYuimM1m4/EYygwGg26ZqFDiVBb8+iHNazFiGRwyx6eDE1CSnD7sIonA1JMExUV3JD2Pm5rLpsTOxRHAmyn/1+AyuDNEhflns03+jSKbeNC0aS14Igqebj6dTk+dOgVejn/h4bUVy+UU8VOk4/H4xz/+8Te/+c3KcXMc5zDhUXPHcVblU5/6FHFumLQNZabT6XQ6DSHArG78Ms4sy/Cjchywc2xRi8UCa25gElmUA9Wxe7PZLDBnBU/CwXgSSMafpG+iyxYszo37w4/SKJRJLJCDSwZm23BfUZQj6EG6bcDnKw4pT9ub6edYKz+U7fwqQbSeNMq/P1i1yWwW8gXOlmucw/cwy7Lo5VCm2+3efPPNV+/sHMe5PnE1dxynOX/4h38IIo6XIyReTtRtNptBQBrijhla/ISDjVzLCczFSW1RkiaTCakBezmx86CYt+jouEXDyzWz14yWFOAuTtL4LgInQgjR0UHQoX4cYtcugYZYvpYx19XrxjrerFeJXo5/qImBc/By+GLHY/FvF3AgXCxoLs/zfr/f7Ewdx7lxcTV3HKcJn/zkJ+Oag/ETljfB647HkjwRf/RvtVox7C0W5nAl0orhCgmxn9HOsVTxxUw0tzb0jgTX+bFBunkgNwCVIyBukjSRcpIIy+XhsRTyMSS3B2I6pZ8NSvJ8rMVipligMbW8nHx5YvD7ve99L3g5UXNs5EU5go470O12F4vFI4888swzz6zlpBzHuSFwNXccpx6f+MQn2u12r9fD87NBQSq9PIQQRQRi58TO4dd/juHl/BCxkqjm5G0v3LSIyBJJxf4Nu3jIOd3LeYd5PeleHpidBzZ3pShPdBHPS+szH9VmiBotngsvkKjgzUy90suDOZsl3nnCc89xwPFQEyOHzby8OH0IIdp5g1NwHOfGxdXccZwafPrTn97a2iIPTQIgIoFJOVY6cOLZbDaZTHZ3d6PN4GLwiCeAlSVFEEmoO26CME2nUy7lBG6omuqJJRMD56Hs6KIHcx81TD2UBR1nij3BV0o7hPdNK2NjuLJ9Rtqx2sjYUq7thS9YKGs0qVaT8mIZMoeJ5uTmkx+OBT22ix+6iIvuGyfiOM7hw9XccZxUPvOZz2xvb0cpx4uxYGw1BzWZz+edTidOazk4ONje3uaxduwo2MtFRDsUQ+kxcA4vJ9IIyryOQgot437WCpwH5OWVEoxNXRNoXBVvSEuQU+ObYruV+biAsTdIbi0m8Gaiuyd2gBQmTRAvJ4skkm9OXP0wejl5U5Vm9hAyx9exKIpOpzOfz31Oi+NsFK7mjuMk8fu///vvete7BoMBjpFzKc/K6wwGyTKL5cNwkB6Px0VR7O7ukgPJ8ohibSJasTzPe71efEE6nyIMz4CCMJFPXH8hRZTrBs65l2s+jUdPFPGgK7JxLXC1+NTImYqta70iFdqI2s0Too5rjp6yt7I/4o0Bt2ri6PEB0Pe9730t6T2y+HtVlEU/hACCjhudz+f24kWO4xwyXM0dx0ni1ltvHQ6H5LVBXMpxjDAeiOPlkSjBnU4HS3CWZfv7+9vb2/ioEEK73V5FyrFYQx/6/f7x48cXiwWWckhzOydVwSY/Wd4HzctFs9c2xV2FHjtPHyUeOOeb6Xae2Lp4iOHEvGY7x+iJdieQ0odKYDbLcDgU/y6wkUMiGjn28oDuK+LEGO10HMc5fPgfvOM41Zw+fTpOZYlqDhNaRCMnT4ICYDn4dS1Ygjudzng83tragkMyNrMlJDg6L4Dn8kbd6ff7ly9fFh8DBaDPPLZttEusV4uXix1OMXI4i0QvJz1P0Xfi4jyn1m2A0Su+iYfdS5x3eQAAIABJREFUTqRsinVq/dHasl28kCaa4wla+I9CVHOw84Du97Cae9TccTYK+qCV4zgO4a677tra2ur3+/GhtDjXHBZMxK8Qgr3iJgB+z9dbhAc0F0tAYsT4NIFE68GGYw7Wr36/f+nSJdHLcSY5ym46fZN4P+k5PyPR5vnJajUYXeIKrm2Kp9AMYvncVkkxUdxJJZUN2X0QOyNuGo4evfxnf/Zn4TclvK55i0Ey8S9R5AVejz76aL0hdhznhsWj5o7jWPzxH//xsWPH+v0+D5lrU1nI5NpYDyRidJAsXBjK069htZbW8h1AWdUMEJ5veF5Mz2YzLWQO01qMhuzW8WaDMH9KeD40ndPSLHDOMxObw+W1nEQpD6aRa+IuFsCZteCPKEBCnM0SyrHwouz6YTndHL7qofxLS7xf9TktjrM5+F+74zgWR48e7ff7MWQOqyVCIBCLOJnWgoO42KtivjiTJCCXxYpMFhpPl3KSID3BT4KS/uBKjIB0KIerSXy6gabX3VvXy+0CcLJYXu3NykZFRQ4J8l1ZoLKJyjLpLo4RpbxYhsxvv/327e1tsooo/mLEQyBRoJlO5DO+kAsi6JXn6DjO4cDV3HEclfvuu29rayu+XYh4uTHXnICNCkSk3W5rM85BZXAoEcQdG3xgrkn8pihHKInbfeADH4hzWshNQlBMjgu6aKUNNL2xr2Orq/TyumTKY6CGnadYcmhk4Q0E3biUiVKeDoTMt7a24tPSoXzbBt3I0Dxy/p3Eu/AfkUfNHWdz8L92x3Fk4qOfvV4Pz2bBk2JTvDwrh3XhbeQFeoQuQ+9BjCXBXMkP/QHJKK88KFIemIrh/vB8UidBPLVgKrhYRiwvHlVZIFHKC8XgC/MVSLgJ7pe45sqmxRzRTesmSLVGfxrLNwZu5+D7E5+LuP322weDwWAwCOyBTkxWXjWoKAr4ksNnKH/TWuwNXI7jHFb8r91xHIHPfvaz8dHPfr+Po+b4Oc5EyCHwA31Mw3Oi+ME4bPzgQIHN0MWKhrWJixQUJkqN57QE0yBtUoLilV4uGj/ZpRXgtWmVpJyOVifetKtK19xQvoOCw3FCu+i4LbsztbpkQNbZhM/43MJgMNja2iJPf5IrDqqdSQ+GGje6Tz31VOplcxznRsaj5o7jCMR5LJFutyuuI4ElwybWCSHzbPly8hBCfCFoVGSQHiK1MKclY6uMx7QoeUTI8NlBN2Kj5NxJ4cKcTo1PUNTuFC/n9ac4dMpRtrNyCvQwblE1myWTHvPljfI+GDnNEimZ5GtQy8XxRHP+GUPm8YVcg8EAZrOQ5sitUbb8IQI6Bs9UhOUz0Fn5WY7gOM4G4GruOA7lU5/61G233QYhc/LWTx7hS7FzIrjxRULx2GjnccFE7MrYbvniFXGXaOehbDxczcNSqcG3QppB8hrwZqjv5elSniLrxlHizUl6JZqd48pTNF3MqawnUcq1AqSJxmh2PpvNOp1ODJnH1+VmaEJ55T1YgVYEInezOLje7AvgOM4Nh6u54ziUOMU8xsvxFHPu5S1lzURCrJa4RYbWRoxSDoIOiyfio/CMcw4XcWLn/JCsvFBMkCRP1Hp+LjizsZcbdWrgvZU3EsZe7RCok+u4CBku0eCNY8XNVQQ9rObiopfDZvyMX9ebb745hsy3trbIjWghTeXnm9jOA5vClDj+juMcAlzNHcehnDhxgkwBN6Lmmp0HafI0Vj2Q8lgVRM2zZSi9QHMAePS3YEt6i0YuahzU+Z73vOcnP/kJ93JCUZ5jY2huMy9PlPIUTW8gcPbpcDsXhxQjjmctLyeZ14OU5+V1NoG4KkuU8jjRHFpPtPMCBcuxnYeyoD/yyCPGADqOc2hwNXccp8Qf/dEfvec974kv8sTPa6ZMaIE5J1jNg6SzoOBg5+Qzy7Jo53AIDxwS+9HsHB9CLLlYThTmKs83bSk3Wgm6l69FysWSiY5eWTM3clK/ZtWaMfOSYjdSvNwW9HUZOdw0FmwqS/yi7u7uDofD7e3t4XCYlefoa8MrXmL8BcvKJF5Nx3EOAa7mjuOUGA6HnU4nRs2jOttq3mKPqWEdF9UcbKMoTzfHXh4hdh6Bx0kBItZYzXGj4ieOiZIKIa2JERF3uyGxAO9hg0yxe1lCED2lD5qRk01N0Cv7UHm4nRDTa1FzIug4B7w8z/OdnZ2dnZ3d3d2dnR18iYvlU8v2IIPHi38s8Jflau44m4OrueM4b/Pxj3/89ttvj2qOF0BMmdMClXDJiJ/YMLCaF0UhejnE1OPUc9HGCrRsCzFybsCiKBPxwk3wzYw9EIkLVNq52Cu+aWSK+YaFQ2G+N/HeQDzc3iS77I5VtpiSIJnFOtScLMwSKyRe3uv1opdvb293u13tXLTLDd+Zgj0ACun4V+Nq7jibg6u54zhvMxwOd3Z2opdj/xbtPL6NnHs5/8TuiEPmMf4N1guLx4GU43RIcDIsN0HycrLZarWMJ0HFTdtfDTvnfbCB4RLzeYWGhZOS4lmIfatl5LX0MaVwMzvHXs4rFBVc83Iy2Yl4eZZl4OXD4RBasUPmQYmaB/b3ArLuau44G4WrueM4bxNns4Bz48A55BBZF5VXVA1cBnQcOzrUDFYUabfbWJKCYmZ1pTxbLhEj2jluopkYicFROP3AZNqQY83pScfwsBt9rvRy+3wbGDmUSb85IZe4lpSH1WLnJF6ODT5HS3zCPJbt7W1j5I2QOT4ER83Jn4yrueNsFK7mjuO8xSc/+ck4myVDiLFzHEQnlYhqHpCREB3HswVAUKCVdDu349N4s1VeK5qrOcDlrxJi4SnwaLcWKa/0WlEKK3tSWUzc1UDQjWJiyN/QcTGhCXq6kRdsARZSALy83+9HLx8Oh71eL5SvDg6Zi1/FQrlbI+cSQhAft3Ac5xDjau44zlu02+3t7e0YIA/oETSYbs6ntYgRceMzLC0kz/MgBTvB13Hr0YdA07mW8aYDU6WYwPPjY+I3fuM3/uVf/kWb1oIlqZkfh7J4ZWy2esGmPWgNGYpmRNwrWaVYM0FPqZwMe6WdYxcPjdQc+zd80yATk2VZfPpzOBzGVVnEk9LUvEAPLYCgA3gEYmdIvuM4hxtXc8dx3iLLsk6nE9AkVxI756F0KIwrsT/xWijgT1l5igv5jNNOcBCd6JrYFk/gOwqcBi/nfbPTpHWjgHiIeGtB6qm8ExAbTTyqVp11MyvLpNxOpHh5AzXP0SLlOKHFy4tyyBzi5cPhsN1u8/Mqyo898D+QQvp1hX+r4Qv/4IMPVo6w4ziHA1dzx3HeAkfBNTsnjo4LB2UdEtFL4ibxp7CMFELg3AiiQ9zdbhRLOb7HgHNZLBaz2QwrGvS20sjxXq7ahfnMqEhKpDylzsamnnhfUVfQGwi9puPil4fsxZmVOl5I88jJ1wDvGgwG8dHP7e3tra0t3GcSCxdvEaEA+XaRv4IIqLkxUI7jHDJczR3HeQtNymEvMXXR43FVIjEEHiPukMBqkkmB84IF0bE/afcA0KI4Fae1XMzxIx/5yD//8z9jUWuhdzoSF9ROLUVqub5DZlae9GJUYjTUrG9ir1JqSMzkwWDjBPntTVDsXFNzMcGj4AT4RkUFD+g7ib281WpBvJysysJPTftzEAccq3kEvHw+n2vD5TjO4cPV3HGct2iV3xkUmFJUBs4To7PgxNlyHgsJGWqBcx5EJ7rMxSjLMnGufLZ8FWir1ep0OuIcBqiKp8mZpng5x3biuhF33o3EGuzOa+NgZHI/rtUiKcO93NBx3jpXcDGR8uhnnudHjhzZXhJnfwX9mWPtXtH2ckjP5/Po5WfOnKkcLsdxDg2u5o7jvIURI9dC5sTOa7XVQu9SIf6kGXmQ4qZQIU+Dl4Oag51HL4/NtVqtX/u1X/ve976HLa1VfgUjdAw2jbMrlIXD4ShDylNi2PyUtW6k1FO3A5ptc3UWD0wPmQd2ofGXJFRJOSTEieMpXk52bW1tHTlyZHd3d3d3dzAYwHCR0ePnVfkzCCGEAF7uIXPH2TRczR3HeQti2GIUXAyZr9JcUIwNzDh+4qkvsEkMmKfJC00hHb0c3x7EwDlRsVbCixjT9Vf0dTIg+AYAezwpVtn0Ktcl8Yy4E2tpu37tTgDrOCS4wtp2zhHlG5YAEkPmMb/dbh89ejR6OUxlMcZZ3IXPFK4yP508z+fz+Ww2m81m9913n9aE4ziHEldzx3HeAj/6BojRcR4sb+aC2q/8uE5RyoNirvi+olV+ZVLcLIoCwpAg9zFx+fLlra2tgtl5YJpI5Lhgs+Erz1rUU6icnJq9WTmYq0BaJBg6rokyHxxcOW+Ia3eBVt7ke3kHxFnmOGouhszjsSDreZ4fP348evnOzk5QblztkDn5hmvDFb0ckC+M4ziHF1dzx3HeIi8/VRkkVYLZLGtpkRsq5Ed3wWZM/JhYMkmQMHl8w+h8Ps/R8ogREPTf+Z3f+d73vsd1DT+oilWVi2ZhPr1aOQ648hQpFzfX8jsG6RjPwZobJL8UdTkwPa1sCLdIJJtXy/uA0Sar4AV/AD7FPE5lAS+3R49/LfkJkn5CW3HJoOjl9957Lz/KcZzDjau54zhvge3EmHBcoDWbtcC5dqwI1xcstTCzhcSwwXe5BpEZLHmex+URuZfDgbGVg4ODXq+XM1rspae1TtAGlJqcPj6pys3ECG5KT1LKiC5uq7lWFb+9IZsGwZTyEIIYMhe9XLTkSKfTOXr0aFRz7b5Um1jFT4qkCTC/3EPmjrOxpD5v5DjOJnDhwoXBYNDv93u9Xq/X63a7MdFZghc5CbqaYwrJOIPuKAH5Fv7M0VxwbHXEivDjnlyy7dPP8/z73/9+RyG+JxXPZDACpfanmDDSxqZY7eo/a4g1iPorprkxa/WTmw2SEJVarFzrhkiKl8PahbfeeutNN910/Pjxfr8PD1rguzX70mjf+QUjzi+fTCbj8Xg0Gt15553p18txnEODR80dx3mbPM/tn+BhV1EOWhsuWKmJ2LN5uxlazhx7m9g6rJCII+WAIYjAaDQaDoei1sOSi5WnY0xrKcqzYqDCBrNZGvs3+X3DsHAxX/Rv7sQB2bNYDzdXoy0e/w5lKbf7xuWbP/TJ9+Z5fvLkyTibpdfriQNojK1xdrxpLOgeMnecTcbV3HGct4nvHeS+AgWIFdWyw0IJH3KwyOLMgBZfD2Uvz5aT4Mn0lXQpj+zt7fFVaMDUcd9C2WuLZFcukGQXZUHn6dBoqA343YV9LQiG+4qbvH5jxKAkrs2YlEJKQnleCd6Lg+U8ZI4/o5QfPXo0LpVYayqLNs64LR6hh4VZXM0dZ2PxCS2O45T48pe/DFNZ4mec3wIzOvgb7+sqqebo2F1CWezIpzhRhOs4fAZlSY0g+dY//MM/xAXy4jyWbrcLc1qwtfPDedr+YcGYhSLOkTDmrqRMaGkm9yTErom4oeZGtYaaE1Em9hx08yaNksPxoiukcuLKvV7v5MmTN91007FjxzK0lj95D644UJkyd4ucF9fx8ZLTp0/XukyO4xwaPGruOE6J2WzW7XaDOf03Q4v9FWnR4lpRAG0qSEAqRvZyHYeEZtK80Zi44447vvOd72RZNhwOs/L7laBp8YakYEF07SwCsresPKdFzFkdHsTVTp9AFFO0cC2nEvHLI9apTWiBBP95hPcKXjLFgcOLpTQfO3bs6NGjR48eTb8T0wYNnxduhYfM5/P5dDp1L3ecTYYuO+A4zobzwAMPTCYTrj6agYnaxImVp6QBown88FyO3guDP2EKSoTHoQk481d+5Vf29/fH4zE2J4IY07WBXhXlmwcx2L8u+GCKZVapLf3wonybRy53rXqISeMrgj0biF4uhszhqxI35/P5yZMnjx49evz4cSzlYtqmkLwcX2jyGOh4PL506VJKzY7jHFY8au44DuX1119vt9sxdh7Q6igxESdewycYlS0rhRRH1NKFdGMQkLfBHJWA4sHEforlIo/2ZA8x9pll2Qc/+MF//dd/hdg5iZpDgq+riE+HB8sLFiAPLIKON1cMnCcGy+0yGK7IPBNfHbEGvKso/9Sg1YkvLrncPF6OKw/lLzDvOXxVYmI+nx89evTYsWPRy8U7t8qTwq0H9hcE3SY3e6PR6NKlS+fOnUu8Fo7jHEp8rrnjOAKPPvroLbfccuzYsTjLHOZb4/nlZOJ1ikQWaVIO6UJS8+g0BZpxLvoc1ylDrXBmnFcwm81Go9G//du/3XTTTTDvHM+wFycf83HQhkW7YeCbOEf7tDM1jL2agBpSjmPVvCf2yfI6tZ8UeIviPBYMj5QTUcbfq36/f+rUqVOnTsWlEsVnglMGkLTOO4CnmM9ms/39/TfeeOPs2bOVFTqOc7jxqLnjOAIxcN5ut8kzcDjIWqCZ3BDuFWsjtpQi5ZDgCgiiE1DQF5cMyPlESeX9JHsjvV7vZ37mZ77//e//3M/93M7ODsxUjicbzz3+boCnnlfeqOAxDOXguraZKdPWU9QwpQ98r7iLe7k4FQcPY4HukbTOQIWBXUp+9eN1zxG2l4tajKuCYjH/+PHjx48f7/V65EZO/J7jLxtvlwwRNJovX/kJXj4ajS5evOhTWRzHCR41dxxH4/Tp07fccsstt9yyvb0dV2uJ4XMSOA8ssquhCbpt6qKcxQkAgc1mCUihMDg/sKgt6Xm0pRg739/f/+EPf3jx4sXbb7/9yJEjPFIeo6rwNqIgBYbFwdHGKqUS8qntEluxr1HlFcRXgas5vgr4E25dxM9CgYTMtbTYT9JhEh3H0h83F4vF/v7+e97znlOnTu3s7LQQ/LtkjC3+MmvRevhZJn6Ox+M333zzzTfffPbZZ43BdxxnQ/CoueM4Mi+//PK9997b6XSyLMPR8TivA6abk8go9xXNyMmmIeiausFeOFBrnRuVbedwsoPBYDgcvv7666+++mqe50eOHMmWy5xDot1uF0UR7ZxXCGJKelKg6DLvcFGecV5Uxc7FzMDI9KnnWUIcvWABcrJJTip+drtd8bYBzjedvAxukUNEnNw84NHO83w0Gt1+++0nTpzAjxbgbzUeH57GtZGm+TyWGDIHL//pT3966dIl93LHcSIeNXccx+KBBx645ZZb4ltXtra2+v1+nHWdoZB5SAicF3UEvWC+TvwMVuSAGkSXMgi6o0PIfD6f53n+f//3f6+88srBwUGv19vd3d3Z2YmzHfCk8zj5B2Yh45pJ2JW0hdGGjrs+7z/PtC9HZaO8WKWUEzWPgxO/KmKHY0l8IL7EXMQ5lV6Ouxd/ZgnlOH2sZzQanTx58uTJk8eOHYMXypKQORkrMm5Y1rmXQ0P4ZZ/Ry/f29t54440nn3wy5So4jrMJuJo7jlPBww8/fPPNN28tGQwGvV4PT1HQxIv/80IClgWKCgdd0AOTHljUgsc1K3UcrJGLcuwJmFPUqf39/R/84Afj8Ti+hqbT6QyHw+FwCGoeTS7aOffjjM3UbyDo3M6DYuFiZsq/85WOnqjmcKZwCycaOVdzcveV7uXi2eGOzefzoijw45u4lclkcuTIkZMnT544cQKMPF7TrHz/KV4LrV3+GePl8O2aTCaXL1++ePHi448/Xnl1HMfZHFzNHcep5rHHHjtx4kQMnEP4XFNDrCzcuiCTSHMoGzn38lBW8/hZKeVivuHKUaFmsxleHP0HP/jBxYsX5/N51M0QQr/f39raim9IxVHzdrsNVeG2+FI2tuGJ+Zqg25t8PA20zhAXF6UcmoCXp+KLK557opfjawEFSPfIZiw2m80K9pAuNubpdDocDqOX42A5qHmllOO0JuU4Xh5ns0wmk729vUuXLj366KMp18VxnM3B1dxxnCSeeuqpnZ2dGDjvdrvdbrfX65HHH7F4FeUpCljdRHWOu8RQKEmTqDmfMSI6uqbmRBbDcvFErIavvvrqj370o+hVW1tbMZLabrfjDwjEzvGjsZWPzGqSp2WS8rwq8Yzw4KfAe8LNGPQXX992u429nPctmF6eS/NYsJfjpnm3ITPqb57ncDlwu9DKbDbb29v7pV/6pZMnT2IvBzUXx1wbokL/PQGkPCail1++fNmXMHcch+Nq7jhOKs8880y/349S3kVwQedezqU5MIcOZsgc7wU1DyFAgJNXmOLl3GVhKguwt7f3wx/+8MqVK/P5PJ57LJllmWjnopeLzcEmwJ3PyElRc3wtal7wt++yRC/HSh1CaLVasP496QPvJzdyLOUF+m2EY5wIzESCmeK4XdzifD7f29v70Ic+FPvcYohDHRRTJzqeS/NY4ud0Or18+fLe3t7DDz9c93I4jrMJuJo7jtOQL3/5y5qgkxh5SJByfCxuhUhbnuf9fh9HzbENG61wURa7AW0RL/yf//mfV199dT6fj0ajEydOYKXudrv9fp/HzrmXi9NaiMWGmnauVYUHE1+OBv/mi5FgIuURY345OU1SmxgvN7ycf0nyPI/TkPATnPgS4xYXi8Xe3t4HP/hB7OX4R49g3leQy6FJeb6cxwLx8ul06vFyx3FsXM0dx1kPf/mXfxlXPY+boh8HyYYDm30hRkwh59ixY91uF0fNKwPnWgBb7I9ohK+//vorr7xy+fLlGJQ9fvw47nmWZYPBgM87F1sPkkbj0Qj17Vysk3g519mUy8oD2zhBJoGkPPcZynM/8K1Xip2T/sNPKPP5HHcGX1Pe8729vQ984APxBxAxWE76bNg513Hu5dPpNC77E+PlPr/ccRwDV3PHcdbP6dOnT506Bf4a4SrJDyTBXW7n3W732LFjR44cIWoOHqx5uajmoqBHgSP3BuPx+JVXXnnllVfilIn4OCz26SzL8MwWiCKnT2vRvNAeMS70RIKDbudkzEVyFtiOm3wGCP7ZROtbKLs+UXOA5MC1wH2GfJByWNMTjzCPyu/t7b3//e+HhyW0GSxkU7RzfhbwGWPks9lsOp3GkPmVK1fuu+8+Y6gdx3GCq7njONeSz3/+88ePH+eRVCyOxM6xXOZ5vr29fezYsVOnToUQFotFURRthCblmR665nYepFk0eZ6/9tprP/7xj3/6059OJpN2u727u8snqMTIMbZViCUTO4cWYwLnAw3sXBxVcXgJmrXzqDA+Oz57pLK3PIadGC/Hd2uwRE+73YY31JIrLuoyeDmZYp4ynsTLNSmHMDkEy+OrRs+cOSOOvOM4DsbV3HGcG4kHHnjg2LFjEDgnak7mkJC0JseEUH5IEUK2V65cefXVV1955ZU4pyUucC6qNjhflmWwaAnktMpzb8LytUSQj2lm50G6sQlVdh6k+yJRyrGRQ7cL5cWrvEt2vDz+HiJaO140E+ai8Asdyuuax0R8/vIDH/gAPB2REiwnm9jLyeDA8w/RyPGLq0aj0YMPPqiNueM4DqbzTnfAcRynBleuXOl0Ot1udzgchhDyPMdmViyXS4+FSZpUJTou3wW6v7W1tbOzc+TIkYsXL8bJFZPJJD4ASo6NHhnND8wSBD3uwuVjt7nahhCK5eI2OId3mGdyF6+0c7FY7H+WZeLknPip1Yk7j28PtHg5vOQVmzrOjzOaYCoRmSAEnYG2oFfx/T7vf//7yZrruBgeZ20TrhSOkce4OPbyOWIymXzhC1/go+04jiPiUXPHcW4w7r777mPHjr373e/udDp5nsdpFaBcJJqbKRF0jSCt7gcq9uabb7722muvvPLKdDqNMzrii1H5XJoQQlTwbPnG0Ph+InhLEXdKcU5LM1K8nAfIxUzoITFyHOPHx2ZSvBnrMlFzIuWg5sVyiUPI3Nra4oOGN0M5WA5NHBwc3HrrrbAYf1xNCHeP9LZys0DLdwLxIQTs5YvFwiexOI5TF1dzx3FuPO6///5jx47dfPPNGZoxgt/NydUcbwZlKgsxY27n+/v7r7322muvvfbmm28GNLOcLMkClcTgOtg5EXTevRZ7LTwP62ZpL/hc0c6hLdJJPvcGO3fM4XcXopqDi5MERMqj3eZ5PhgMut2uccnirxMFm8Qyn8+xl0c1bzxxKFvOLyeRcvByWCdxPB57pNxxnGb4hBbHcW489vf3u93ubDaLZoztOZRnI4iBT9vLuZPBsdvb2/v7+8Ph8MqVK5PJJPolPiQKd0BzaWLgNkgTvqPQF8s5Ell5ZktQYtgkh/ezUsHFmuFw8kyneP+QocnlYkOkP+QC4VnjOIHFN8bL4Y1OxiUjlUM3ptPpaDS67bbbsJHHVrSvh5aDbyrIK4Tgczwej0ajhx56iI+A4zhOOq7mjuPceHzjG984ffr0bDaLgku8nJfXbNsuKVraqVOnBoPB/v5+fBiUFI7dAGuMThntPCtHu0kIOTo6PJjIHRoo0LxnXAaXTDRyqI3fmZAbjAyFzLUT0XqLIZNY+PxyiD1HKcerr5B+hvL0FdKHKMrvfve743jO53P8PcGVGNeanx1/tefBwcFoNBqNRk8//XRwHMdZGVdzx3FuSK5cufKjH/3o3e9+d7/fLyTsw7UQLOzVjgohbG9v//Iv//J///d//+///i9MWVksFiR+n5WXKocpFtj2sC/C4SQ0DgmxV6KFp0h5tlwcJpQVXNwMKJouqjD5JJHmXAHPL49zQvI87/V6W1tb0cv5pSHjCb9IwOd0Oh2Px+Px+LbbbosxcjzCeG0ZcUhFIw9ofnk08itXruzv77uRO46zdnyuueM4Nyp/8id/8r73vW93dze+iZNMN28p7+PMqh4GJa1gE8Xx3bgcx3e+851oorED/O2SsUL8dGOWZXjGOax6Tg6B1iFNvJmUqdRxOBF8ppUJnBaFlWfiRrmIcztfLBYxWB5nnkQpj8MiXveiKK0jDt0Yj8eTyWSxWBw7dqyVAK6f3A7xc8zzfDKZ7O/v7+/vRy9/6aWXlC+m4zhOc1zNHce5gXnmmWd2d3d3dnbAy4ma80nStqNDzdjVbMv81re+lS3fN4QXzMYKmGUZPDKY53mrvGbr5uciAAAPFUlEQVSLZo3k32euzqHKy8nPCFy7K3UcWk9X/7C0ZyNSDonpdJrneVzrJkp5DJaLl5tIeQQ/ggn3Zq3yG5E45N2lmpFHQMr39/efeeaZtO+m4zhOE3xCi+M4NzCgZXFmSNAXG0mEF4Ycrq0xfccdd/zjP/5jq9WKU6Vb5dW1wVZBwWFeBPSw0+kUZVrLmTBwOLFkQ5qhEggqY5UPZS+3Q+aic9sJkHLyCwMkYm0xUh4PjAuw4Bks/LrgM8rL653DYinnzp174oknYDlLIugkkS+XtiyqODg4ODg48BVXHMe5NnjU3HGcG5sLFy7s7Oxsb2/zCS04wWPnYvgc10xCqtqsjKIoZrPZt7/9bWir3++TWDi0WCynLOd5Pp/PIXCO1zvn0y2CEjLPyqF97K9EyslRHFIMauCfYiIvvzyIR8ehBrgtCSHEKUDwuGco34Fky58FsJHjHx+gfr4uytNPP40D5GLgPFMWw8Eh+f39fZdyx3GuJR41dxznxmY0GvX7/cVigR+pJGYZqsLhYj7JIV4LKhnnY3z4wx8ejUb//u//HkKYTqcg4jjkHEIAL1wsFrHAaDSCddnjHOvYbeyOWsicnK8YJudnZ3g53IQEFCzXvDwvLyLOvZx0D0Lmsa1o5HFtRD7OoSzlECCPiyqCpj/yyCPit+LRRx+Niccff1x0dHIu+BrFFs+ePSvW7DiOc1XxqLnjODc8Fy5cOHr06HA41Kabt9gjoXbUXJRa/EIc8hnfMjMajcbj8X/+53/GtobDIaz912KT2nO0mHdRFOPxOE5Vh4cgceBc7E+BZpvgMLkYBQ+KlEMZXJu2GaTZ3tzL8VEg5bjP8PYfWAaenCMcBcQXbcb6Dw4OnnvuuQbfk0cffZR4+WQyOX/+fIOqHMdxrhIeNXcc54ZnNBptbW0NBoPAAslYE0H7MhYXB8RoRYZWD8zznH/CLUG73f6FX/iF//iP/+j1egcHB9vb23H+NKk2yzK4Z4i6ORwOi6LY39+PC5VEc40R9AxNLyGdxCfYUpYcETcDi4WHKjvnLs41XRt5aCL+MhAJ7IeLDE34gRnkUcoXi8Vjjz2mXbVEfKFDx3Gufzxq7jjOYeDChQsnTpwYDoc8ZI4XUuRhchLPDmV3F8PVOE4MYhrfOwOR3e9+97v9fr/dbu/u7sZ1AMXYeZZlZO5HTE+nU1iuRDxf/E+3GPsXA+diIpRfeBkUO8fdS5FyclMU71vwAiy8J7DQCkj5dDpd3cgdx3FuIDxq7jjOYSCa8WAwaKG3aZJPLKOFEkSHCLERWce+C4Hz6J3tdjuq+a/+6q9GQd/b2yuK4qabbgpln4b6O50O1txWq1UURawnumkLvRVIm44SpLg4PkH4zJdvMOUh9kovJ4Jue3lYzpiHnxTwAiyk2/E9PvCWzdlsdu7cueqr7jiOc+jwqLnjOIeEGDjf3t4Wp5uTNc61GHZQBJqILy4TDXU8HucS3/72t/v9fqvVOnHiBGkXdyCwRQ8xuJjh6HiRk0wJ/GN15qfG7dwA95MXbpchC7Dg/kwmk+jl8/ncl0NxHGfD8ai54ziHhIODg62trXa7HedtB33hP6zgXEzFwrwMELV4MBjk5TfPx8Rv/uZv/v3f/32/37906VK32x0OhzHQHmeZE0GPEfQYOMf6a0g5yQeVh7Mjm/hExNBMipQbBUIIRMoz/feH6ZIzZ85UXF3HcZzNwNXccZxDwmg0Ojg4yLKs3+9jVQ1sTktRXn8wJkiOoa1afvTsYjkpBTZ/67d+a7FYfOc73+n3+3mex0nk+fKVN5CAdFxMEM9vKVDgXDRy2MTezL2c9D8rv3CHHC66ON+Ld+EVcvjS7Jg4V2cymbiUO47jYHxCi+M4h4fHHntsa2trZ2fnxIkT8DYfmNACc1rwDBAiuJFCj5pziMqLsfPIt771ra2trX6/H0LY2tqCFRIJeBHuAgXObSnP0E8BWJpjrzI0k6Qy+I3zU9LZ8ilPMHJYoBCPXkzneT6dTkejkUu54zgOx6PmjuMcHvb396Ms9vv9nZ2dLMvim32wj4oKzjOxamt2jg0eb4qx8zzP77jjjsVi8U//9E/b29uz2Ww0Gg2HQz71PLYYX6IU7y6g55qR41sLTaNDOXBOgugFmjvOK+G1RfBLfDLlpaq4iclkcnBwMBqNfN0Vx3EcEY+aO45zqLjvvvuGw+Hu7u673vWu+O4eiJ3HTzFebkTNtYaIjvNN/F5MCJzHRUhCCN/97nfjE6uklbjkYlxvEQf7QYJDeYkYkjZMGhIQXy/YC4PEQ3htYflaU4jxw5CSUYKc+Eqmg4ODxx9/vPZFdRzH2RhczR3HOWzce++9w+Hw5ptvPnnyJPFyvLq5sVLK/2/vXlqb6Ps4Dk9urXhoUxUsBnTR4ivwZbmx1hN4poor0Y1b34puXCj4Dty4r13YBKo0bZ7F4DDOZNLIw839pb2uRUlPk0wK4yd/f5kpZtb5jBxvfH1Su8h8qTp3YenLly+Li4snTpyYei/lkv+FCxfqMzmNx18fIOm1hsW7bleP7a/SvPj9AqD+1HWtlFd7VI6v7O7uLi0tbWxs/PWfE+A4kebAEbS+vr68vDwYDPr9fr3O6xXeDvR5tnxojrc/req863j76dOnpaWlcgW9rTzB+blz506fPl2fmG9/bMy0TM3x4s/ZlUPTvKidfrHxGqbawd7voZ3GE7W3t1culq+srAyHw/v378/zDAMcZ9IcOJpu3rx5+fLlwWBQjYi0p1mmXkdzhvoBc+qy+uxkn/Hx/fv3i4uL5aVD25stjcfjg4OD5eXlGRPejbGcrkafelHP8mP5u73W20a7dnbqNEsZ5ZcuXSpfk3z9+vXNmzezn1sACmkOHGF3794dDAYrKyv1aZbGqnljJmQeXf099Ytl8nadSbDxwx8+fFhaWipX+rvufX9/f2dn5/z58+Uiej2L6z1dv4t6oHdFeePdrtXtcrG/3vT1h90eN7948WJ9hmd3d/fWrVvzPa8ASHPgSHv8+PFgMFheXi7fWNlrvQG0EejtLUw9SB5a55M/T3hSX1qecdQtv/Xx48d+v19fQW/cUdnHw+Hw1KlT/X6/60KbUwO9nuaVqVFeFEU5HN/4xclkcu3atSrH63Ffn6rf3d0djUYPHz7s2lkA2qQ5cPS9e/fuzJkzU4t8zoGW9qFyap2387eoTWm3L8Qz4wj8+fPnfr/fWEGvCnhSOwvkcDhcWFiott8+d0qvdkqW/f39vb298XjcWJhv1Hn5k+UdVbuzurpa335j9b2K8p8/f45Go9Fo9OLFi1l/FQBapDlwLNy4ceP69ev1ExE2rkA0z0BL44BZfTp1SqQ+ytIe/Jhn+5Wtra2TJ082LmZU/4FGWI9Go8YGq6Qu97r6buMeq4gvz/N4cHCwuro6qb3XsxyhmbSm1cso//Xr12g0Gg6Hm5ubhz6ZALRJc+AYefXqVaPOp8Z6UTstSdGaDKnfnvF+yvYoSzvQ5zkCN35ma2urWjhvPLbZn9bXzhs3Gnc3Ho/X1tYa/y1QPuCu/a2ifGdn5/Xr14fuFABTSXPg2Hn69GlXoFc3iml13i71onXtnnqat1u8vXbenqLpOiy3v763t7e9vd3eQtcjLFqXK6pnejk4fvXq1aJjvuWgw3A4HA6Hz58/n+O5B2AWaQ4cUxsbG1WOdzX6oV0+I9MbLd4YQ69q+J/alT7r0yZt5eH6+/fvP378OPXbwsJCeaN8OVEv9UZAF60uL29cuXJl6l40bpTXMR2Px+WgS2k8Hu/s7Lx8+fL//WMAUBSFNAeou337drvXi47TnjS+8uDBgxlbfvToUaPOi6JozNJM/djr9ba3t588edLY4Pr6ej3NK40XEr1e79u3b5PJZG1tbeoKfflioJHjjTQvR2jGf3r27NlfP78AzCTNAY6mzc3Ns2fPlrfbJ1JsTOB0nd2l/DeifJfnvXv3/ps9ATg2pDnA8XLnzp2pw/FVoL99+/a/fowAx5Q0BwCACPNemBoAAPhXSXMAAIggzQEAIII0BwCACNIcAAAiSHMAAIggzQEAIII0BwCACNIcAAAiSHMAAIggzQEAIII0BwCACNIcAAAiSHMAAIggzQEAIII0BwCACNIcAAAiSHMAAIggzQEAIII0BwCACNIcAAAiSHMAAIggzQEAIII0BwCACNIcAAAiSHMAAIggzQEAIII0BwCACNIcAAAiSHMAAIggzQEAIII0BwCACNIcAAAiSHMAAIggzQEAIII0BwCACNIcAAAiSHMAAIggzQEAIII0BwCACNIcAAAiSHMAAIggzQEAIII0BwCACNIcAAAiSHMAAIggzQEAIII0BwCACNIcAAAiSHMAAIggzQEAIII0BwCACNIcAAAiSHMAAIggzQEAIII0BwCACNIcAAAiSHMAAIggzQEAIII0BwCACNIcAAAiSHMAAIggzQEAIII0BwCACNIcAAAiSHMAAIggzQEAIII0BwCACNIcAAAiSHMAAIggzQEAIII0BwCACNIcAAAiSHMAAIggzQEAIII0BwCACNIcAAAiSHMAAIggzQEAIII0BwCACNIcAAAiSHMAAIggzQEAIII0BwCACNIcAAAiSHMAAIggzQEAIII0BwCACNIcAAAiSHMAAIggzQEAIII0BwCACNIcAAAiSHMAAIggzQEAIII0BwCACNIcAAAiSHMAAIggzQEAIII0BwCACNIcAAAiSHMAAIggzQEAIII0BwCACNIcAAAiSHMAAIggzQEAIII0BwCACNIcAAAiSHMAAIggzQEAIII0BwCACNIcAAAiSHMAAIggzQEAIII0BwCACNIcAAAiSHMAAIggzQEAIII0BwCACNIcAAAiSHMAAIggzQEAIII0BwCACNIcAAAiSHMAAIggzQEAIII0BwCACNIcAAAiSHMAAIggzQEAIII0BwCACNIcAAAiSHMAAIggzQEAIII0BwCACNIcAAAiSHMAAIggzQEAIII0BwCACNIcAAAiSHMAAIggzQEAIII0BwCACNIcAAAiSHMAAIggzQEAIII0BwCACNIcAAAiSHMAAIggzQEAIII0BwCACNIcAAAiSHMAAIggzQEAIII0BwCACNIcAAAiSHMAAIggzQEAIII0BwCACNIcAAAiSHMAAIggzQEAIML/ADLqlPDwiHu0AAAAAElFTkSuQmCC;clipPath=inset(10.96% 28.67% 19.3% 22.67%);" vertex="1" parent="1">
          <mxGeometry x="-70.8" y="230" width="681.33" height="742" as="geometry" />
        </mxCell>
      </root>
    </mxGraphModel>
  </diagram>
</mxfile>
